<svg width="136" height="136" viewBox="0 0 136 136" fill="none" xmlns="http://www.w3.org/2000/svg">
<g clip-path="url(#clip0_332_110)">
<path opacity="0.18" d="M49.2949 25.0749C45.7208 28.3866 43.0718 32.6436 39.274 35.6895C32.8525 40.8497 24.1368 41.8756 16.585 45.1604C11.5897 47.3335 6.85337 50.7764 4.64332 55.7565C2.85208 59.7814 3.08419 64.5513 4.93934 68.5391C5.82557 70.4511 6.21935 72.5544 6.08481 74.6575C5.95026 76.7605 5.29167 78.7965 4.16902 80.58C1.41908 84.9361 -0.239288 89.9129 0.0281377 95.0243C0.44189 102.886 6.41102 110.641 14.2504 111.364C16.9415 111.613 19.646 111.066 22.3102 110.579C38.4011 107.635 55.4322 106.875 70.7377 112.642C74.9324 114.223 78.9707 116.284 83.3319 117.323C88.4265 118.538 93.738 118.307 98.9738 118.07C107.145 117.7 116.678 116.556 120.851 109.519C126.635 99.7639 117.421 87.5852 118.731 76.323C119.456 70.0999 123.38 64.627 124.208 58.4224C125.106 51.6779 121.908 44.5482 116.274 40.7336C108.45 35.4373 97.6299 36.7222 89.5517 31.8194C83.1604 27.9393 78.7672 20.3572 71.2322 18.2934C63.8418 16.2718 54.6737 20.0881 49.2949 25.0749Z" fill="#A7B599"/>
<path d="M15.2925 92.8241C14.502 87.3966 12.6165 82.1709 11.8529 76.7383C11.0893 71.3057 11.6208 65.3315 15.1007 61.088C17.3713 58.3246 20.6342 56.6006 23.8248 54.9843C26.6622 53.5463 29.5837 52.1133 32.739 51.7231C35.5209 51.3867 38.328 51.866 41.1099 52.1991C46.3441 52.8247 51.6741 52.9072 56.8695 52.0157C63.6527 50.8502 70.0659 48.1574 76.6943 46.3258C83.1882 44.5329 89.6165 43.6196 96.8773 46.9986C101.896 49.3364 105.6 54.2174 106.801 59.613C108.742 68.3304 104.359 77.9913 108.044 86.1251C109.083 88.4158 110.698 90.3904 112.016 92.5332C113.637 95.1749 114.807 98.0681 115.478 101.094C115.708 102.135 115.878 103.234 115.584 104.258C114.827 106.882 111.584 107.755 108.856 107.97C99.7854 108.686 90.7232 106.994 81.6761 106.01C66.9896 104.416 52.1702 104.697 37.4585 105.795C33.8569 106.064 30.2587 106.378 26.6639 106.737C23.7626 107.021 18.2543 108.755 15.5195 107.929C12.4702 107.006 14.4717 105.006 15.1175 102.135C15.8122 99.096 15.7398 95.892 15.2925 92.8241Z" fill="url(#paint0_linear_332_110)"/>
<path d="M64.5836 40.8145C64.5836 40.8145 63.1927 46.4691 61.1138 48.0467C58.9677 49.6748 56.7408 46.5464 56.7408 46.5464L55.5029 48.7868C55.5029 48.7868 57.7954 52.487 60.1063 52.5728C62.4173 52.6585 64.4457 50.5898 64.4457 50.5898L64.5836 40.8145Z" fill="#76DE11"/>
<path d="M52.7061 36.9306L53.0206 36.791L59.432 38.4208L61.3578 51.4052H61.1173L52.7061 36.9306Z" fill="#56473D"/>
<path opacity="0.05" d="M22.3781 106.993C22.3781 106.993 8.39295 107.929 6.38137 109.27C4.3698 110.61 20.1227 110.905 45.2589 110.15C70.3952 109.394 89.7491 110.15 103.453 111.532C117.158 112.915 135.746 112.647 136.004 109.262C136.261 105.876 102.071 105.835 102.071 105.835L22.3781 106.993Z" fill="#050200"/>
<path d="M109.321 80.0418C109.321 80.0418 108.852 83.9472 105.835 84.3307H92.5847L90.6992 62.6406H104.659C105.786 62.6406 108.095 63.855 108.556 65.5739C108.618 65.8921 108.659 66.214 108.679 66.5376C108.982 69.8729 109.321 80.0418 109.321 80.0418Z" fill="#76DE11"/>
<path d="M108.683 66.541H95.9L92.1056 62.8172L91.9307 62.6406H104.663C105.79 62.6406 108.099 63.855 108.56 65.5739C108.622 65.8932 108.663 66.2163 108.683 66.541V66.541Z" fill="url(#paint1_linear_332_110)"/>
<path d="M24.088 64.6589L22.8401 64.1156C22.6776 64.045 22.5445 63.9206 22.4631 63.7633C22.3817 63.606 22.357 63.4254 22.3932 63.2521C22.4293 63.0787 22.5241 62.923 22.6615 62.8114C22.799 62.6997 22.9707 62.6388 23.1478 62.6389H90.6988C91.5332 62.6311 92.3587 62.8115 93.1137 63.1668C93.8688 63.522 94.5341 64.043 95.06 64.6909C95.4983 65.2228 95.7884 65.861 95.9009 66.541C96.2054 68.571 96.0187 77.4129 95.9346 80.733C95.8892 82.536 94.5605 84.0884 92.7709 84.3121L92.5792 84.3306H27.1525L24.088 64.6589Z" fill="#FDA168"/>
<path d="M24.088 64.6589L22.8401 64.1156C22.6776 64.045 22.5445 63.9206 22.4631 63.7633C22.3817 63.606 22.357 63.4254 22.3932 63.2521C22.4293 63.0787 22.5241 62.923 22.6615 62.8114C22.799 62.6997 22.9707 62.6388 23.1478 62.6389H90.6988C91.5332 62.6311 92.3587 62.8115 93.1137 63.1668C93.8688 63.522 94.5341 64.043 95.06 64.6909C95.4983 65.2228 95.7884 65.861 95.9009 66.541C96.2054 68.571 96.0187 77.4129 95.9346 80.733C95.8892 82.536 94.5605 84.0884 92.7709 84.3121L92.5792 84.3306H27.1525L24.088 64.6589Z" fill="#FDA168"/>
<path d="M95.9396 80.733C95.8942 82.536 94.5655 84.0884 92.7759 84.3121L92.5842 84.3306H27.1575L24.088 64.6589L22.8401 64.1156C22.6776 64.045 22.5445 63.9206 22.4631 63.7633C22.3817 63.606 22.357 63.4254 22.3932 63.2521C22.4293 63.0787 22.5241 62.923 22.6615 62.8114C22.799 62.6997 22.9707 62.6388 23.1478 62.6389H90.6988C91.5332 62.6311 92.3587 62.8115 93.1137 63.1668C93.8688 63.522 94.534 64.043 95.06 64.6909C95.4983 65.2228 95.7884 65.861 95.9009 66.541C96.2104 68.571 96.0237 77.4129 95.9396 80.733Z" fill="url(#paint2_linear_332_110)"/>
<path opacity="0.61" d="M20.7007 84.3371H92.8214C93.0709 84.3371 93.3102 84.2381 93.4868 84.0619C93.6634 83.8856 93.7628 83.6465 93.7633 83.397V83.397C93.7633 83.1472 93.664 82.9076 93.4874 82.7309C93.3108 82.5543 93.0712 82.4551 92.8214 82.4551H20.7007C20.4509 82.4551 20.2113 82.5543 20.0347 82.7309C19.858 82.9076 19.7588 83.1472 19.7588 83.397C19.7592 83.6465 19.8587 83.8856 20.0353 84.0619C20.2118 84.2381 20.4512 84.3371 20.7007 84.3371V84.3371Z" fill="url(#paint3_linear_332_110)"/>
<path d="M20.7007 84.3371H92.8214C93.0709 84.3371 93.3102 84.2381 93.4868 84.0619C93.6634 83.8856 93.7628 83.6465 93.7633 83.397C93.7633 83.1472 93.664 82.9076 93.4874 82.7309C93.3107 82.5543 93.0712 82.4551 92.8214 82.4551H20.7007C20.4509 82.4551 20.2113 82.5543 20.0347 82.7309C19.858 82.9076 19.7588 83.1472 19.7588 83.397C19.7592 83.6465 19.8587 83.8856 20.0353 84.0619C20.2118 84.2381 20.4512 84.3371 20.7007 84.3371ZM107.621 90.5165V102.282C107.621 103.042 107.471 103.794 107.181 104.497C106.89 105.199 106.463 105.837 105.926 106.375C105.389 106.913 104.751 107.339 104.048 107.63C103.346 107.921 102.593 108.071 101.833 108.071H25.7431C24.9826 108.072 24.2294 107.923 23.5266 107.632C22.8238 107.342 22.1853 106.915 21.6476 106.377C21.11 105.84 20.6837 105.201 20.3934 104.498C20.103 103.795 19.9542 103.042 19.9556 102.282V90.5165C19.9544 89.4472 20.2514 88.3988 20.8134 87.4891C20.9361 87.2874 21.0721 87.0941 21.2204 86.9105C21.7618 86.2305 22.4496 85.6815 23.2327 85.3044C24.0158 84.9273 24.8739 84.7318 25.7431 84.7324H101.833C102.593 84.7324 103.346 84.8822 104.049 85.1733C104.751 85.4643 105.389 85.8909 105.927 86.4287C106.464 86.9665 106.89 87.6049 107.181 88.3074C107.472 89.01 107.621 89.7629 107.621 90.5232V90.5165Z" fill="#76DE11"/>
<path opacity="0.61" d="M77.9908 108.071H25.7436C24.634 108.071 23.5476 107.753 22.6139 107.153C21.6803 106.553 20.9387 105.698 20.4775 104.688H74.6673C74.6673 104.688 75.4477 107.548 77.9908 108.071Z" fill="url(#paint4_linear_332_110)"/>
<path d="M77.9903 84.7261C75.5886 85.123 74.9175 87.4828 74.9175 87.4828H20.8135L21.2205 86.9042C21.7619 86.2242 22.4498 85.6752 23.2328 85.2981C24.0159 84.921 24.874 84.7254 25.7432 84.7261H77.9903Z" fill="url(#paint5_linear_332_110)"/>
<path opacity="0.61" d="M107.621 90.5168V102.282C107.622 103.317 107.344 104.334 106.818 105.226C106.292 106.117 105.536 106.851 104.629 107.351H80.7303C80.2531 107.351 79.7805 107.258 79.3395 107.075C78.8986 106.893 78.4979 106.625 78.1604 106.288C77.8228 105.95 77.5551 105.55 77.3724 105.109C77.1897 104.668 77.0957 104.195 77.0957 103.718V89.4437C77.0955 88.9663 77.1893 88.4936 77.3719 88.0525C77.5545 87.6115 77.8222 87.2107 78.1598 86.8731C78.4973 86.5356 78.8981 86.2679 79.3392 86.0853C79.7802 85.9027 80.253 85.8089 80.7303 85.8091H105.204C105.952 86.345 106.562 87.0516 106.982 87.8704C107.403 88.6892 107.621 89.5964 107.621 90.5168Z" fill="#B7E48B"/>
<path d="M107.621 90.5165V102.281C107.621 102.498 107.61 102.715 107.586 102.931C107.576 103.025 107.562 103.117 107.547 103.21C107.484 103.613 107.377 104.008 107.228 104.387C107.192 104.483 107.154 104.576 107.11 104.668C106.922 105.087 106.685 105.483 106.404 105.845C106.33 105.94 106.252 106.034 106.17 106.125C105.731 106.622 105.21 107.04 104.629 107.361H84.1652C83.6483 107.362 83.1372 107.252 82.6663 107.039C82.1954 106.825 81.7757 106.514 81.4354 106.125C81.3567 106.035 81.2826 105.942 81.2134 105.845C80.9569 105.491 80.7682 105.092 80.6567 104.668C80.6315 104.577 80.6113 104.483 80.5945 104.387C80.5524 104.168 80.5316 103.946 80.5322 103.723V89.4434C80.5317 89.1889 80.5587 88.9351 80.613 88.6865C80.63 88.5921 80.653 88.4988 80.6819 88.4073C80.8061 87.9809 81.0092 87.5815 81.2807 87.23C81.3542 87.1323 81.4334 87.0391 81.5178 86.9508C81.8567 86.5881 82.2666 86.299 82.7221 86.1017C83.1776 85.9043 83.6688 85.8029 84.1652 85.8037H105.204C105.655 86.1266 106.057 86.513 106.397 86.9508C106.467 87.0416 106.536 87.1341 106.602 87.23C106.855 87.5964 107.064 87.9916 107.224 88.4073C107.261 88.4998 107.297 88.594 107.325 88.6865C107.455 89.0682 107.542 89.4631 107.584 89.8639C107.596 89.9564 107.604 90.0506 107.609 90.1447C107.618 90.2625 107.621 90.392 107.621 90.5165Z" fill="url(#paint6_linear_332_110)"/>
<path d="M106.602 87.2353H81.2804C81.3539 87.1376 81.4331 87.0444 81.5176 86.9561H106.395C106.467 87.0469 106.536 87.1394 106.602 87.2353ZM107.325 88.6867H80.6127C80.6297 88.5923 80.6527 88.4991 80.6816 88.4076H107.224C107.261 88.5001 107.296 88.5942 107.325 88.6867ZM107.609 90.1399H80.5303V89.859H107.584C107.596 89.9515 107.604 90.0457 107.609 90.1399Z" fill="white"/>
<path d="M107.623 91.312H80.5322V91.5912H107.623V91.312Z" fill="white"/>
<path d="M107.623 92.7637H80.5322V93.0429H107.623V92.7637Z" fill="white"/>
<path d="M107.623 94.2168H80.5322V94.496H107.623V94.2168Z" fill="white"/>
<path d="M107.623 95.6699H80.5322V95.9474H107.623V95.6699Z" fill="white"/>
<path d="M107.623 97.1216H80.5322V97.3991H107.623V97.1216Z" fill="white"/>
<path d="M107.623 98.5747H80.5322V98.8522H107.623V98.5747Z" fill="white"/>
<path d="M107.623 100.026H80.5322V100.304H107.623V100.026Z" fill="white"/>
<path d="M107.623 101.479H80.5322V101.759H107.623V101.479Z" fill="white"/>
<path d="M107.586 102.931C107.576 103.025 107.562 103.118 107.547 103.21H80.5322V102.931H107.586ZM107.236 104.383C107.201 104.479 107.162 104.571 107.118 104.664H80.6617C80.6365 104.573 80.6163 104.479 80.5995 104.383H107.236ZM106.404 105.836C106.33 105.93 106.252 106.024 106.17 106.115H81.4354C81.3567 106.026 81.2826 105.933 81.2134 105.836H106.404Z" fill="white"/>
<path d="M74.0483 82.0129H91.2879C90.5569 82.3782 89.7505 82.5671 88.9332 82.5646H24.8319C23.7709 82.5718 22.7335 82.251 21.8617 81.6463C21.6149 81.4759 21.3856 81.2815 21.1771 81.066C21.1099 80.997 21.0443 80.9247 20.982 80.8524C20.7473 80.578 20.5474 80.2758 20.3866 79.9526C20.3513 79.8819 20.3177 79.8096 20.2874 79.739C20.1624 79.4507 20.072 79.1487 20.0183 78.8391C20.0065 78.7685 19.9947 78.6978 19.9863 78.6238C19.9661 78.4592 19.9559 78.2935 19.9561 78.1277V69.1025C19.9561 69.0049 19.9561 68.9091 19.9661 68.8149C19.9762 68.7207 19.9779 68.6719 19.9863 68.6013C20.0237 68.294 20.0966 67.992 20.2033 67.7015C20.2302 67.6291 20.2588 67.5585 20.2891 67.4862C20.4263 67.1663 20.6026 66.8646 20.8138 66.588C20.8693 66.5157 20.9265 66.4434 20.982 66.3727C21.1062 66.2278 21.2393 66.0907 21.3806 65.9623C22.3287 65.1133 23.5594 64.6485 24.8319 64.6589H88.9332C89.9406 64.6577 90.9266 64.9499 91.7706 65.4998H74.0483C73.7784 65.4993 73.5095 65.5321 73.2477 65.5974C72.7102 65.7256 72.2166 65.9951 71.818 66.3778C71.7466 66.445 71.6797 66.5169 71.6179 66.5931C71.3929 66.8568 71.2215 67.1619 71.1133 67.4912C71.0896 67.5618 71.0699 67.6337 71.0544 67.7065C71.0089 67.8965 70.9863 68.0913 70.9872 68.2868V79.231C70.9879 79.4005 71.0053 79.5695 71.0393 79.7356C71.0529 79.8078 71.0709 79.8792 71.0931 79.9492C71.1891 80.2766 71.3479 80.5823 71.5607 80.849C71.6188 80.9237 71.6812 80.995 71.7474 81.0626C72.0362 81.3617 72.3838 81.5976 72.7683 81.7556C73.1733 81.9266 73.6086 82.0141 74.0483 82.0129Z" fill="#76DE11"/>
<path d="M93.8076 69.1681V78.1445C93.8076 78.1966 93.8076 78.2487 93.8076 78.2992C93.8076 78.3497 93.8076 78.4035 93.7975 78.4539C93.7874 78.5044 93.7891 78.5565 93.784 78.607C93.779 78.6574 93.7706 78.7012 93.7655 78.7466C93.7605 78.792 93.7538 78.8189 93.747 78.8542C93.7451 78.8724 93.7418 78.8904 93.7369 78.9081C93.7285 78.9568 93.7184 79.0073 93.7067 79.0561C93.6949 79.1048 93.6915 79.12 93.6814 79.1519C93.6714 79.1839 93.6663 79.2142 93.6562 79.2461C93.6461 79.2781 93.6377 79.3134 93.6276 79.347L93.5923 79.4496C93.5923 79.4782 93.5755 79.5051 93.5654 79.532C93.5553 79.559 93.5385 79.6044 93.5233 79.6397L93.4779 79.749C93.4707 79.7694 93.4617 79.7891 93.451 79.8079C93.4404 79.8361 93.4281 79.8636 93.414 79.8903C93.4039 79.9138 93.3905 79.9374 93.3787 79.9609C93.3669 79.9845 93.3434 80.0333 93.3232 80.0669C93.303 80.1005 93.266 80.1762 93.2341 80.2351L93.1819 80.3192C93.1348 80.3965 93.086 80.4706 93.0339 80.5429C93.007 80.5816 92.9801 80.6169 92.9532 80.6522C92.8994 80.7245 92.8422 80.7935 92.785 80.8624C92.7278 80.9314 92.6572 81.0071 92.5882 81.076C92.4503 81.2169 92.3037 81.3489 92.1492 81.4713C92.1461 81.4755 92.1421 81.479 92.1374 81.4814C92.087 81.5218 92.0365 81.5588 91.9844 81.5974L91.8162 81.7135L91.648 81.8211C91.5942 81.8548 91.5404 81.885 91.4798 81.917L91.2864 82.0196H74.0484C73.6091 82.0211 73.1739 81.9347 72.7685 81.7656C72.3845 81.6082 72.037 81.3735 71.7475 81.076C71.6813 81.0084 71.619 80.9371 71.5609 80.8624C71.3479 80.5977 71.189 80.2937 71.0933 79.9677C71.071 79.8982 71.053 79.8274 71.0395 79.7557C71.0054 79.5897 70.9879 79.4207 70.9873 79.2512V68.349C70.9866 68.1547 71.0092 67.961 71.0546 67.7721C71.0701 67.6998 71.0897 67.6285 71.1135 67.5585C71.2217 67.2307 71.3932 66.9273 71.618 66.6654C71.6799 66.5892 71.7467 66.5173 71.8182 66.4501C72.2179 66.0695 72.7111 65.8015 73.2478 65.673C73.5099 65.6091 73.7787 65.5769 74.0484 65.5771H91.7708C91.8482 65.6276 91.9255 65.6797 91.9995 65.7353L92.0853 65.7992C92.2023 65.8862 92.3146 65.9794 92.4217 66.0784L92.5142 66.1658L92.5815 66.2331L92.6723 66.3273L92.7631 66.4282L92.7816 66.4501L92.7951 66.4669C92.8489 66.5308 92.9027 66.5981 92.9532 66.6654C92.9801 66.699 93.0053 66.7343 93.0305 66.768C93.0331 66.773 93.0365 66.7776 93.0406 66.7814C93.0855 66.8464 93.1292 66.912 93.1718 66.9782L93.2441 67.0959C93.2879 67.1699 93.3299 67.2473 93.3686 67.323C93.3871 67.3634 93.4073 67.4004 93.4258 67.439C93.4443 67.4777 93.4628 67.5198 93.4779 67.5585C93.4931 67.5971 93.5099 67.6291 93.5233 67.6661C93.5368 67.7031 93.5519 67.7367 93.5637 67.7721C93.5755 67.8074 93.5889 67.8427 93.6007 67.878C93.6518 68.0236 93.6928 68.1725 93.7235 68.3237C93.7289 68.343 93.7328 68.3627 93.7353 68.3826C93.7353 68.4179 93.7487 68.4532 93.7554 68.4886C93.7622 68.5239 93.774 68.608 93.7824 68.6668C93.7908 68.7257 93.7992 68.8081 93.8025 68.8804C93.8025 68.9174 93.8025 68.9561 93.8025 68.9948C93.8025 69.0335 93.8076 69.1092 93.8076 69.1681Z" fill="url(#paint7_linear_332_110)"/>
<path d="M72.7683 81.7571C72.3882 81.8491 71.9958 81.9343 71.591 82.0128H25.8882C24.5373 82.0206 23.1889 81.8978 21.8617 81.6461C21.6149 81.4758 21.3856 81.2814 21.1771 81.0659C21.1099 80.9969 21.0443 80.9246 20.982 80.8523C20.7473 80.5779 20.5474 80.2757 20.3866 79.9524C20.3513 79.8818 20.3177 79.8095 20.2874 79.7388C20.1624 79.4506 20.072 79.1485 20.0183 78.839C20.0065 78.7684 19.9947 78.6977 19.9863 78.6237C19.9661 78.4591 19.9559 78.2934 19.9561 78.1275V69.1024C19.9561 69.0048 19.9561 68.9089 19.9661 68.8148C19.9762 68.7206 19.9779 68.6718 19.9863 68.6012C20.0237 68.2939 20.0966 67.9919 20.2033 67.7013C20.2302 67.629 20.2588 67.5584 20.2891 67.486C20.4263 67.1662 20.6026 66.8645 20.8138 66.5879C20.8693 66.5156 20.9265 66.4433 20.982 66.3726C21.1062 66.2276 21.2393 66.0906 21.3806 65.9622C22.8615 65.6426 24.3732 65.4875 25.8882 65.4997H72.8709L73.2477 65.5972C72.7102 65.7255 72.2166 65.9949 71.818 66.3777C71.7466 66.4448 71.6797 66.5168 71.6179 66.5929C71.3929 66.8567 71.2215 67.1617 71.1133 67.4911C71.0896 67.5617 71.0699 67.6335 71.0544 67.7064C71.0089 67.8964 70.9863 68.0912 70.9872 68.2866V79.2309C70.9879 79.4004 71.0053 79.5694 71.0393 79.7355C71.0529 79.8077 71.0708 79.879 71.0931 79.9491C71.1891 80.2765 71.3479 80.5821 71.5607 80.8489C71.6188 80.9236 71.6812 80.9949 71.7474 81.0625C72.036 81.3621 72.3836 81.5987 72.7683 81.7571V81.7571Z" fill="#FDA168"/>
<path d="M72.7683 81.7571C72.3882 81.8491 71.9958 81.9343 71.591 82.0128H25.8882C24.5373 82.0206 23.1889 81.8978 21.8617 81.6461C21.6149 81.4758 21.3856 81.2814 21.1771 81.0659C21.1099 80.9969 21.0443 80.9246 20.982 80.8523C20.7473 80.5779 20.5474 80.2757 20.3866 79.9524C20.3513 79.8818 20.3177 79.8095 20.2874 79.7388C20.1624 79.4506 20.072 79.1485 20.0183 78.839C20.0065 78.7684 19.9947 78.6977 19.9863 78.6237C19.9661 78.4591 19.9559 78.2934 19.9561 78.1275V69.1024C19.9561 69.0048 19.9561 68.9089 19.9661 68.8148C19.9762 68.7206 19.9779 68.6718 19.9863 68.6012C20.0237 68.2939 20.0966 67.9919 20.2033 67.7013C20.2302 67.629 20.2588 67.5584 20.2891 67.486C20.4263 67.1662 20.6026 66.8645 20.8138 66.5879C20.8693 66.5156 20.9265 66.4433 20.982 66.3726C21.1062 66.2276 21.2393 66.0906 21.3806 65.9622C22.8615 65.6426 24.3732 65.4875 25.8882 65.4997H72.8709L73.2477 65.5972C72.7102 65.7255 72.2166 65.9949 71.818 66.3777C71.7466 66.4448 71.6797 66.5168 71.6179 66.5929C71.3929 66.8567 71.2215 67.1617 71.1133 67.4911C71.0896 67.5617 71.0699 67.6335 71.0544 67.7064C71.0089 67.8964 70.9863 68.0912 70.9872 68.2866V79.2309C70.9879 79.4004 71.0053 79.5694 71.0393 79.7355C71.0529 79.8077 71.0708 79.879 71.0931 79.9491C71.1891 80.2765 71.3479 80.5821 71.5607 80.8489C71.6188 80.9236 71.6812 80.9949 71.7474 81.0625C72.036 81.3621 72.3836 81.5987 72.7683 81.7571V81.7571Z" fill="url(#paint8_linear_332_110)"/>
<path d="M92.5845 82.6821C92.4493 82.8386 92.3025 82.9848 92.1455 83.1194C92.3013 82.9835 92.448 82.8374 92.5845 82.6821Z" fill="url(#paint9_linear_332_110)"/>
<path d="M93.0255 66.8926C93.0003 66.8539 92.9751 66.8152 92.9481 66.7782C92.8977 66.7042 92.8439 66.6302 92.79 66.5596C92.8741 66.6672 92.9532 66.7782 93.0255 66.8926Z" fill="url(#paint10_linear_332_110)"/>
<path d="M93.5589 68.001C93.5724 68.0397 93.5842 68.0784 93.5959 68.1171C93.5741 68.038 93.5471 67.9607 93.5186 67.8833C93.5337 67.922 93.5471 67.9607 93.5589 68.001Z" fill="url(#paint11_linear_332_110)"/>
<path d="M93.8075 69.1681V78.1445C93.8075 78.2302 93.8075 78.3127 93.8075 78.4001C93.8075 78.4876 93.7991 78.5296 93.7907 78.5952C93.7605 78.8721 93.7007 79.1451 93.6124 79.4093C93.5923 79.4749 93.5704 79.5388 93.5452 79.601C93.1211 80.6563 92.3195 81.516 91.2964 82.0129H71.1538C69.5997 82.0129 68.3164 80.9634 68.1263 79.6044C68.1144 79.54 68.1077 79.4747 68.1061 79.4093C68.1 79.3534 68.0972 79.2973 68.0977 79.2411V68.349C68.0977 66.8167 69.4668 65.5771 71.1588 65.5771H91.7707C93.0053 66.3777 93.8075 67.6863 93.8075 69.1681Z" fill="#76DE11"/>
<path d="M92.9481 66.5878H71.618C71.6798 66.5117 71.7467 66.4397 71.8182 66.3726H92.7715C92.8354 66.4432 92.8926 66.5088 92.9481 66.5878ZM93.5587 67.7013H71.0546C71.0699 67.6284 71.0895 67.5565 71.1134 67.486H93.4746C93.5048 67.5566 93.5334 67.629 93.5587 67.7013ZM93.7992 68.8147H70.9873V68.5994H93.7807C93.7807 68.6701 93.7941 68.7424 93.7992 68.8147Z" fill="white"/>
<path d="M93.8093 69.7129H70.9873V69.9282H93.8093V69.7129Z" fill="white"/>
<path d="M93.8093 70.8267H70.9873V71.0419H93.8093V70.8267Z" fill="white"/>
<path d="M93.8093 71.9399H70.9873V72.1552H93.8093V71.9399Z" fill="white"/>
<path d="M93.8093 73.0552H70.9873V73.2688H93.8093V73.0552Z" fill="white"/>
<path d="M93.8093 74.1685H70.9873V74.3821H93.8093V74.1685Z" fill="white"/>
<path d="M93.8093 75.2817H70.9873V75.4953H93.8093V75.2817Z" fill="white"/>
<path d="M93.8093 76.3955H70.9873V76.6091H93.8093V76.3955Z" fill="white"/>
<path d="M93.8093 77.5088H70.9873V77.7241H93.8093V77.5088Z" fill="white"/>
<path d="M93.8105 78.6186C93.8066 78.6903 93.8066 78.7622 93.8105 78.8339H70.9868V78.6186H93.8105ZM93.4758 79.7354C93.4758 79.8077 93.3833 79.8784 93.3765 79.9507H71.0928C71.0703 79.8801 71.0524 79.8082 71.039 79.7354H93.4758ZM72.4367 66.5878H20.8135C20.869 66.5155 20.9262 66.4432 20.9817 66.3726H72.0263C72.1675 66.4432 72.3038 66.5088 72.4367 66.5878ZM71.9724 67.7013H20.203C20.2299 67.629 20.2585 67.5583 20.2887 67.486H71.7689C71.8407 67.5539 71.9087 67.6258 71.9724 67.7013V67.7013ZM72.5443 68.8147H19.9658C19.9658 68.7424 19.9776 68.6717 19.986 68.6011H72.4938C72.5148 68.6713 72.5317 68.7426 72.5443 68.8147V68.8147Z" fill="white"/>
<path d="M72.5679 69.7129H19.9541V69.9265H72.5679V69.7129Z" fill="white"/>
<path d="M72.5679 70.8267H19.9541V71.0403H72.5679V70.8267Z" fill="white"/>
<path d="M72.5679 71.9399H19.9541V72.1552H72.5679V71.9399Z" fill="white"/>
<path d="M72.5679 73.0552H19.9541V73.2688H72.5679V73.0552Z" fill="white"/>
<path d="M72.5679 74.1699H19.9541V74.3819H72.5679V74.1699Z" fill="white"/>
<path d="M72.5679 75.2817H19.9541V75.4937H72.5679V75.2817Z" fill="white"/>
<path d="M72.5679 76.3955H19.9541V76.6091H72.5679V76.3955Z" fill="white"/>
<path d="M72.5679 77.5088H19.9541V77.7241H72.5679V77.5088Z" fill="white"/>
<path d="M72.4975 78.6187C72.4752 78.6918 72.4488 78.7637 72.4185 78.8339H20.0183C20.0065 78.7633 19.9947 78.6927 19.9863 78.6187H72.4975ZM71.776 79.7371C71.7008 79.8125 71.6217 79.8838 71.5388 79.9507H20.3866C20.3513 79.8801 20.3177 79.8078 20.2874 79.7371H71.776Z" fill="white"/>
<path opacity="0.2" d="M74.4028 62.6406C73.6442 63.5522 72.6637 64.4689 72.2751 64.6724C70.0651 65.8363 67.5052 66.7361 66.2085 68.8637C64.5669 71.5548 65.6282 75.0751 64.8747 78.1395C64.7368 78.6979 64.5232 79.2681 64.0909 79.6532C63.6587 80.0384 62.964 80.1696 62.5049 79.8214C62.1012 79.517 62.0003 78.9653 61.9246 78.4658C61.2618 73.7504 61.2369 68.9672 61.8506 64.2452C59.3277 65.3721 57.6206 67.7503 56.2734 70.1554C54.9261 72.5606 53.7959 75.139 51.9189 77.159C51.3857 77.7308 50.6843 78.2909 49.9107 78.1799C48.9806 77.0025 49.4683 75.2819 49.9964 73.8725C51.0544 71.0418 52.1157 68.2044 53.478 65.5049C53.9187 64.6303 54.4081 63.7524 55.1482 63.1099C55.3507 62.9346 55.5692 62.7787 55.8007 62.644L74.4028 62.6406Z" fill="#56473D"/>
<path d="M92.7819 80.8506C92.7247 80.9263 92.6608 80.9851 92.5969 81.0642H21.1775C21.1102 80.9952 21.0447 80.9229 20.9824 80.8506H92.7819Z" fill="white"/>
<path d="M36.6288 108.071H27.9989C25.2321 107.374 23.8917 104.382 23.8917 104.382C23.8917 104.382 23.641 89.7496 23.8917 87.8995C24.1423 86.0494 28.3336 84.7207 28.3336 84.7207H36.6288C33.8621 85.1176 31.8522 87.8154 31.8522 87.8154C31.8522 87.8154 31.684 103.987 31.8522 105.075C32.0204 106.163 36.6288 108.071 36.6288 108.071Z" fill="url(#paint12_linear_332_110)"/>
<path d="M36.6292 108.071H33.8625C31.0991 107.374 29.7586 104.382 29.7586 104.382C29.7586 104.382 29.5063 89.7496 29.7586 87.8995C30.0109 86.0494 34.1989 84.7207 34.1989 84.7207H36.6292C33.8625 85.1176 31.8526 87.8154 31.8526 87.8154C31.8526 87.8154 31.6844 103.987 31.8526 105.075C32.0208 106.163 36.6292 108.071 36.6292 108.071Z" fill="#70CA18" fill-opacity="0.5"/>
<path d="M48.6477 73.2114L47.8438 74.6074L49.7107 75.4198L50.4827 74.0911L48.6477 73.2114Z" fill="url(#paint13_linear_332_110)"/>
<path d="M61.1998 76.9604L61.1123 78.5162L63.1474 78.3985L63.2332 76.9604H61.1998Z" fill="url(#paint14_linear_332_110)"/>
<path d="M48.2106 74.2981C48.1695 74.2134 48.1123 74.1375 48.0424 74.0744C47.9596 74.0197 47.8652 73.9851 47.7666 73.9735L44.5356 73.3243C44.419 73.2955 44.2991 73.2825 44.1791 73.2856C43.8696 73.3058 43.6156 73.5328 43.4121 73.7666C43.2954 73.877 43.2205 74.0244 43.2002 74.1837C43.2121 74.2837 43.2445 74.3801 43.2955 74.467C43.3464 74.5538 43.4147 74.6292 43.4962 74.6883C43.7232 74.8989 43.9619 75.0965 44.211 75.2804C44.6898 75.6161 45.1879 75.9233 45.7029 76.2004C46.0494 76.3955 46.3958 76.5906 46.7507 76.7688C47.3344 77.0615 47.9398 77.3071 48.5487 77.5459C48.5687 77.5585 48.5911 77.5669 48.6144 77.5707C48.6378 77.5746 48.6616 77.5737 48.6847 77.5683C48.7077 77.5628 48.7294 77.5528 48.7485 77.5388C48.7676 77.5249 48.7837 77.5073 48.7959 77.487C49.2364 77.0277 49.5837 76.4874 49.8185 75.8959C49.8774 75.7496 49.9867 75.4284 49.8185 75.3073C49.7597 75.2652 49.5932 75.2719 49.5192 75.2551C49.4089 75.2284 49.3009 75.193 49.1962 75.1492C48.7862 74.9764 48.4413 74.6786 48.2106 74.2981V74.2981ZM61.3195 77.81C61.2413 77.7578 61.154 77.7207 61.0622 77.7006C60.9631 77.6949 60.8641 77.7122 60.7729 77.7511L57.6546 78.8157C57.5394 78.8493 57.4291 78.8979 57.3266 78.9604C57.0693 79.1286 56.9633 79.465 56.9045 79.7627C56.8596 79.9166 56.8697 80.0813 56.9331 80.2286C56.9929 80.3083 57.0687 80.3747 57.1555 80.4237C57.2424 80.4726 57.3384 80.5029 57.4376 80.5128C57.7394 80.5809 58.0449 80.6315 58.3526 80.6642C58.9348 80.7146 59.5195 80.7298 60.1035 80.7096C60.5021 80.7096 60.899 80.6995 61.296 80.6743C61.9486 80.6339 62.5961 80.5414 63.2403 80.4422C63.287 80.444 63.3326 80.4274 63.3672 80.3959C63.4018 80.3645 63.4227 80.3207 63.4253 80.274C63.5747 79.6551 63.6038 79.0133 63.5111 78.3835C63.4875 78.2271 63.4152 77.8974 63.2117 77.8789C63.1394 77.8705 62.9998 77.9613 62.9274 77.9832C62.8177 78.0169 62.7051 78.0405 62.591 78.0538C62.1521 78.1091 61.7069 78.0237 61.3195 77.81Z" fill="#56473D"/>
<path d="M73.9442 56.8295C73.9442 56.8295 73.4161 61.7727 68.8598 62.6439C65.7752 63.2343 62.0026 63.0241 59.8901 62.8273C59.3906 62.7812 58.888 62.8741 58.438 63.0958C57.988 63.3176 57.6081 63.6595 57.3403 64.0837L50.7809 74.5317L48.8803 73.6134H48.8652L48.1924 73.2905L53.6553 60.5449C53.9761 59.7532 54.4687 59.0425 55.0975 58.4643C55.7264 57.8861 56.4757 57.4547 57.2916 57.2013L63.5668 55.2586L65.0334 54.8045C65.0334 54.8045 70.9067 54.2125 73.9442 56.8295Z" fill="#56473D"/>
<path opacity="0.24" d="M63.5712 55.252L63.9832 56.1249C63.9832 56.1249 56.751 58.2441 55.8629 59.2751C54.6772 60.6543 48.8813 73.6135 48.8813 73.6135H48.8661L48.1934 73.2905L53.6562 60.545C53.9771 59.7532 54.4697 59.0426 55.0985 58.4644C55.7274 57.8861 56.4767 57.4547 57.2925 57.2013L63.5712 55.252Z" fill="white"/>
<path d="M66.1393 55.9717C66.1393 55.9717 60.33 61.6313 60.1416 64.6588C59.9532 67.6863 60.7656 77.179 60.7656 77.179H63.5845C63.5845 77.179 63.4449 65.6545 64.5937 65.5738C65.7424 65.493 70.9496 62.146 71.7855 61.1856C72.6215 60.2253 73.9552 56.8261 73.9552 56.8261L66.1393 55.9717Z" fill="#56473D"/>
<path d="M73.9437 56.8298C73.9437 56.8298 69.2865 59.2063 64.4509 56.4261C64.0291 56.1839 63.6239 55.9136 63.2383 55.6171C63.2383 55.6171 65.2768 51.9757 63.6537 46.6861C62.9591 44.4239 62.9439 40.1047 66.3835 39.4892H66.4003C69.8213 38.882 69.6279 39.7263 69.6279 39.7263L71.1753 41.23C74.1506 43.6502 74.4769 47.3454 73.9437 56.8298Z" fill="#76DE11"/>
<path opacity="0.24" d="M66.4003 39.4854C66.2569 39.7965 66.0349 40.0649 65.7561 40.2641C65.7561 40.2641 63.7109 41.1706 64.1196 44.1695C64.5283 47.1684 65.2768 52.9357 65.2768 52.9357L64.4509 56.4256C64.0291 56.1834 63.6239 55.9132 63.2383 55.6166C63.2383 55.6166 65.2768 51.9753 63.6537 46.6856C62.9591 44.4235 62.9439 40.1043 66.3835 39.4887L66.4003 39.4854Z" fill="white"/>
<path d="M69.4765 39.2939C69.2906 39.5158 69.0617 39.6976 68.8036 39.8285C68.5455 39.9594 68.2636 40.0366 67.9748 40.0555C67.686 40.0744 67.3964 40.0345 67.1235 39.9383C66.8505 39.8421 66.5999 39.6916 66.3868 39.4958C66.3868 39.4958 63.8639 42.0187 66.4137 42.3231C67.7592 42.4913 69.4159 40.8632 69.8953 39.9432L69.4765 39.2939Z" fill="#56473D"/>
<path d="M70.2336 36.9307C70.2235 36.9643 69.7492 38.4158 69.3926 39.4535C69.1281 40.2624 68.5667 40.941 67.8217 41.3524C67.3845 41.6162 66.898 41.7879 66.3921 41.857C66.2712 41.868 66.1496 41.8455 66.0406 41.7918C65.9317 41.7381 65.8398 41.6554 65.7749 41.5527C65.71 41.4501 65.6747 41.3315 65.6729 41.2101C65.6711 41.0887 65.7029 40.9692 65.7647 40.8647C65.8825 40.6578 66.0103 40.419 66.128 40.165C66.3736 39.6369 66.5788 39.0499 66.5452 38.5857C66.5452 38.5689 66.5452 38.5504 66.5452 38.5352C66.5149 38.293 66.673 38.0794 66.9387 37.8927C67.3138 37.632 67.9041 37.4268 68.481 37.2721C69.0584 37.1258 69.6435 37.0118 70.2336 36.9307V36.9307Z" fill="url(#paint15_linear_332_110)"/>
<path d="M66.4951 40.145C66.3794 40.1683 66.2613 40.1768 66.1436 40.1702C66.3891 39.6421 66.5943 39.0551 66.5607 38.5909L66.9509 37.898L67.2418 37.3833L68.4932 37.2773L69.758 37.1714C68.9238 39.1443 67.5227 39.9617 66.4951 40.145Z" fill="url(#paint16_linear_332_110)"/>
<path d="M68.8439 30.2938C68.3862 30.1979 67.9136 30.1976 67.4559 30.2931C66.9981 30.3886 66.5651 30.5777 66.1839 30.8486C65.8028 31.1195 65.4818 31.4663 65.2411 31.8672C65.0004 32.2682 64.8453 32.7145 64.7854 33.1783C64.5267 34.5376 64.5159 35.9325 64.7534 37.2956C65.3303 39.4064 68.4301 38.6412 69.0591 38.0004C69.6882 37.3595 72.2161 34.4061 71.8024 33.2573C71.5383 32.4769 70.6132 30.6941 68.8439 30.2938Z" fill="url(#paint17_linear_332_110)"/>
<path d="M66.3465 28.2353L66.8241 28.6659C66.4959 28.5691 66.1493 28.5517 65.813 28.6152C65.4767 28.6786 65.1603 28.8211 64.8899 29.0309C64.2448 29.4001 63.7711 30.0086 63.5713 30.7245L64.6326 30.5345C64.6326 30.5345 64.2457 31.6765 66.005 32.2467C67.7643 32.8169 69.6313 33.4005 69.6313 33.4005L69.2545 32.3913C69.2545 32.3913 70.2418 33.1347 70.3242 33.5989C70.3211 34.303 70.2649 35.0058 70.156 35.7013C70.156 35.7013 70.9095 34.6754 71.0239 34.9748C71.1383 35.2741 70.4823 36.211 70.1829 36.3775C69.8835 36.544 69.7423 37.2353 69.7053 37.2857C69.6683 37.3362 71.0508 36.7071 71.187 36.3977C71.3233 36.0882 73.3264 33.1431 72.7798 32.2618L73.2322 32.3476C73.0169 32.1001 72.7492 31.9036 72.4485 31.7724C72.4485 31.7724 70.5698 27.1522 66.3465 28.2353Z" fill="#56473D"/>
<path d="M65.6802 53.0704C65.4263 52.8164 65.1757 52.5137 64.8208 52.4531C64.6963 52.7491 64.9503 53.0536 65.0579 53.3546C65.0742 53.3882 65.0826 53.425 65.0826 53.4623C65.0826 53.4996 65.0742 53.5364 65.0579 53.5699C65.0075 53.6507 64.8897 53.6557 64.7972 53.649C64.3485 53.6168 63.9082 53.5111 63.4937 53.3361C63.1103 53.1679 62.7419 52.951 62.3265 52.9089C62.2821 52.9 62.236 52.9059 62.1953 52.9257C62.0944 52.9897 62.1533 53.1444 62.2256 53.2386C62.3799 53.442 62.5553 53.6286 62.7487 53.7953C62.4555 53.6658 62.1429 53.5857 61.8236 53.5581C61.7345 53.5581 61.6134 53.5766 61.615 53.6658C61.6208 53.7024 61.6386 53.7361 61.6655 53.7617C61.9019 54.0323 62.1872 54.256 62.5065 54.421C62.2744 54.372 62.0371 54.3522 61.8 54.3621C61.6975 54.3621 61.5612 54.4159 61.5764 54.5168C61.5839 54.5497 61.6001 54.5799 61.6234 54.6043C61.9077 54.9481 62.2923 55.1945 62.7234 55.309L62.0507 55.3242C62.0083 55.3221 61.966 55.3308 61.9279 55.3494C61.8068 55.4268 61.9127 55.6168 62.0305 55.6992C62.5485 56.0608 63.2078 56.1248 63.8419 56.1702C65.0546 56.2576 66.3311 56.3047 67.4244 55.7699C67.5034 55.7295 67.5926 55.6757 67.6077 55.5882C67.6111 55.5424 67.6042 55.4965 67.5875 55.4537C67.4547 55.0113 67.3874 54.209 66.9854 53.9399C66.7903 53.8104 66.5498 53.7364 66.3497 53.6036C66.1495 53.4707 65.909 53.1848 65.6802 53.0704Z" fill="url(#paint18_linear_332_110)"/>
<path d="M74.9312 52.1319C74.5511 55.8675 67.7729 56.325 67.7729 56.325L67.0749 53.9249L66.9521 53.5027C66.9521 53.5027 70.5784 53.0452 71.2713 51.9099C71.9643 50.7746 69.1117 46.9684 70.8357 44.8459C72.5597 42.7233 72.9516 43.3759 72.9516 43.3759C72.9516 43.3759 75.3079 48.3964 74.9312 52.1319Z" fill="#76DE11"/>
<path d="M56.7462 46.5479C56.7462 46.5479 56.7462 46.6874 56.7176 46.8977C56.6604 47.4208 56.4972 48.3778 56.0633 48.7259C55.4528 49.2154 55.3687 48.5022 55.3821 48.2214C55.3956 48.0671 55.4209 47.9142 55.4578 47.7639C55.5991 47.155 56.3476 46.7379 56.6352 46.6L56.7462 46.5479Z" fill="url(#paint19_linear_332_110)"/>
<path d="M56.7176 46.8977C56.6604 47.4208 56.4973 48.3778 56.0634 48.7259C55.875 48.5897 55.6328 48.4081 55.3822 48.2214C55.0458 47.9691 54.6875 47.7033 54.4336 47.5183C54.2076 47.3667 54.0019 47.187 53.8214 46.9835C53.6639 46.7763 53.5328 46.5503 53.4312 46.3107L52.9098 45.1771C52.7416 44.8054 52.5734 44.3143 52.8728 44.0266C52.9484 43.9526 53.638 43.8181 53.6834 43.7205C53.8096 43.4413 53.0107 42.851 53.0611 42.5432C53.0861 42.4594 53.1397 42.3869 53.2125 42.3384C53.2853 42.2899 53.3727 42.2683 53.4597 42.2774C53.6279 42.2859 54.1056 42.7248 54.2553 42.814C54.5513 42.9822 54.3024 43.221 54.5917 43.3959C54.9671 43.5887 55.308 43.8421 55.6008 44.1461C55.9271 44.5279 56.0919 45.0173 56.2484 45.4916C56.3627 45.8398 56.5158 46.2165 56.6335 46.5916C56.6655 46.6992 56.6941 46.7985 56.7176 46.8977Z" fill="url(#paint20_linear_332_110)"/>
<path d="M54.2433 44.2167L53.1215 38.8968L52.7061 36.9307L59.2252 38.6782L61.1173 51.4053L55.0591 49.5585L54.2433 44.2167Z" fill="#76DE11"/>
<path d="M55.6006 44.1529L53.0205 38.4209L55.059 49.5586L61.1173 51.4053L60.4681 47.0407L55.6006 44.1529Z" fill="url(#paint21_linear_332_110)"/>
<path d="M54.6148 46.5112C54.82 46.4086 55.2405 46.2219 55.3465 46.0184C55.3717 45.9696 55.4087 45.9057 55.3767 45.862C55.2304 45.6601 54.6283 45.9175 54.4567 45.862C54.5745 45.6686 55.624 45.0816 55.1295 44.9487C55.0235 44.9201 54.3659 45.2531 54.2599 45.2228C54.3424 45.1556 55.0185 44.6745 55.1345 44.5501C55.1681 44.513 55.188 44.4656 55.191 44.4158C55.1941 44.3659 55.1801 44.3165 55.1513 44.2756C55.1226 44.2347 55.0808 44.2048 55.0328 44.1908C54.9848 44.1768 54.9335 44.1796 54.8873 44.1986C54.5292 44.363 54.1619 44.5068 53.7873 44.6291C53.8596 44.5097 54.8368 43.9564 54.8755 43.8151C54.8956 43.7642 54.8991 43.7083 54.8856 43.6553C54.8718 43.6255 54.852 43.5989 54.8274 43.5772C54.8028 43.5555 54.7739 43.5391 54.7427 43.5292C54.4702 43.4232 54.1641 43.5292 53.8916 43.6385L53.2457 43.8941C53.0389 43.9749 52.8101 44.0791 52.7412 44.2877C52.7109 44.3933 52.7057 44.5044 52.726 44.6123C52.8064 45.2903 53.0493 45.9389 53.4341 46.5028C53.6259 46.782 54.2314 47.4564 54.5795 47.522C54.889 47.5809 54.3272 46.6626 54.6148 46.5112Z" fill="url(#paint22_linear_332_110)"/>
<path opacity="0.24" d="M61.3595 63.7524C61.3595 63.7524 63.583 58.6579 66.153 57.2081L65.2767 56.8532C65.2767 56.8532 60.7641 61.6517 60.231 64.1208C59.6978 66.5898 60.7675 77.1842 60.7675 77.1842H61.5075C61.5075 77.1842 60.2848 64.7918 61.3595 63.7524ZM71.4679 52.7174C70.0366 53.306 67.5995 53.819 67.0747 53.9267L66.9738 53.9468L66.9519 53.5045C66.9519 53.5045 70.5781 53.047 71.2711 51.9117C71.964 50.7764 69.1115 46.9702 70.8355 44.8477C70.8355 44.8477 70.6168 46.7247 71.1836 48.1123C71.7504 49.4998 73.0758 52.0547 71.4679 52.7174Z" fill="white"/>
</g>
<defs>
<linearGradient id="paint0_linear_332_110" x1="70.6882" y1="136.99" x2="43.4444" y2="-13.9862" gradientUnits="userSpaceOnUse">
<stop offset="0.02" stop-color="#A3DD69"/>
<stop offset="1" stop-color="white" stop-opacity="0"/>
</linearGradient>
<linearGradient id="paint1_linear_332_110" x1="98.9325" y1="61.983" x2="109.379" y2="77.9024" gradientUnits="userSpaceOnUse">
<stop stop-color="white" stop-opacity="0"/>
<stop offset="0.99" stop-color="white"/>
</linearGradient>
<linearGradient id="paint2_linear_332_110" x1="26044.3" y1="7461.76" x2="26055.6" y2="3985.46" gradientUnits="userSpaceOnUse">
<stop stop-color="white" stop-opacity="0"/>
<stop offset="0.99" stop-color="white"/>
</linearGradient>
<linearGradient id="paint3_linear_332_110" x1="69.3367" y1="53.1376" x2="55.3365" y2="86.8146" gradientUnits="userSpaceOnUse">
<stop offset="0.17" stop-color="#2E1200"/>
<stop offset="1" stop-color="#EB9B69" stop-opacity="0"/>
</linearGradient>
<linearGradient id="paint4_linear_332_110" x1="16787.9" y1="1633.67" x2="16788.7" y2="2045.05" gradientUnits="userSpaceOnUse">
<stop offset="0.17" stop-color="#2E1200"/>
<stop offset="1" stop-color="#EB9B69" stop-opacity="0"/>
</linearGradient>
<linearGradient id="paint5_linear_332_110" x1="16993.2" y1="1146.79" x2="16992.5" y2="1331.01" gradientUnits="userSpaceOnUse">
<stop stop-color="white" stop-opacity="0"/>
<stop offset="0.99" stop-color="white"/>
</linearGradient>
<linearGradient id="paint6_linear_332_110" x1="111.466" y1="97.9707" x2="69.3458" y2="94.4976" gradientUnits="userSpaceOnUse">
<stop stop-color="#76DE11"/>
<stop offset="1" stop-color="white"/>
</linearGradient>
<linearGradient id="paint7_linear_332_110" x1="12871.3" y1="5636.94" x2="9703.82" y2="5274.66" gradientUnits="userSpaceOnUse">
<stop stop-color="#FDA168"/>
<stop offset="1" stop-color="white"/>
</linearGradient>
<linearGradient id="paint8_linear_332_110" x1="22843.7" y1="5565.85" x2="3058.64" y2="5565.85" gradientUnits="userSpaceOnUse">
<stop stop-color="white" stop-opacity="0"/>
<stop offset="0.99" stop-color="white"/>
</linearGradient>
<linearGradient id="paint9_linear_332_110" x1="92.1455" y1="82.9008" x2="92.5845" y2="82.9008" gradientUnits="userSpaceOnUse">
<stop stop-color="#FDA168"/>
<stop offset="1" stop-color="#EB9B69"/>
</linearGradient>
<linearGradient id="paint10_linear_332_110" x1="223.037" y1="163.568" x2="223.367" y2="163.568" gradientUnits="userSpaceOnUse">
<stop stop-color="#FDA168"/>
<stop offset="1" stop-color="#EB9B69"/>
</linearGradient>
<linearGradient id="paint11_linear_332_110" x1="136.648" y1="137.753" x2="136.683" y2="137.753" gradientUnits="userSpaceOnUse">
<stop stop-color="#FDA168"/>
<stop offset="1" stop-color="#EB9B69"/>
</linearGradient>
<linearGradient id="paint12_linear_332_110" x1="2166.28" y1="13304.6" x2="3541.91" y2="8685.81" gradientUnits="userSpaceOnUse">
<stop stop-color="white" stop-opacity="0"/>
<stop offset="0.99" stop-color="white"/>
</linearGradient>
<linearGradient id="paint13_linear_332_110" x1="50.7737" y1="74.4476" x2="46.8918" y2="74.1264" gradientUnits="userSpaceOnUse">
<stop stop-color="#ECD3C4"/>
<stop offset="0.42" stop-color="#EFDCD1"/>
<stop offset="1" stop-color="#F2D9C9"/>
</linearGradient>
<linearGradient id="paint14_linear_332_110" x1="1464.11" y1="-1585.46" x2="1418.89" y2="-1568.6" gradientUnits="userSpaceOnUse">
<stop stop-color="#ECD3C4"/>
<stop offset="0.42" stop-color="#EFDCD1"/>
<stop offset="1" stop-color="#F2D9C9"/>
</linearGradient>
<linearGradient id="paint15_linear_332_110" x1="220.305" y1="3955.6" x2="306.826" y2="3978.78" gradientUnits="userSpaceOnUse">
<stop stop-color="#ECD3C4"/>
<stop offset="0.42" stop-color="#EFDCD1"/>
<stop offset="1" stop-color="#F2D9C9"/>
</linearGradient>
<linearGradient id="paint16_linear_332_110" x1="438.945" y1="2408.95" x2="299.378" y2="2566.59" gradientUnits="userSpaceOnUse">
<stop stop-color="#ECD3C4"/>
<stop offset="0.42" stop-color="#EFDCD1"/>
<stop offset="1" stop-color="#F2D9C9"/>
</linearGradient>
<linearGradient id="paint17_linear_332_110" x1="94.1782" y1="6534" x2="386.028" y2="6612.2" gradientUnits="userSpaceOnUse">
<stop stop-color="#ECD3C4"/>
<stop offset="0.42" stop-color="#EFDCD1"/>
<stop offset="1" stop-color="#F2D9C9"/>
</linearGradient>
<linearGradient id="paint18_linear_332_110" x1="2278.71" y1="873.246" x2="2495.01" y2="873.246" gradientUnits="userSpaceOnUse">
<stop stop-color="#ECD3C4"/>
<stop offset="0.42" stop-color="#EFDCD1"/>
<stop offset="1" stop-color="#F2D9C9"/>
</linearGradient>
<linearGradient id="paint19_linear_332_110" x1="55.3821" y1="47.7201" x2="56.7462" y2="47.7201" gradientUnits="userSpaceOnUse">
<stop stop-color="#663618"/>
<stop offset="1" stop-color="#C15A1A"/>
</linearGradient>
<linearGradient id="paint20_linear_332_110" x1="1314.89" y1="1107.39" x2="1410.52" y2="1107.39" gradientUnits="userSpaceOnUse">
<stop stop-color="#ECD3C4"/>
<stop offset="0.42" stop-color="#EFDCD1"/>
<stop offset="1" stop-color="#F2D9C9"/>
</linearGradient>
<linearGradient id="paint21_linear_332_110" x1="2701.39" y1="1884.02" x2="3518.35" y2="3115.9" gradientUnits="userSpaceOnUse">
<stop stop-color="white" stop-opacity="0"/>
<stop offset="0.99" stop-color="white"/>
</linearGradient>
<linearGradient id="paint22_linear_332_110" x1="894.865" y1="710.428" x2="937.562" y2="710.428" gradientUnits="userSpaceOnUse">
<stop stop-color="#ECD3C4"/>
<stop offset="0.42" stop-color="#EFDCD1"/>
<stop offset="1" stop-color="#F2D9C9"/>
</linearGradient>
<clipPath id="clip0_332_110">
<rect width="136" height="136" fill="white"/>
</clipPath>
</defs>
</svg>
