<svg width="113" height="102" viewBox="0 0 113 102" fill="none" xmlns="http://www.w3.org/2000/svg">
<path d="M100.87 29.6388C100.87 29.6388 82.7006 6.0252 60.014 3.51992C39.9879 1.30847 21.3992 9.95222 18.8119 28.6311C17.8901 35.2866 16.2484 42.6493 13.3331 48.7219C10.0643 55.5307 4.48385 61.2007 8.75855 74.2913C13.0333 87.382 31.0784 99.2025 44.1982 99.1727C57.318 99.1428 69.6423 88.3825 79.8089 78.5931C89.9754 68.8037 122.357 59.6022 100.87 29.6388Z" fill="#92E3A9"/>
<path opacity="0.7" d="M100.87 29.6388C100.87 29.6388 82.7006 6.0252 60.014 3.51992C39.9879 1.30847 21.3992 9.95222 18.8119 28.6311C17.8901 35.2866 16.2484 42.6493 13.3331 48.7219C10.0643 55.5307 4.48385 61.2007 8.75855 74.2913C13.0333 87.382 31.0784 99.2025 44.1982 99.1727C57.318 99.1428 69.6423 88.3825 79.8089 78.5931C89.9754 68.8037 122.357 59.6022 100.87 29.6388Z" fill="#EAFADA"/>
<g opacity="0.3">
<path opacity="0.3" d="M27.9973 36.2373H11.0312L11.203 33.2808H28.1691L27.9973 36.2373Z" stroke="black" stroke-linecap="round" stroke-linejoin="round"/>
<path opacity="0.3" d="M27.9973 40.3767H11.0312L11.203 37.4199H28.1691L27.9973 40.3767Z" stroke="black" stroke-linecap="round" stroke-linejoin="round"/>
<path opacity="0.3" d="M27.9973 44.5157H11.0312L11.203 41.5591H28.1691L27.9973 44.5157Z" stroke="black" stroke-linecap="round" stroke-linejoin="round"/>
<path opacity="0.3" d="M27.9973 48.655H11.0312L11.203 45.6982H28.1691L27.9973 48.655Z" stroke="black" stroke-linecap="round" stroke-linejoin="round"/>
<path opacity="0.3" d="M27.9973 52.7947H11.0312L11.203 49.8379H28.1691L27.9973 52.7947Z" stroke="black" stroke-linecap="round" stroke-linejoin="round"/>
<path opacity="0.3" d="M27.9973 56.9336H11.0312L11.203 53.9771H28.1691L27.9973 56.9336Z" stroke="black" stroke-linecap="round" stroke-linejoin="round"/>
<path opacity="0.3" d="M27.9973 61.0728H11.0312L11.203 58.1162H28.1691L27.9973 61.0728Z" stroke="black" stroke-linecap="round" stroke-linejoin="round"/>
<path opacity="0.3" d="M27.9973 65.2124H11.0312L11.203 62.2559H28.1691L27.9973 65.2124Z" stroke="black" stroke-linecap="round" stroke-linejoin="round"/>
<path opacity="0.3" d="M27.9973 69.3518H11.0312L11.203 66.395H28.1691L27.9973 69.3518Z" stroke="black" stroke-linecap="round" stroke-linejoin="round"/>
<path opacity="0.3" d="M27.9973 73.4907H11.0312L11.203 70.5342H28.1691L27.9973 73.4907Z" stroke="black" stroke-linecap="round" stroke-linejoin="round"/>
<path opacity="0.3" d="M27.9973 77.6299H11.0312L11.203 74.6733H28.1691L27.9973 77.6299Z" stroke="black" stroke-linecap="round" stroke-linejoin="round"/>
<path opacity="0.3" d="M45.9368 36.2373H28.9707L29.1422 33.2808H46.1083L45.9368 36.2373Z" stroke="black" stroke-linecap="round" stroke-linejoin="round"/>
<path opacity="0.3" d="M45.9368 40.3767H28.9707L29.1422 37.4199H46.1083L45.9368 40.3767Z" stroke="black" stroke-linecap="round" stroke-linejoin="round"/>
<path opacity="0.3" d="M45.9368 44.5157H28.9707L29.1422 41.5591H46.1083L45.9368 44.5157Z" stroke="black" stroke-linecap="round" stroke-linejoin="round"/>
<path opacity="0.3" d="M45.9368 48.655H28.9707L29.1422 45.6982H46.1083L45.9368 48.655Z" stroke="black" stroke-linecap="round" stroke-linejoin="round"/>
<path opacity="0.3" d="M45.9368 52.7947H28.9707L29.1422 49.8379H46.1083L45.9368 52.7947Z" stroke="black" stroke-linecap="round" stroke-linejoin="round"/>
<path opacity="0.3" d="M45.9368 56.9336H28.9707L29.1422 53.9771H46.1083L45.9368 56.9336Z" stroke="black" stroke-linecap="round" stroke-linejoin="round"/>
<path opacity="0.3" d="M45.9368 61.0728H28.9707L29.1422 58.1162H46.1083L45.9368 61.0728Z" stroke="black" stroke-linecap="round" stroke-linejoin="round"/>
<path opacity="0.3" d="M45.9368 65.2124H28.9707L29.1422 62.2559H46.1083L45.9368 65.2124Z" stroke="black" stroke-linecap="round" stroke-linejoin="round"/>
<path opacity="0.3" d="M45.9368 69.3518H28.9707L29.1422 66.395H46.1083L45.9368 69.3518Z" stroke="black" stroke-linecap="round" stroke-linejoin="round"/>
<path opacity="0.3" d="M45.9368 73.4907H28.9707L29.1422 70.5342H46.1083L45.9368 73.4907Z" stroke="black" stroke-linecap="round" stroke-linejoin="round"/>
<path opacity="0.3" d="M45.9368 77.6299H28.9707L29.1422 74.6733H46.1083L45.9368 77.6299Z" stroke="black" stroke-linecap="round" stroke-linejoin="round"/>
</g>
<g opacity="0.3">
<path opacity="0.3" d="M98.1025 39.2959H76.2041V54.252H98.1025V39.2959Z" stroke="black" stroke-linecap="round" stroke-linejoin="round"/>
<path opacity="0.3" d="M96.9146 40.5317H77.3926V53.0161H96.9146V40.5317Z" stroke="black" stroke-linecap="round" stroke-linejoin="round"/>
<path opacity="0.3" d="M83.7578 42.4995H90.5479" stroke="black" stroke-linecap="round" stroke-linejoin="round"/>
<path opacity="0.3" d="M79.3604 44.3105H94.9466" stroke="black" stroke-linecap="round" stroke-linejoin="round"/>
<path opacity="0.3" d="M82.832 47.9321H91.4739" stroke="black" stroke-linecap="round" stroke-linejoin="round"/>
<path opacity="0.3" d="M79.5146 51.5542H82.9097" stroke="black" stroke-linecap="round" stroke-linejoin="round"/>
<path opacity="0.3" d="M91.3975 51.5542H94.7925" stroke="black" stroke-linecap="round" stroke-linejoin="round"/>
</g>
<g opacity="0.3">
<path opacity="0.3" d="M104.052 57.4043H87.9326V68.4131H104.052V57.4043Z" stroke="black" stroke-linecap="round" stroke-linejoin="round"/>
<path opacity="0.3" d="M103.177 58.314H88.8076V67.5034H103.177V58.314Z" stroke="black" stroke-linecap="round" stroke-linejoin="round"/>
<path opacity="0.3" d="M93.4932 59.7627H98.4911" stroke="black" stroke-linecap="round" stroke-linejoin="round"/>
<path opacity="0.3" d="M90.2559 61.0957H101.729" stroke="black" stroke-linecap="round" stroke-linejoin="round"/>
<path opacity="0.3" d="M92.8115 63.7612H99.1726" stroke="black" stroke-linecap="round" stroke-linejoin="round"/>
<path opacity="0.3" d="M90.3691 66.4272H92.8681" stroke="black" stroke-linecap="round" stroke-linejoin="round"/>
<path opacity="0.3" d="M99.1162 66.4272H101.615" stroke="black" stroke-linecap="round" stroke-linejoin="round"/>
</g>
<path d="M85.3789 65.1493L61.9798 64.4148C61.0159 64.3846 60.0517 64.3856 59.0873 64.418L37.291 65.1493L38.2566 37.5245C38.2932 36.477 38.2921 35.4292 38.2535 34.3812L37.291 8.31543H85.3789V65.1493Z" fill="#263238" stroke="#263238" stroke-linecap="round" stroke-linejoin="round"/>
<path d="M86.1504 7.34033H38.0625V64.1742H86.1504V7.34033Z" fill="white" stroke="#263238" stroke-linecap="round" stroke-linejoin="round"/>
<path d="M82.9543 22.8286H41.2588V60.9272H82.9543V22.8286Z" fill="white" stroke="#263238" stroke-linecap="round" stroke-linejoin="round"/>
<path d="M41.6504 17.1352V10.1693H43.9178C44.3104 10.154 44.7003 10.2342 45.0468 10.4015C45.3362 10.5568 45.5607 10.7942 45.6851 11.0766C45.8308 11.4178 45.9005 11.7817 45.89 12.1473C45.9082 12.5265 45.8197 12.9037 45.6327 13.2438C45.4733 13.5118 45.2205 13.7248 44.9134 13.8501C44.5689 13.9827 44.1969 14.0472 43.8225 14.0392H43.0604V17.1352H41.6504ZM43.0604 13.1449H43.5939C43.7982 13.1537 44.002 13.1199 44.1894 13.046C44.2598 13.0136 44.3223 12.9688 44.3731 12.9141C44.4238 12.8594 44.4618 12.796 44.4847 12.7277C44.5453 12.5363 44.5726 12.3376 44.5657 12.1387C44.5705 11.9323 44.5498 11.726 44.5038 11.5237C44.4883 11.4522 44.4566 11.3844 44.4107 11.3245C44.3648 11.2645 44.3057 11.2138 44.237 11.1755C44.0369 11.0887 43.8154 11.0502 43.5939 11.0637H43.0604V13.1449Z" fill="#A4DD6A"/>
<path d="M43.3652 20.4966L44.9182 16.7987L43.4129 13.5308H44.7276L45.728 15.6893L46.6045 13.5308H47.824L46.3377 17.0394L47.9383 20.4966H46.6235L45.5279 18.1574L44.5752 20.4966H43.3652Z" fill="#A4DD6A"/>
<path d="M64.9922 12.3179H82.8167" stroke="#263238" stroke-linecap="round" stroke-linejoin="round"/>
<path d="M64.9922 15.79H82.8167" stroke="#263238" stroke-linecap="round" stroke-linejoin="round"/>
<path d="M68.8389 14.2856H82.8164" stroke="#263238" stroke-linecap="round" stroke-linejoin="round"/>
<path d="M68.8389 17.4106H82.8164" stroke="#263238" stroke-linecap="round" stroke-linejoin="round"/>
<path d="M42.6787 27.0181H56.6562" stroke="#263238" stroke-linecap="round" stroke-linejoin="round"/>
<path d="M42.6787 30.3125H56.6562" stroke="#263238" stroke-linecap="round" stroke-linejoin="round"/>
<path d="M42.6787 28.7212H63.8374" stroke="#263238" stroke-linecap="round" stroke-linejoin="round"/>
<path d="M42.6787 34.3267H56.6562" stroke="#263238" stroke-linecap="round" stroke-linejoin="round"/>
<path d="M42.6787 37.6211H56.6562" stroke="#263238" stroke-linecap="round" stroke-linejoin="round"/>
<path d="M42.6787 36.0298H63.8374" stroke="#263238" stroke-linecap="round" stroke-linejoin="round"/>
<path d="M42.3809 58.874H55.6312" stroke="#263238" stroke-linecap="round" stroke-linejoin="round"/>
<path d="M67.5068 58.874H80.7572" stroke="#263238" stroke-linecap="round" stroke-linejoin="round"/>
<path d="M44.2486 45.742C43.454 46.1966 42.8265 46.8536 42.4455 47.63C42.0646 48.4064 41.9472 49.2674 42.1084 50.104C42.2695 50.9406 42.7018 51.7153 43.3507 52.3302C43.9996 52.945 44.8359 53.3723 45.7539 53.5581C46.6718 53.7439 47.6302 53.6798 48.5078 53.3739C49.3854 53.0681 50.1428 52.5342 50.6843 51.8398C51.2257 51.1454 51.5269 50.3216 51.5497 49.4727C51.5725 48.6238 51.3159 47.7878 50.8123 47.0705C50.478 46.5943 50.043 46.1821 49.5322 45.8576C49.0214 45.5331 48.4448 45.3026 47.8353 45.1792C47.2258 45.0559 46.5953 45.0421 45.9799 45.1386C45.3645 45.2352 44.7762 45.4402 44.2486 45.742ZM48.8021 52.2284C48.1755 52.5868 47.4453 52.7694 46.7037 52.7532C45.9621 52.737 45.2425 52.5226 44.6359 52.1372C44.0293 51.7518 43.5629 51.2127 43.2957 50.5881C43.0285 49.9634 42.9725 49.2813 43.1348 48.6279C43.2971 47.9746 43.6704 47.3793 44.2075 46.9175C44.7446 46.4556 45.4213 46.1479 46.1522 46.0332C46.883 45.9185 47.6351 46.002 48.3134 46.2732C48.9916 46.5443 49.5656 46.9909 49.9626 47.5565C50.4951 48.315 50.6719 49.2333 50.4543 50.1094C50.2367 50.9855 49.6424 51.7477 48.8021 52.2284Z" fill="#A4DD6A"/>
<path d="M48.5565 47.9679L44.5156 50.2793L44.9286 50.8676L48.9695 48.5562L48.5565 47.9679Z" fill="#76DE11"/>
<path d="M44.501 57.5171C44.501 57.5171 44.5665 58.8768 46.5313 56.453C48.4961 54.0291 48.2342 54.2065 47.7102 55.5662C47.3126 56.5093 46.7845 57.4031 46.1383 58.2265C46.1383 58.2265 48.4961 54.8568 48.4961 55.8027C48.4961 56.7486 46.2693 60.7686 46.7278 60.4139C47.1862 60.0592 48.6271 58.2856 48.6271 58.2856C48.6271 58.2856 48.4306 59.468 48.9546 58.936C49.4785 58.4039 50.068 57.3398 50.0025 57.9309C49.937 58.5221 49.0856 59.2316 49.937 58.5221C50.7884 57.8127 51.4434 56.9259 51.2469 57.5762C51.0504 58.2265 50.5265 58.463 51.0504 58.2265C51.5744 57.9901 54.5216 53.5562 53.6047 54.0882C52.6878 54.6203 50.9849 59.2316 51.7708 58.8768C52.5568 58.5221 53.4737 56.7486 53.4082 57.6353C53.3427 58.5221 53.6047 58.5221 53.8667 58.2265" stroke="#263238" stroke-linecap="round" stroke-linejoin="round"/>
<path d="M109.178 94.9116H6.00098" stroke="#263238" stroke-linecap="round" stroke-linejoin="round"/>
<path d="M109.178 96.8618H6.00098" stroke="#263238" stroke-linecap="round" stroke-linejoin="round"/>
<path d="M103.526 73.3999H81.6485C81.3034 73.3999 80.9698 73.512 80.7087 73.7157C80.4477 73.9194 80.2765 74.2012 80.2266 74.5094L76.9561 94.7117H102.971L104.958 74.8134C104.976 74.634 104.952 74.4532 104.888 74.2825C104.824 74.1118 104.722 73.9549 104.587 73.8219C104.453 73.689 104.289 73.5828 104.106 73.5101C103.923 73.4374 103.726 73.3999 103.526 73.3999Z" fill="#263238" stroke="#263238" stroke-linecap="round" stroke-linejoin="round"/>
<path d="M73.9084 70.1033C73.9084 70.1033 67.9904 72.7539 65.9575 73.4879C63.9245 74.2219 63.4276 74.5481 63.2469 74.9967C63.0662 75.4452 55.1605 86.6592 54.257 87.6786C53.3534 88.6981 51.4109 90.9001 51.6819 92.4089C51.953 93.9177 54.1214 95.2226 56.1995 95.1818C58.2776 95.141 59.5877 94.774 59.8136 94.2439C60.0394 93.7138 65.7768 84.4572 65.7768 84.4572L67.5838 94.774H90.6685C90.6685 94.774 92.4756 80.6648 92.4756 78.5851C92.4756 76.5055 92.9273 74.0588 91.9786 73.5287C91.0299 72.9985 87.0996 71.7752 84.2084 70.9189C81.3172 70.0625 80.4137 69.8994 79.736 69.8994C79.0584 69.8994 73.9084 70.1033 73.9084 70.1033Z" fill="white" stroke="#263238" stroke-linecap="round" stroke-linejoin="round"/>
<path d="M73.2762 70.1849C73.2762 70.1849 72.5082 71.4898 72.4631 72.55C72.4179 73.6103 72.2372 75.5676 71.5596 76.7502C70.8819 77.9327 70.385 78.5852 70.7464 78.4629C71.1078 78.3405 73.1859 76.2608 73.4118 75.8123C73.6377 75.3637 73.9991 76.2201 73.9991 76.2201C73.9991 76.2201 73.3214 77.9735 73.2311 78.2182C73.1407 78.4629 76.0771 81.8474 76.0771 81.8474C76.0771 81.8474 78.607 80.0532 79.1943 79.6454C79.7815 79.2376 79.6008 78.9114 79.646 78.3813C79.6912 77.8512 79.8719 77.0764 80.1881 76.6278C80.5043 76.1793 81.4079 77.9327 82.0403 78.7483C82.6728 79.5639 83.3052 79.8493 83.2149 79.2376C83.1245 78.626 82.8083 77.4434 82.5824 75.3637C82.3566 73.284 82.4017 70.7966 81.8144 70.0218C81.2272 69.247 78.1449 69.0927 76.1223 68.9616C74.0998 68.8304 73.2762 70.1849 73.2762 70.1849Z" fill="white" stroke="#263238" stroke-linecap="round" stroke-linejoin="round"/>
<path d="M64.1502 77.1221L65.7772 84.4573L63.6768 79.5799" stroke="#263238" stroke-linecap="round" stroke-linejoin="round"/>
<path d="M73.502 72.1425C73.502 72.1425 74.1344 75.3232 74.7217 77.7699C75.0442 79.1615 75.4976 80.5257 76.077 81.8477C76.077 81.8477 79.0585 77.3213 79.9169 74.9562C80.4048 73.6518 80.7823 72.3159 81.0463 70.96H73.502V72.1425Z" stroke="#263238" stroke-linecap="round" stroke-linejoin="round"/>
<path d="M76.7992 73.2432L75.1729 75.0782L76.3022 77.0355L75.1896 79.467C75.4346 80.2751 75.7307 81.0698 76.0764 81.8473C76.0764 81.8473 77.0063 80.4354 77.977 78.7769L77.1606 77.0763L78.1544 75.0374L76.7992 73.2432Z" fill="#A4DD6A" stroke="#263238" stroke-linecap="round" stroke-linejoin="round"/>
<path d="M73.502 70.96V72.1425C73.502 72.1425 73.9384 74.337 74.4227 76.4825L76.7094 74.3038L79.1196 76.7145C79.4217 76.1424 79.6879 75.5554 79.9169 74.9562C80.4048 73.6518 80.7823 72.3159 81.0463 70.96H73.502Z" fill="white" stroke="#263238" stroke-linecap="round" stroke-linejoin="round"/>
<path d="M53.8057 88.8863C53.8057 88.8863 58.0247 87.4959 60.3017 90.8811" stroke="#263238" stroke-linecap="round" stroke-linejoin="round"/>
<path d="M60.3744 89.8364C60.3744 89.8364 58.0178 90.3177 56.7532 92.1306C55.4886 93.9436 58.055 94.145 58.7617 94.145C59.4684 94.145 60.1386 93.718 60.1754 93.4951C60.2122 93.2721 61.1421 91.1234 61.1049 90.6198C61.1015 90.4333 61.0271 90.2536 60.894 90.1109C60.7609 89.9682 60.5774 89.8712 60.3744 89.8364Z" fill="white" stroke="#263238" stroke-linecap="round" stroke-linejoin="round"/>
<path d="M59.2902 90.5864C59.2902 90.5864 57.9872 91.6117 58.0756 92.0096C58.164 92.4075 60.0989 93.9898 60.4718 93.7631C60.6074 93.7003 60.7098 93.5916 60.7568 93.4608C60.8038 93.33 60.7914 93.1877 60.7224 93.0651C60.6152 92.9158 59.2902 90.5864 59.2902 90.5864Z" fill="white" stroke="#263238" stroke-linecap="round" stroke-linejoin="round"/>
<path d="M58.0755 92.0098C58.0755 92.0098 57.3082 92.7471 57.5593 93.0837C57.8104 93.4203 59.5632 94.2779 60.0175 94.0206C60.4718 93.7633 60.1759 93.4953 60.1759 93.4953L58.0755 92.0098Z" fill="white" stroke="#263238" stroke-linecap="round" stroke-linejoin="round"/>
<path d="M62.5694 90.5466L61.001 90.3018L61.3709 92.3399L62.9724 92.385L62.5694 90.5466Z" fill="white" stroke="#263238" stroke-linecap="round" stroke-linejoin="round"/>
<path d="M59.7472 87.3433L61.5844 93.1545L62.4773 93.8876L62.4768 92.853L60.5335 87.1332C60.5174 87.0858 60.4909 87.0417 60.4555 87.0037C60.4202 86.9657 60.3767 86.9345 60.3278 86.912C60.2788 86.8894 60.2253 86.876 60.1705 86.8725C60.1156 86.869 60.0606 86.8755 60.0086 86.8916C59.9092 86.9223 59.8267 86.9863 59.778 87.0704C59.7294 87.1544 59.7184 87.2521 59.7472 87.3433Z" fill="#263238" stroke="#263238" stroke-linecap="round" stroke-linejoin="round"/>
<path d="M60.3746 89.8369C60.3746 89.8369 59.2914 90.4097 59.4003 90.843C59.5092 91.2764 60.678 93.3109 61.1013 93.3371C61.5247 93.3633 61.7792 93.1231 61.7173 92.6927C61.6555 92.2623 61.2573 90.6593 61.0009 90.3022C60.7444 89.945 60.707 89.8147 60.3746 89.8369Z" fill="white" stroke="#263238" stroke-linecap="round" stroke-linejoin="round"/>
<path d="M62.5691 90.5469C62.5691 90.5469 63.7249 90.6789 63.9265 90.997C64.1281 91.315 63.3193 92.583 63.0625 92.8734C62.8058 93.1639 62.3446 93.1501 62.3311 92.4165C62.3527 91.7884 62.4323 91.163 62.5691 90.5469Z" fill="white" stroke="#263238" stroke-linecap="round" stroke-linejoin="round"/>
<path d="M56.3242 93.0015H68.9949C69.1704 93.0015 69.3441 93.0327 69.5062 93.0933C69.6684 93.1539 69.8157 93.2427 69.9397 93.3547C70.0638 93.4667 70.1622 93.5997 70.2294 93.746C70.2966 93.8924 70.3311 94.0492 70.3311 94.2076C70.3311 94.4791 70.2117 94.7394 69.999 94.9313C69.7864 95.1233 69.498 95.2311 69.1972 95.2311H56.5031C56.2273 95.2311 55.9627 95.1322 55.7676 94.9561C55.5725 94.78 55.4629 94.5412 55.4629 94.2921V93.7789C55.4629 93.6768 55.4852 93.5757 55.5284 93.4814C55.5717 93.3871 55.6352 93.3014 55.7152 93.2292C55.7951 93.157 55.8901 93.0997 55.9946 93.0606C56.0991 93.0216 56.2111 93.0015 56.3242 93.0015Z" fill="white" stroke="#263238" stroke-linecap="round" stroke-linejoin="round"/>
<path d="M78.878 90.3702C78.878 90.3702 75.5801 90.044 74.767 89.7993C73.9538 89.5547 72.6437 89.3508 72.1919 89.677C71.7402 90.0032 69.5266 92.3276 69.4814 92.613C69.4362 92.8985 68.9845 93.8364 69.2103 94.081C69.3997 94.2514 69.6323 94.3774 69.888 94.448C69.888 94.448 72.8244 95.182 73.1406 95.2228C73.4569 95.2636 76.4836 95.1412 76.4836 95.1412L78.0648 94.6111L80.2784 94.5704C80.2784 94.5704 80.3236 95.2228 80.3687 93.6325C80.4139 92.0421 78.878 90.3702 78.878 90.3702Z" fill="white" stroke="#263238" stroke-linecap="round" stroke-linejoin="round"/>
<path d="M69.8877 94.4479C69.8877 94.4479 69.9329 93.51 70.1587 93.1022C70.3846 92.6944 72.9596 90.6147 72.9596 90.6147" stroke="#263238" stroke-linecap="round" stroke-linejoin="round"/>
<path d="M70.7461 94.6925C70.7461 94.6925 71.1979 93.6731 71.3786 93.5915C71.5593 93.5099 73.6825 92.2866 73.6825 92.2866" stroke="#263238" stroke-linecap="round" stroke-linejoin="round"/>
<path d="M72.2822 94.978C72.2822 94.978 72.3726 94.5702 72.5984 94.4887C72.8243 94.4071 74.7217 93.6323 74.7217 93.6323" stroke="#263238" stroke-linecap="round" stroke-linejoin="round"/>
<path d="M74.3153 95.1816L75.1736 94.9778L75.0832 94.6108L74.1797 94.8146" stroke="#263238" stroke-linecap="round" stroke-linejoin="round"/>
<path d="M89.2231 77.2394C89.2231 77.2394 86.8288 81.7658 86.9644 83.3561C87.0999 84.9465 87.6872 87.5971 87.6872 87.5971C87.6872 87.5971 83.8924 88.9427 82.5823 89.432C81.2722 89.9214 78.8779 90.3699 78.8779 90.3699L80.0977 94.6924L79.917 95.141H93.0631C93.0631 95.141 94.0569 94.9779 94.2376 94.774C94.4183 94.5701 94.5991 94.4885 94.6894 93.8361C94.7797 93.1836 95.367 87.4747 95.2315 85.8844C95.096 84.294 93.2438 76.0161 93.0179 75.1597C92.792 74.3034 92.3854 73.7325 91.9789 73.5286C91.5723 73.3247 89.8104 73.1616 89.8104 73.1616" fill="white"/>
<path d="M89.2231 77.2394C89.2231 77.2394 86.8288 81.7658 86.9644 83.3561C87.0999 84.9465 87.6872 87.5971 87.6872 87.5971C87.6872 87.5971 83.8924 88.9427 82.5823 89.432C81.2722 89.9214 78.8779 90.3699 78.8779 90.3699L80.0977 94.6924L79.917 95.141H93.0631C93.0631 95.141 94.0569 94.9779 94.2376 94.774C94.4183 94.5701 94.5991 94.4885 94.6894 93.8361C94.7797 93.1836 95.367 87.4747 95.2315 85.8844C95.096 84.294 93.2438 76.0161 93.0179 75.1597C92.792 74.3034 92.3854 73.7325 91.9789 73.5286C91.5723 73.3247 89.8104 73.1616 89.8104 73.1616" stroke="#263238" stroke-linecap="round" stroke-linejoin="round"/>
<path d="M88.0029 87.6787C88.0029 87.6787 91.4815 87.8418 93.1981 88.8205" stroke="#263238" stroke-linecap="round" stroke-linejoin="round"/>
<path d="M88.6357 87.271C88.6357 87.271 91.0752 87.1487 92.3853 87.5157" stroke="#263238" stroke-linecap="round" stroke-linejoin="round"/>
<path d="M87.9581 77.1172C87.9581 77.1172 86.7383 79.6862 86.6931 80.6649C86.648 81.6436 86.5576 82.2144 86.5576 82.2144" stroke="#263238" stroke-linecap="round" stroke-linejoin="round"/>
<path d="M82.4014 70.3071C82.4014 70.3071 85.1571 73.8548 82.9435 83.7231" stroke="#263238" stroke-width="2" stroke-linecap="round" stroke-linejoin="round"/>
<path d="M84.2535 84.0085C84.2535 83.7665 84.174 83.53 84.0251 83.3288C83.8762 83.1277 83.6645 82.9709 83.4169 82.8783C83.1692 82.7857 82.8967 82.7615 82.6338 82.8087C82.3709 82.8559 82.1294 82.9724 81.9399 83.1435C81.7504 83.3146 81.6213 83.5325 81.569 83.7698C81.5167 84.0072 81.5436 84.2531 81.6461 84.4767C81.7487 84.7002 81.9224 84.8913 82.1453 85.0257C82.3682 85.1601 82.6302 85.2318 82.8983 85.2318C83.0762 85.2318 83.2525 85.2002 83.4169 85.1387C83.5813 85.0772 83.7307 84.9871 83.8566 84.8735C83.9824 84.7599 84.0822 84.6251 84.1504 84.4766C84.2185 84.3282 84.2535 84.1691 84.2535 84.0085Z" fill="white" stroke="#263238" stroke-linecap="round" stroke-linejoin="round"/>
<path d="M73.0052 70.6743C73.0052 70.6743 71.6048 71.4899 71.3789 74.7929" stroke="#263238" stroke-width="2" stroke-linecap="round" stroke-linejoin="round"/>
<path d="M73.3156 79.7969C72.9742 82.0257 72.5088 84.4175 72.4041 84.9424C72.1806 86.0633 70.7007 86.4556 69.752 86.0886" stroke="#263238" stroke-width="2" stroke-linecap="round" stroke-linejoin="round"/>
<path d="M69.7769 79.9443C69.4674 78.695 69.2775 77.6116 69.346 77.1173C69.6622 74.8337 71.3789 74.793 71.3789 74.793C71.3789 74.793 73.4118 75.0376 73.5473 76.995C73.5603 77.9332 73.483 78.8706 73.3162 79.7967" stroke="#263238" stroke-width="2" stroke-linecap="round" stroke-linejoin="round"/>
<path d="M73.592 85.9254C73.592 85.9254 72.6433 86.4147 72.0108 86.0885C71.5836 85.8681 70.4208 82.5462 69.7764 79.9443" stroke="#263238" stroke-width="2" stroke-linecap="round" stroke-linejoin="round"/>
<path d="M73.5519 85.6248L73.9274 85.4787C74.0137 85.4451 74.1113 85.4439 74.1986 85.4752C74.2859 85.5065 74.3559 85.5679 74.3931 85.6458L74.3977 85.6554C74.4349 85.7333 74.4363 85.8213 74.4016 85.9001C74.3669 85.9789 74.2989 86.0421 74.2127 86.0757L73.837 86.2218C73.7507 86.2554 73.6532 86.2567 73.5659 86.2253C73.4786 86.194 73.4086 86.1327 73.3714 86.0548L73.3668 86.0451C73.3484 86.0066 73.3386 85.9651 73.3379 85.9231C73.3372 85.8811 73.3457 85.8394 73.3629 85.8004C73.3801 85.7614 73.4057 85.7258 73.4381 85.6956C73.4705 85.6655 73.5092 85.6415 73.5519 85.6248V85.6248Z" stroke="#263238" stroke-linecap="round" stroke-linejoin="round"/>
<path d="M69.5205 85.5143L69.8708 85.7043C69.9107 85.7259 69.9455 85.7544 69.9732 85.7882C70.0009 85.822 70.021 85.8604 70.0323 85.9012C70.0435 85.942 70.0458 85.9843 70.0389 86.0259C70.032 86.0675 70.0162 86.1074 69.9922 86.1435L69.9862 86.1525C69.9379 86.2251 69.8595 86.2774 69.7684 86.2979C69.6773 86.3184 69.581 86.3055 69.5005 86.2618L69.1496 86.0715C69.069 86.0279 69.011 85.9571 68.9883 85.8748C68.9656 85.7926 68.98 85.7055 69.0283 85.6328L69.0343 85.6238C69.0827 85.5511 69.1611 85.4987 69.2523 85.4781C69.3435 85.4576 69.44 85.4706 69.5205 85.5143L69.5205 85.5143Z" stroke="#263238" stroke-linecap="round" stroke-linejoin="round"/>
<path d="M71.3786 60.8062C71.3786 60.8062 70.6558 62.3558 70.7913 63.3345C70.9269 64.3131 72.3725 65.3734 72.3725 65.3734C72.3725 65.3734 72.8694 61.0101 72.8694 60.847C72.8694 60.6839 71.9659 60.3169 71.3786 60.8062Z" fill="#263238" stroke="#263238" stroke-linecap="round" stroke-linejoin="round"/>
<path d="M70.8594 66.3538L71.8204 65.748" stroke="#263238" stroke-width="2" stroke-linecap="round" stroke-linejoin="round"/>
<path d="M71.9203 61.0915C71.9203 61.0915 71.7396 65.4139 71.83 66.2295C71.9203 67.0451 72.2817 69.6549 72.598 70.4704C72.9142 71.286 73.9532 73.8958 74.7664 74.1812C75.5795 74.4667 77.2059 74.6705 77.748 74.3443C78.2901 74.0181 80.2778 72.7948 80.8199 71.6122C81.1415 70.922 81.3544 70.1945 81.4524 69.4509C81.9032 69.2339 82.2925 68.926 82.5902 68.5512C82.8879 68.1764 83.086 67.7448 83.1691 67.2897C83.4401 65.7401 82.7173 65.2916 82.7173 65.2916L82.7625 62.6002C82.7625 62.6002 82.2656 60.7245 80.9555 59.705C79.6454 58.6855 78.1094 58.604 76.5283 59.3788C74.9471 60.1536 71.9203 61.0915 71.9203 61.0915Z" fill="white" stroke="#263238" stroke-linecap="round" stroke-linejoin="round"/>
<path d="M80.4138 60.8468C80.4138 60.8468 80.459 59.7866 79.3296 60.1536C78.2002 60.5206 77.9291 61.2138 76.2576 61.8255C74.5861 62.4371 72.3725 61.7439 71.6045 61.3361C70.8365 60.9283 70.2944 60.3574 71.3335 59.2972C72.3725 58.237 74.812 57.1768 77.4322 57.1768C80.0524 57.1768 82.0853 59.1341 82.9436 59.9497C83.802 60.7652 83.9375 61.7847 83.6213 62.5187C83.305 63.2527 82.7178 65.2916 82.7178 65.2916C82.7178 65.2916 82.3564 65.2508 82.2208 65.7402C82.0853 66.2295 82.1305 66.7596 81.5432 66.8004C80.9559 66.8412 81.0011 65.4139 81.0011 65.4139C81.0011 65.4139 79.5554 65.0061 79.3748 64.0683C79.1941 63.1304 80.4138 61.7439 80.4138 60.8468Z" fill="#263238" stroke="#263238" stroke-linecap="round" stroke-linejoin="round"/>
<path d="M75.0376 67.0177L70.8594 66.3535L71.1024 68.0441C71.1177 68.1502 71.1706 68.249 71.2532 68.3256C71.3359 68.4023 71.4438 68.4527 71.5608 68.4693L74.0993 68.8304C74.2391 68.8503 74.382 68.8206 74.4981 68.7476C74.6142 68.6746 74.6945 68.5639 74.7223 68.4387L75.0376 67.0177Z" stroke="#263238" stroke-width="2" stroke-linecap="round" stroke-linejoin="round"/>
<path d="M75.793 67.09L80.6391 66.9634L80.1634 68.5463C80.1226 68.6526 80.0447 68.7441 79.9414 68.8072C79.8381 68.8703 79.715 68.9015 79.5904 68.8962L76.6512 68.9327C76.4991 68.9422 76.3483 68.9021 76.2262 68.8197C76.1041 68.7372 76.0189 68.6179 75.9862 68.4835L75.793 67.09Z" stroke="#263238" stroke-width="2" stroke-linecap="round" stroke-linejoin="round"/>
<path d="M75.0381 67.0176L75.7938 67.0899" stroke="#263238" stroke-width="2" stroke-linecap="round" stroke-linejoin="round"/>
<path d="M80.6396 66.9636L82.2208 65.7402" stroke="#263238" stroke-width="2" stroke-linecap="round" stroke-linejoin="round"/>
<path d="M76.4385 66.5967C76.4385 66.5967 77.7937 65.6588 79.0586 66.2297" stroke="#263238" stroke-width="2" stroke-linecap="round" stroke-linejoin="round"/>
<path d="M74.405 66.3925C74.405 66.3925 73.366 65.373 72.1914 66.0662" stroke="#263238" stroke-width="2" stroke-linecap="round" stroke-linejoin="round"/>
<path d="M74.6766 69.9404C74.6766 69.9404 74.4507 70.7968 74.6766 70.9599C75.0618 71.1517 75.5065 71.2234 75.9415 71.1638" stroke="#263238" stroke-linecap="round" stroke-linejoin="round"/>
<path d="M73.999 71.6123C73.999 71.6123 74.9025 72.224 75.7609 72.2648C76.6192 72.3055 77.6131 71.7346 77.6131 71.7346" stroke="#263238" stroke-linecap="round" stroke-linejoin="round"/>
<path d="M77.3418 67.4529C77.3418 67.4529 77.8839 68.0238 78.7874 67.4121" stroke="#263238" stroke-linecap="round" stroke-linejoin="round"/>
<path d="M72.8916 67.2017C72.8916 67.2017 73.3421 67.834 74.3298 67.3397" stroke="#263238" stroke-linecap="round" stroke-linejoin="round"/>
<path d="M44.86 60.8427C44.86 60.8427 45.147 64.7293 44.9317 65.0532C44.7164 65.3771 44.2858 66.0248 44.2858 66.0248C44.2858 66.0248 44.5729 68.8102 43.9988 69.1341C43.5539 69.3488 43.0659 69.4809 42.5635 69.5228C42.5635 69.5228 41.9894 71.5957 41.7741 71.8548C41.5589 72.1139 40.2671 72.956 39.8365 73.0855C39.406 73.2151 38.0425 73.2799 34.8131 71.5309C31.5838 69.7819 30.3638 69.1989 30.4356 68.2273C30.5074 67.2556 30.6509 66.1544 30.6509 66.1544C30.6509 66.1544 31.0097 61.4904 31.6556 60.0653C32.3014 58.6402 40.4824 57.8629 42.2765 58.2516C44.0706 58.6402 44.86 60.8427 44.86 60.8427Z" fill="white" stroke="#263238" stroke-linecap="round" stroke-linejoin="round"/>
<path d="M36.5352 67.2554L37.0375 67.5793C37.0375 67.5793 36.6069 69.1339 36.8222 69.8464" stroke="#263238" stroke-linecap="round" stroke-linejoin="round"/>
<path d="M43.7108 65.954C43.6378 66.2504 43.4646 66.4677 43.3238 66.4395C43.1831 66.4112 43.1283 66.1481 43.2013 65.8517C43.2743 65.5554 43.4475 65.338 43.5882 65.3662C43.7289 65.3945 43.7838 65.6576 43.7108 65.954Z" fill="#263238"/>
<path d="M42.9775 64.7641C42.9775 64.7641 43.7605 64.0573 44.413 64.7248" stroke="#263238" stroke-linecap="round" stroke-linejoin="round"/>
<path d="M41.9897 60.3244C41.9897 60.3244 42.9226 61.879 42.8508 62.2029C42.779 62.5268 39.8368 63.3041 39.8368 63.3041C39.8368 63.3041 39.5497 64.8588 39.1191 65.0531L38.6886 65.2474C38.3449 64.8252 38.056 64.3688 37.8274 63.8871C37.3251 62.9155 36.6074 62.6564 35.818 63.628C35.0286 64.5997 35.6745 66.8669 36.1051 67.0612L36.5357 67.2556C36.5357 67.2556 36.1768 67.5794 34.8134 67.7738C33.4499 67.9681 32.4452 68.2272 31.4405 67.9681C30.4358 67.709 29.0006 65.2475 28.4982 62.0734C27.9959 58.8993 29.5747 56.1786 31.6558 55.3366C33.7369 54.4944 38.4733 55.2718 38.8321 55.4661C39.1909 55.6604 41.6308 54.624 43.0661 55.2718C44.5013 55.9195 44.4296 56.6321 44.7884 57.0855C45.1472 57.539 47.013 56.956 47.1566 58.5754C47.3001 60.1948 46.5825 61.1665 45.6495 61.296C44.7166 61.4256 41.9897 60.3244 41.9897 60.3244Z" fill="#263238" stroke="#263238" stroke-linecap="round" stroke-linejoin="round"/>
<path d="M24.9963 70.4932C24.9963 70.4932 18.119 73.804 16.8091 74.4543C15.4991 75.1047 15.3026 75.6959 15.2371 76.2871C15.1716 76.8783 15.2371 96.8616 15.2371 96.8616H52.3744C52.3744 96.8616 46.7416 81.6081 46.5451 79.8935C46.3486 78.179 45.9556 75.1638 45.4316 74.8091C44.9076 74.4543 37.5064 71.4982 37.5064 71.4982C37.5064 71.4982 35.7379 69.7837 31.5461 69.7837C27.3542 69.7837 24.9963 70.4932 24.9963 70.4932Z" fill="#A4DD6A" stroke="#263238" stroke-linecap="round" stroke-linejoin="round"/>
<path d="M29.2559 82.6587C29.4498 82.728 29.6458 82.7917 29.8438 82.8497" stroke="#263238" stroke-linecap="round" stroke-linejoin="round"/>
<path d="M21.918 77.1743C21.918 77.1743 24.6289 80.5909 28.333 82.2832" stroke="#263238" stroke-linecap="round" stroke-linejoin="round"/>
<path d="M24.2764 81.1353C24.2764 81.1353 25.7828 82.4951 28.9267 83.2637" stroke="#263238" stroke-linecap="round" stroke-linejoin="round"/>
<path d="M42.938 76.2349C41.8914 77.3084 40.4178 79.0242 39.9297 80.6032" stroke="#263238" stroke-linecap="round" stroke-linejoin="round"/>
<path d="M44.0567 75.1641C44.0567 75.1641 43.8479 75.3451 43.5225 75.6564" stroke="#263238" stroke-linecap="round" stroke-linejoin="round"/>
<path d="M40.3235 78.7114C40.3235 78.7114 39.341 80.426 39.1445 81.4902" stroke="#263238" stroke-linecap="round" stroke-linejoin="round"/>
<path d="M24.6035 70.7887C24.6035 70.7887 28.4024 70.6705 32.0048 70.7296C35.6072 70.7887 37.9651 71.7938 37.9651 71.7938C37.9651 71.7938 35.8036 69.4289 34.8212 68.8968C33.8387 68.3647 30.8258 67.4779 28.3369 68.1874C26.8051 68.6531 25.4906 69.5691 24.6035 70.7887Z" fill="#A4DD6A" stroke="#263238" stroke-linecap="round" stroke-linejoin="round"/>
<path d="M13.8009 96.8466L10.3383 84.8663C10.305 84.7207 10.3081 84.5703 10.3472 84.4259C10.3864 84.2815 10.4607 84.1467 10.5647 84.0315C10.6687 83.9162 10.7999 83.8233 10.9486 83.7595C11.0974 83.6957 11.26 83.6626 11.4247 83.6626H38.9712C39.2243 83.6626 39.4699 83.7407 39.667 83.8841C39.8642 84.0274 40.0011 84.2272 40.055 84.4505L43.1129 96.8615" fill="#263238"/>
<path d="M13.8009 96.8466L10.3383 84.8663C10.305 84.7207 10.3081 84.5703 10.3472 84.4259C10.3864 84.2815 10.4607 84.1467 10.5647 84.0315C10.6687 83.9162 10.7999 83.8233 10.9486 83.7595C11.0974 83.6957 11.26 83.6626 11.4247 83.6626H38.9712C39.2244 83.6626 39.4699 83.7407 39.667 83.8841C39.8642 84.0274 40.0011 84.2272 40.055 84.4505L43.1129 96.8615" stroke="#263238" stroke-linecap="round" stroke-linejoin="round"/>
</svg>
