<svg width="161" height="116" viewBox="0 0 161 116" fill="none" xmlns="http://www.w3.org/2000/svg">
<path opacity="0.18" d="M87.0418 13.5578C72.4166 15.9044 57.5297 15.924 42.7872 17.3437C35.167 18.0789 -7.58352 39.7833 1.17754 85.9395C4.39091 102.943 21.4149 116.725 38.6831 115.97C53.3552 115.329 54.9707 105.651 81.1171 105.102C100.972 104.685 116.279 118.867 139.278 110.681C149.471 107.053 157.591 97.8994 160.193 87.3905C162.795 76.8815 159.013 64.7416 150.139 58.5426C145.535 55.3179 139.653 53.5697 136.373 48.9938C129.945 40.0258 142.964 26.1553 137.172 16.7648C125.655 -1.91626 99.3171 11.5944 87.0418 13.5578Z" fill="#76DE11"/>
<path opacity="0.05" d="M28.5393 87.2265C28.5393 87.2265 13.0581 91.0519 26.4639 96.5615C39.8696 102.071 102.109 108.152 124.892 95.6883C124.892 95.6883 140.518 95.2566 140.946 93.0803C141.375 90.9041 139.09 89.1441 139.09 89.1441L131.167 88.8776C131.167 88.8776 129.708 92.0146 122.407 86.3164C115.106 80.6181 28.5393 87.2265 28.5393 87.2265Z" fill="#050000"/>
<path d="M139 91.0156C138.545 91.5949 137.974 92.0711 137.324 92.4131C136.674 92.755 135.96 92.955 135.228 93C133.174 93 134.166 91.0644 134.85 91.0644C135.041 91.0687 135.233 91.0504 135.42 91.0098L136.264 90.2683L137.099 89.5171L137.318 89.041C137.318 89.041 138.481 89.3102 138.688 89L138.839 90.3151V90.5707C138.929 90.703 138.985 90.856 139 91.0156Z" fill="#3A3A3A"/>
<path d="M122 87.501C122 94.4056 101.181 100 75.5019 100C49.8228 100 29 94.3996 29 87.501C29.0176 86.6753 29.2887 85.8768 29.7742 85.2208C33.7576 79.4063 52.7145 75 75.5019 75C98.2893 75 117.242 79.4003 121.226 85.2208C121.711 85.8768 121.982 86.6753 122 87.501Z" fill="#76DE11"/>
<path opacity="0.05" d="M121 85.002C116.987 90.6919 97.9197 95 75.001 95C52.0823 95 33.0132 90.6939 29 85.002C33.0054 79.312 52.0764 75 75.001 75C97.9255 75 116.993 79.312 121 85.002Z" fill="#050000"/>
<path opacity="0.05" d="M75 91C95.9868 91 113 87.866 113 84C113 80.134 95.9868 77 75 77C54.0132 77 37 80.134 37 84C37 87.866 54.0132 91 75 91Z" fill="#050000"/>
<path d="M108.938 82.9105C108.938 82.9105 111.639 88.7683 76.895 89C76.5276 89 76.1641 89 75.8046 89C75.4942 89 75.1877 89 74.8831 89C65.6213 89 58.9216 88.517 54.0746 87.8316H54.0608C41.6476 86.0653 41.4236 82.9261 41.4236 82.9261L19 0.432322L54.9803 0.290162L130 0L108.938 82.9105Z" fill="url(#paint0_linear_345_13)"/>
<path d="M134 90.7862C134 90.9582 132.055 92 130.147 92C128.24 92 129.142 90.2808 129.792 90.2946H130.439L130.806 90.1226L132.2 89.4556L132.408 89.0361C132.408 89.0361 133.508 89.2734 133.705 89L133.848 90.1777V90.3908C133.934 90.5082 133.986 90.6444 134 90.7862Z" fill="#3A3A3A"/>
<path d="M133.897 90.2802C133.967 90.4117 134.002 90.5584 134 90.707C134 90.8901 132.055 92 130.147 92C128.24 92 129.142 90.1685 129.792 90.1831H130.439L130.806 90L133.868 90.0513L133.897 90.2802Z" fill="#3A3A3A"/>
<path d="M131.069 91.4036C130.579 91.545 130.066 91.545 129.576 91.4036C129.129 91.1314 128.987 90.9257 129.001 90.7157C129.014 90.5057 129.287 89.8971 130.357 90.1843C131.427 90.4714 131.625 91.1164 131.625 91.1164L131.069 91.4036ZM139 90.8207C138.55 91.457 137.984 91.9799 137.341 92.3554C136.697 92.731 135.99 92.9506 135.265 93C133.232 93 134.214 90.8743 134.891 90.8743C135.081 90.8791 135.27 90.8589 135.455 90.8143L136.292 90L138.86 90.0514V90.3321C138.943 90.4793 138.991 90.6473 139 90.8207Z" fill="#3A3A3A"/>
<path d="M136.338 91.9242C135.785 92.0253 135.205 92.0253 134.652 91.9242C134.144 91.7298 133.984 91.5844 134.001 91.4329C134.019 91.2814 134.322 90.8482 135.535 91.0548C136.748 91.2615 137 91.6977 137 91.6977L136.338 91.9242Z" fill="#3A3A3A"/>
<path d="M130 68.1113L132.057 88.5633C132.057 88.5633 133.43 89.0613 134.042 88.5633L134.893 72.4548L137.302 88.702C137.302 88.702 138.427 89.4324 139.12 88.6063L140 68C140 68 132.834 69.4902 130 68.1113Z" fill="#76DE11"/>
<path d="M130 68.1113L132.057 88.5677C132.057 88.5677 133.43 89.0638 134.042 88.5677L134.893 72.4588L137.302 88.7025C137.302 88.7025 138.427 89.4329 139.12 88.6048L140 68C140 68 132.834 69.4902 130 68.1113Z" fill="url(#paint1_linear_345_13)"/>
<path d="M137.099 49C137.363 49.2101 137.646 49.3943 137.945 49.5499C138.654 49.9647 139.427 50.2569 140.231 50.4147C141.292 50.5313 141.738 52.5522 141.879 53.5025C142.021 54.4527 142.995 59.1767 142.995 59.1767C143.029 59.6413 142.896 60.1027 142.62 60.4749C142.344 60.8471 141.944 61.1047 141.495 61.1996C139.773 61.7689 139.817 62.0507 139.817 62.0507L139.852 68.1155C139.852 68.1155 132.095 70.0296 130 68.2263L130.304 60.02L131.462 51.1006L134.748 49.546L137.099 49Z" fill="#76DE11"/>
<path d="M137.656 49C137.495 49.2803 137.266 49.5313 136.983 49.7379C136.699 49.9445 136.367 50.1024 136.006 50.2022C135.645 50.3019 135.263 50.3414 134.883 50.3183C134.503 50.2952 134.133 50.2099 133.794 50.0677C133.794 50.0677 131.457 53.357 134.802 52.968C136.574 52.7519 137.733 50.4804 138 49.4041L137.656 49Z" fill="#3A3A3A"/>
<path opacity="0.05" d="M137.13 59.0627C137.747 58.8978 138.354 58.6923 138.95 58.4471C139.158 58.2878 138.65 54 138.65 54C138.65 54 138.462 57.444 134.598 59.0929C132.712 59.8979 135.891 61 135.891 61L137.13 59.0627Z" fill="#050000"/>
<path opacity="0.05" d="M137.343 61.8297C137.343 61.8297 139.561 62.6126 140 62.337V67C140 67 134.334 63.4912 134.334 62.9438C134.334 62.3963 130 62.27 130 62.27V60.9932L136.58 60.2505C136.58 60.2505 138.002 59.0713 137.343 61.8297Z" fill="#050000"/>
<path d="M138 59C138 59 138 60.4965 137.62 60.9229C137.24 61.3494 137 59.8664 137 59.8664L138 59Z" fill="#4B0303"/>
<path d="M137 46C137 46 136.978 46.4729 136.949 47.0929C136.923 47.612 136.892 48.2342 136.87 48.7533C136.828 49.6348 136.496 50.4656 135.94 51.0778C135.617 51.457 135.231 51.7574 134.804 51.9606C134.701 52.0022 134.59 52.0111 134.483 51.9862C134.375 51.9612 134.276 51.9035 134.196 51.8191C134.115 51.7346 134.056 51.6267 134.025 51.5069C133.994 51.3871 133.992 51.2598 134.019 51.1388C134.135 50.7446 134.205 50.3348 134.229 49.9198C134.24 49.7646 134.243 49.6088 134.238 49.4532C134.232 49.1654 134.201 48.879 134.148 48.5978C133.798 47.5931 136.632 46.1808 136.969 46.0147L137 46Z" fill="url(#paint2_linear_345_13)"/>
<path d="M137 46C136.841 46.4798 136.807 47.433 136.155 48.3669C135.859 48.7972 135.062 49.7676 134.116 50C134.128 49.8411 134.132 49.6816 134.126 49.5223C134.12 49.2277 134.088 48.9345 134.031 48.6466C133.664 47.6159 136.646 46.17 137 46Z" fill="url(#paint3_linear_345_13)"/>
<path d="M134.207 40.0026C133.743 40.0268 133.288 40.1504 132.872 40.3659C132.456 40.5813 132.087 40.8838 131.788 41.2545C131.49 41.6252 131.268 42.056 131.137 42.52C131.006 42.9839 130.968 43.4711 131.027 43.9509C131.132 45.3777 131.484 46.7729 132.067 48.0691C133.173 50.0244 135.96 48.4174 136.402 47.6096C136.843 46.8019 138.54 43.1662 137.828 42.1362C137.364 41.4564 136.023 39.9291 134.207 40.0026Z" fill="url(#paint4_linear_345_13)"/>
<path d="M131.656 39.6093L132.113 39.8864C131.837 39.8778 131.564 39.9441 131.315 40.0799C131.066 40.2156 130.848 40.4171 130.679 40.6681C130.252 41.1641 130.008 41.8322 130 42.5314L130.801 42.0918C130.801 42.0918 130.743 43.2252 132.253 43.3131C133.763 43.401 135.366 43.4679 135.366 43.4679L134.851 42.6518C134.851 42.6518 135.805 43.0914 135.957 43.4889C136.104 44.1287 136.21 44.7803 136.273 45.4382C136.273 45.4382 136.654 44.326 136.8 44.5687C136.945 44.8114 136.634 45.8243 136.437 46.0536C136.24 46.283 136.272 46.9442 136.255 46.9977C136.238 47.0512 137.192 46.1415 137.238 45.83C137.285 45.5185 138.232 42.3422 137.619 41.681L138 41.6466C137.777 41.474 137.523 41.361 137.257 41.3159C137.257 41.3159 134.768 37.5663 131.656 39.6093Z" fill="#3A3A3A"/>
<path d="M131 51C131 51 129.539 51.6096 129.347 54.3429C129.189 56.1046 128.847 57.8469 128.326 59.544C127.221 59.6501 126.111 59.7033 125 59.7033L126.622 60.8831C127.23 61.3259 127.938 61.6276 128.689 61.764L129.807 62L131 51Z" fill="#76DE11"/>
<path d="M135.999 60.4436C136 60.4685 136 60.4935 135.999 60.5184C135.98 60.656 135.908 60.7818 135.798 60.8709C135.688 60.96 135.547 61.0059 135.403 60.9994L124.889 60.4245C124.798 60.4212 124.708 60.3954 124.63 60.3497C124.562 60.3219 124.5 60.2813 124.448 60.2303C124.396 60.1794 124.356 60.119 124.328 60.0527L122.033 53.7379C122.002 53.6537 121.993 53.5635 122.006 53.475C122.019 53.3865 122.054 53.3025 122.108 53.23C122.163 53.1576 122.235 53.0989 122.318 53.0589C122.402 53.0189 122.493 52.9987 122.586 53.0001L129.885 53.1227C130.008 53.1254 130.127 53.1664 130.224 53.2396C130.321 53.3128 130.391 53.4143 130.424 53.529L132.023 59.0772C132.053 59.1805 132.113 59.2731 132.197 59.3439C132.28 59.4147 132.383 59.4605 132.493 59.4758L135.481 59.9032C135.621 59.9163 135.751 59.9786 135.846 60.0782C135.942 60.1779 135.996 60.3079 135.999 60.4436Z" fill="url(#paint5_linear_345_13)"/>
<path d="M137.87 59.9778C137.696 60.0074 137.506 60.0074 137.333 59.9778C137.155 59.9599 136.982 59.931 136.82 59.8918C136.525 59.8137 135.882 59.527 135.279 59.6091C134.746 59.6714 134.195 59.6854 133.651 59.6506C133.429 59.6259 133.429 59.5972 133.214 59.6091C132.998 59.6209 133 59.4825 133 59.4825C133.651 59.2784 134.353 59.1162 135.09 59C135.83 59.0094 136.561 59.0816 137.249 59.2136L137.717 59.3441L137.746 59.351L137.998 59.4222C137.998 59.4222 138.026 59.9235 137.87 59.9778Z" fill="url(#paint6_linear_345_13)"/>
<path d="M135 58.9075L134.089 58C134.089 58 133.938 58.4486 134.029 58.6849C134.078 58.8014 134.134 58.9071 134.196 59C134.457 58.8666 134.731 58.8351 135 58.9075Z" fill="url(#paint7_linear_345_13)"/>
<path d="M130 90.0272C130 90.0272 130.711 90.4038 130.753 90.9874L130.809 91.3054C130.809 91.3054 133.474 90.772 133.777 90.1444L133.649 89.1695C133.497 89.3446 133.306 89.478 133.093 89.558C132.88 89.6379 132.652 89.6618 132.428 89.6276C131.797 89.4289 131.918 89 131.918 89L130 90.0272ZM135.643 90.8619L135.41 90.7364L137.149 89.1192C137.149 89.1192 137.524 90.0649 138.845 89.3033L139 90.249C138.242 91.0834 137.281 91.6884 136.219 92C136.211 91.7773 136.156 91.5592 136.056 91.3621C135.956 91.1651 135.815 90.994 135.643 90.8619Z" fill="#76DE11"/>
<path opacity="0.61" d="M130 89.8911C130 89.8911 130.753 90.2178 130.797 90.7241L130.857 91C130.857 91 133.679 90.5372 134 89.9927L133.864 89.147C133.703 89.2989 133.501 89.4147 133.276 89.484C133.05 89.5534 132.808 89.5741 132.571 89.5445C131.903 89.3721 132.031 89 132.031 89L130 89.8911Z" fill="url(#paint8_linear_345_13)"/>
<path opacity="0.61" d="M135.26 90.8148L135 90.6841L136.937 89C136.937 89 137.356 89.9848 138.828 89.1917L139 90.1765C138.155 91.0454 137.084 91.6755 135.902 92C135.893 91.7681 135.831 91.541 135.72 91.3357C135.609 91.1305 135.451 90.9524 135.26 90.8148Z" fill="url(#paint9_linear_345_13)"/>
<path d="M132 61L128.119 60.7736L124.484 60.5599C124.368 60.4902 124.278 60.3775 124.23 60.2417L124.01 59.541L123.213 57.0288L122 53.2136C122.018 53.137 122.048 53.0645 122.089 53L125.664 53.0513L129.442 53.1068C129.54 53.1182 129.631 53.1652 129.701 53.2403C129.772 53.3155 129.817 53.4143 129.83 53.5212C129.885 53.9143 131.383 60.2032 131.383 60.2032C131.427 60.3772 131.506 60.5385 131.612 60.676C131.719 60.8136 131.851 60.9241 132 61Z" fill="url(#paint10_linear_345_13)"/>
<path d="M132 59C132 59 132.567 60.6576 132 60.797L135.638 61C135.638 61 136.038 60.8727 135.997 60.4758C135.938 60.1707 135.813 59.8958 135.638 59.6848L132.169 59.0545L132 59Z" fill="#70CA18"/>
<path d="M132.711 60.997C132.964 60.9667 133.071 60.7216 132.951 60.4463C132.831 60.1709 132.517 59.9728 132.284 60.003C132.05 60.0333 131.923 60.2784 132.05 60.5537C132.177 60.8291 132.49 61.0272 132.711 60.997Z" fill="#70CA18" fill-opacity="0.5"/>
<path d="M132 61L128.525 60.7929L124.522 60.4838C124.392 60.3816 124.292 60.2146 124.242 60.0139L124 59L131.425 59.2504C131.521 59.8898 131.718 60.4886 132 61Z" fill="#70CA18"/>
<path d="M133 70C133 70 133.623 71.6563 135 72L134.571 70.054L133 70Z" fill="#3A3A3A"/>
<path d="M138 68.2913L138.48 89L140 68L138 68.2913Z" fill="#3A3A3A"/>
<path d="M97.4056 11H53.5944C51.6093 11 50 12.583 50 14.5356V69.4644C50 71.417 51.6093 73 53.5944 73H97.4056C99.3907 73 101 71.417 101 69.4644V14.5356C101 12.583 99.3907 11 97.4056 11Z" fill="#76DE11"/>
<path d="M97 15H55V67H97V15Z" fill="white"/>
<path d="M61 42H91" stroke="#70CA18" stroke-opacity="0.5" stroke-width="0.672628" stroke-miterlimit="10"/>
<path d="M61 39H91" stroke="#70CA18" stroke-opacity="0.5" stroke-width="0.672628" stroke-miterlimit="10"/>
<path d="M61 34H91" stroke="#70CA18" stroke-opacity="0.5" stroke-width="0.672628" stroke-miterlimit="10"/>
<path d="M61 31H91" stroke="#70CA18" stroke-opacity="0.5" stroke-width="0.672628" stroke-miterlimit="10"/>
<path d="M61 37H91" stroke="#70CA18" stroke-opacity="0.5" stroke-width="0.672628" stroke-miterlimit="10"/>
<path d="M34.1728 81L34.0769 81.0743C34.0006 81.1325 33.9165 81.2028 33.8246 81.2751C33.5559 81.503 33.3017 81.7485 33.0637 82.0099C32.3653 82.7769 31.9428 83.5479 31.9389 84.2827C31.9375 84.6179 32.0306 84.9463 32.2069 85.2284L32.2245 85.0798L31.09 86.2002L31 86.2885L31.0939 86.3729L33.8559 88.9248L33.9107 88.975L33.9791 88.9448L37.2634 87.5273H37.1812L37.238 87.5534L37.4023 87.6237L37.9891 87.8767C38.6092 88.1377 39.2488 88.3987 39.8767 88.6417C40.0958 88.728 40.3129 88.8103 40.5222 88.8886C41.78 89.3585 42.7522 89.6616 43.3312 89.7399L43.2353 89.5873L41.7761 94.3016L41.7428 94.4121L41.8485 94.4502L44.3659 95.3497L44.2877 95.2413L44.3229 96.5885H44.5537L44.5185 95.2413V95.159L44.4442 95.1329L41.9267 94.2334L41.9991 94.3799L43.4564 89.6656L43.4994 89.5311L43.3625 89.513C42.8069 89.4368 41.8465 89.1376 40.6024 88.6718L39.9589 88.4268C39.3349 88.1839 38.6952 87.9229 38.0771 87.6639L37.4903 87.4109L37.3279 87.3406L37.2712 87.3165L37.2262 87.2964L37.1812 87.3165L33.897 88.734L34.0182 88.7541L31.2523 86.2102V86.3829L32.3849 85.2626L32.4534 85.1963L32.4025 85.114C32.2497 84.8705 32.1695 84.5864 32.1717 84.2968C32.1717 83.6362 32.5629 82.9114 33.2339 82.1846C33.4657 81.9302 33.7126 81.6909 33.9733 81.4678C34.0632 81.3915 34.1454 81.3253 34.2178 81.267L34.3097 81.1968L34.1728 81ZM45.3675 91.8321L45.5122 91.8561L45.9308 91.9224C46.3827 91.9967 46.8932 92.077 47.4546 92.1653C49.0547 92.4143 50.7252 92.6633 52.382 92.8962C53.2231 93.014 54.0375 93.1244 54.8251 93.2275C58.5847 93.7174 61.4269 93.9864 62.9898 93.9603H63.0661L63.0955 93.888L63.8779 91.9465L63.7644 92.0188H63.8251L64.005 92.0308L64.6642 92.075C65.3606 92.1192 66.1 92.1653 66.8492 92.2075C67.4614 92.2416 68.0522 92.2718 68.6097 92.2979C70.3604 92.3802 71.7296 92.4163 72.5688 92.3902L72.4495 92.2818L72.8172 97.8876V98H73.0578H73.4255L74.7439 97.9819C76.1132 97.9598 77.4707 97.9277 78.7441 97.8856C81.9306 97.7791 83.9962 97.6245 84.497 97.3997L84.5713 97.3655V97.2832L84.4266 95.0365L84.3757 95.1429L88.2409 92.5328L88.1842 92.5529H88.2918L88.595 92.5288L89.6728 92.4444C90.7897 92.3501 91.9047 92.2436 92.9473 92.1292C95.1674 91.8802 96.7421 91.6212 97.4072 91.3542L97.2546 91.2719L97.8199 93.5507L97.8355 93.617L97.9001 93.6371L104.322 95.5083H104.379L109.777 94.3036L109.682 94.2796L110.855 95.2513L111 95.0686L109.826 94.0968L109.783 94.0607L109.731 94.0728L104.33 95.2774H104.386L97.9627 93.4042L98.0429 93.4905L97.4834 91.1936L97.4502 91.0631L97.3289 91.1113C96.6912 91.3683 95.1244 91.6273 92.9277 91.8702C91.889 91.9867 90.776 92.0931 89.6591 92.1854C89.2679 92.2196 88.908 92.2477 88.5833 92.2718L88.282 92.2938H88.1744L88.1197 92.3139L84.2544 94.9241L84.1977 94.9602V95.0305L84.3425 97.2772L84.4109 97.1607C83.9532 97.3615 81.868 97.5221 78.7383 97.6265C77.4668 97.6707 76.1054 97.7008 74.742 97.7229L73.4255 97.741H73.0578H72.9267L73.0422 97.8514L72.6764 92.2437V92.1292H72.5649C71.7335 92.1533 70.3701 92.1172 68.6234 92.0368C68.06 92.0107 67.4693 91.9786 66.8629 91.9445C66.1137 91.9023 65.3743 91.8582 64.6779 91.814L64.0207 91.7698L63.8407 91.7578H63.7801H63.696L63.6647 91.8361L62.8822 93.7796L62.9859 93.7053C61.4387 93.7314 58.6023 93.4624 54.8545 92.9745C54.072 92.8721 53.2524 92.7617 52.4133 92.6432C50.7584 92.4123 49.0879 92.1613 47.4879 91.9124C46.9284 91.826 46.4179 91.7437 45.966 91.6714L45.5494 91.6032L45.4027 91.5811L45.3675 91.8321Z" fill="white"/>
<path d="M68.2538 99.8635L65.942 96.8855L65.9029 96.8343H65.8362C65.0036 96.9272 62.2119 96.7547 58.1017 96.3907L56.3757 96.2334C54.9044 96.0969 53.4096 95.9509 51.9677 95.8049L50.5963 95.6628L50.2182 95.623L50.085 95.6097H50.0399L50.0047 95.6343L47.4187 97.4542L47.5538 97.6342L50.1359 95.8277L50.0556 95.8485L50.1888 95.8618L50.5669 95.9016L51.9383 96.0438C53.3802 96.1898 54.877 96.3357 56.3463 96.4741L58.0743 96.6296C62.2119 96.9954 65.0017 97.1698 65.8578 97.0731L65.752 97.0295L68.0638 100L68.2538 99.8635ZM117.966 93.0582L118.015 90.7493L117.954 90.846L118.08 90.7758C118.18 90.7189 118.289 90.6526 118.407 90.5749C118.758 90.3482 119.091 90.0946 119.4 89.8166C120.207 89.0887 120.734 88.2812 120.838 87.4092L120.732 87.5077L122 87.4148L121.982 87.1912L120.715 87.2859H120.621L120.609 87.3769C120.511 88.1883 120.021 88.9522 119.238 89.6517C118.938 89.9202 118.616 90.1649 118.276 90.3834C118.16 90.4573 118.054 90.5237 117.958 90.573C117.902 90.6071 117.862 90.628 117.841 90.6393L117.782 90.6697V90.736L117.733 93.0449L117.966 93.0582ZM37.2744 81C37.2509 81.0133 37.2097 81.0379 37.1529 81.0758C37.0569 81.1365 36.957 81.2085 36.8336 81.29C36.4947 81.5359 36.1757 81.8065 35.8795 82.0995C34.7315 83.2217 34.1888 84.4576 34.6002 85.7467L34.8196 85.6822C34.4396 84.488 34.9489 83.3259 36.0441 82.2568C36.334 81.9738 36.6465 81.7133 36.9786 81.4777C37.0902 81.3981 37.1941 81.3279 37.2861 81.2692C37.341 81.2332 37.3802 81.2104 37.4017 81.199L37.2744 81ZM29.3439 85.0813C29.2726 85.19 29.2148 85.3065 29.1715 85.4282C28.935 86.0792 28.9433 86.7901 29.195 87.4357C29.5653 88.4859 30.4626 89.5721 31.9965 90.6697C33.4009 91.5631 34.8877 92.3291 36.4378 92.9577L36.3732 92.8895L37.1686 95.2855L37.388 95.2173L36.5926 92.8212L36.575 92.7719L36.526 92.753C34.9909 92.127 33.5186 91.3655 32.1278 90.4782C30.635 89.4091 29.7769 88.3608 29.4144 87.3561C29.1793 86.7593 29.1695 86.1014 29.387 85.4984C29.416 85.4209 29.4507 85.3455 29.4908 85.2728C29.5039 85.248 29.5182 85.224 29.5339 85.2007L29.3439 85.0813ZM117.856 83.5231C117.856 83.5326 117.878 83.5477 117.898 83.5743C117.917 83.6008 117.97 83.6653 118.011 83.7202C118.139 83.8927 118.255 84.0725 118.36 84.2586C118.818 85.0794 119.001 85.9135 118.752 86.6869C118.446 87.6442 117.498 88.4347 115.758 88.9939C113.331 89.7768 111.166 90.4384 109.293 90.9824C108.64 91.172 108.07 91.3344 107.583 91.4696L107.144 91.589L106.995 91.6289L107.107 91.6573L105.459 90.0991L105.42 90.0612H105.365L101.661 90.4839L101.753 90.5123L100.577 89.4735L100.422 89.6384L101.598 90.6753L101.637 90.7114H101.69L105.395 90.2905L105.301 90.2602L106.948 91.8184L106.995 91.8639L107.06 91.8469L107.209 91.807L107.65 91.6857C108.135 91.5511 108.707 91.3881 109.362 91.1985C111.235 90.6526 113.401 89.991 115.827 89.2081C117.631 88.6281 118.638 87.7883 118.961 86.7552C119.228 85.9135 119.034 85.0225 118.548 84.1543C118.44 83.9576 118.319 83.7677 118.186 83.5857C118.143 83.5269 118.101 83.4738 118.064 83.4302C118.05 83.4103 118.034 83.3913 118.017 83.3733L117.856 83.5231Z" fill="white"/>
<path d="M137.797 59.9662C137.539 60.0113 137.258 60.0113 137 59.9662C137.739 59.8728 137.582 59 137.582 59L137.625 59.0106L137.999 59.1191C137.999 59.1191 138.029 59.8833 137.797 59.9662Z" fill="url(#paint11_linear_345_13)"/>
<path d="M133.798 71L133 89C133.272 88.992 133.536 88.9339 133.764 88.8319L135 72.8785L133.798 71Z" fill="#3A3A3A"/>
<path d="M61 23V47H91" stroke="#3F3D56" stroke-width="1.20112" stroke-miterlimit="10"/>
<path d="M64.7955 30.1062H66.5854C66.7964 30.1062 66.9987 30.1888 67.1479 30.3358C67.2971 30.4828 67.3809 30.6821 67.3809 30.89V45.9902H64V30.8978C63.999 30.7942 64.0188 30.6915 64.0583 30.5955C64.0978 30.4995 64.1562 30.4122 64.2302 30.3385C64.3042 30.2649 64.3922 30.2065 64.4893 30.1666C64.5863 30.1268 64.6904 30.1062 64.7955 30.1062ZM71.2948 35.4433H73.1423C73.347 35.4433 73.5433 35.5234 73.688 35.666C73.8327 35.8086 73.914 36.0019 73.914 36.2035V46H70.5331V36.2035C70.5331 36.0036 70.613 35.8117 70.7556 35.6694C70.8981 35.5272 71.0919 35.4459 71.2948 35.4433ZM84.5359 38.7761H86.0772C86.322 38.7761 86.5567 38.8719 86.7297 39.0424C86.9028 39.2129 87 39.4441 87 39.6852V45.9961H83.6191V39.6852C83.6191 39.4451 83.7155 39.2148 83.8873 39.0444C84.059 38.8741 84.2922 38.7777 84.5359 38.7761ZM77.5435 28H79.0867C79.3315 28 79.5662 28.0958 79.7392 28.2663C79.9123 28.4368 80.0095 28.668 80.0095 28.9091V45.9961H76.6187V28.9111C76.6184 28.7914 76.6422 28.6728 76.6886 28.5621C76.7349 28.4515 76.803 28.3509 76.889 28.2663C76.9749 28.1816 77.0769 28.1145 77.1893 28.0688C77.3016 28.0231 77.4219 27.9997 77.5435 28Z" fill="#76DE11"/>
<path d="M75 89L60.374 88.4963C60.1998 88.4845 56.1952 87.9749 50.9842 87.2584C48.9568 86.9792 41.7455 84.8139 41.1084 82.8555L19 0.142531L54.4621 0L74.9884 88.9453L75 89Z" fill="url(#paint12_linear_345_13)"/>
<path opacity="0.13" d="M127 53.056L126.836 53.3418L124.029 57L123.655 56.7701L122 53.1999C122.024 53.1282 122.065 53.0604 122.122 53L127 53.056Z" fill="url(#paint13_linear_345_13)"/>
<defs>
<linearGradient id="paint0_linear_345_13" x1="74.9303" y1="89.0097" x2="74.5076" y2="0.167436" gradientUnits="userSpaceOnUse">
<stop offset="0.01" stop-color="white" stop-opacity="0.4"/>
<stop offset="1" stop-color="white" stop-opacity="0"/>
</linearGradient>
<linearGradient id="paint1_linear_345_13" x1="119.24" y1="82.689" x2="147.154" y2="75.0692" gradientUnits="userSpaceOnUse">
<stop stop-color="#FD6868" stop-opacity="0"/>
<stop offset="0.02" stop-color="#F66666" stop-opacity="0.04"/>
<stop offset="0.18" stop-color="#BC5858" stop-opacity="0.39"/>
<stop offset="0.35" stop-color="#8F4D4D" stop-opacity="0.66"/>
<stop offset="0.53" stop-color="#6F4545" stop-opacity="0.85"/>
<stop offset="0.73" stop-color="#5C4040" stop-opacity="0.96"/>
<stop offset="0.99" stop-color="#563D3D"/>
</linearGradient>
<linearGradient id="paint2_linear_345_13" x1="133.999" y1="48.995" x2="137" y2="48.995" gradientUnits="userSpaceOnUse">
<stop stop-color="#ECC4C4"/>
<stop offset="0.42" stop-color="#EFD1D1"/>
<stop offset="1" stop-color="#F2C9C9"/>
</linearGradient>
<linearGradient id="paint3_linear_345_13" x1="2215.04" y1="1019.92" x2="2302.45" y2="1293.69" gradientUnits="userSpaceOnUse">
<stop stop-color="#ECC4C4"/>
<stop offset="0.42" stop-color="#EFD1D1"/>
<stop offset="1" stop-color="#F2C9C9"/>
</linearGradient>
<linearGradient id="paint4_linear_345_13" x1="4828.63" y1="2106.76" x2="5071.67" y2="2106.76" gradientUnits="userSpaceOnUse">
<stop stop-color="#ECC4C4"/>
<stop offset="0.42" stop-color="#EFD1D1"/>
<stop offset="1" stop-color="#F2C9C9"/>
</linearGradient>
<linearGradient id="paint5_linear_345_13" x1="127.335" y1="59.8725" x2="129.296" y2="56.2521" gradientUnits="userSpaceOnUse">
<stop stop-color="#76DE11"/>
<stop offset="0.73" stop-color="#201E1E"/>
<stop offset="1" stop-color="#76DE11"/>
</linearGradient>
<linearGradient id="paint6_linear_345_13" x1="3533.2" y1="362.37" x2="3656.05" y2="362.37" gradientUnits="userSpaceOnUse">
<stop stop-color="#ECC4C4"/>
<stop offset="0.42" stop-color="#EFD1D1"/>
<stop offset="1" stop-color="#F2C9C9"/>
</linearGradient>
<linearGradient id="paint7_linear_345_13" x1="821.82" y1="355.2" x2="827.18" y2="355.2" gradientUnits="userSpaceOnUse">
<stop stop-color="#ECC4C4"/>
<stop offset="0.42" stop-color="#EFD1D1"/>
<stop offset="1" stop-color="#F2C9C9"/>
</linearGradient>
<linearGradient id="paint8_linear_345_13" x1="132.903" y1="91.078" x2="131.697" y2="88.4146" gradientUnits="userSpaceOnUse">
<stop offset="0.36" stop-color="#2E0000"/>
<stop offset="1" stop-color="#EB6969" stop-opacity="0"/>
</linearGradient>
<linearGradient id="paint9_linear_345_13" x1="2970.56" y1="1501.97" x2="2941.93" y2="1456.57" gradientUnits="userSpaceOnUse">
<stop offset="0.36" stop-color="#2E0000"/>
<stop offset="1" stop-color="#EB6969" stop-opacity="0"/>
</linearGradient>
<linearGradient id="paint10_linear_345_13" x1="121.998" y1="57.0053" x2="132" y2="57.0053" gradientUnits="userSpaceOnUse">
<stop stop-color="#76DE11"/>
<stop offset="1" stop-color="#3A3A3A"/>
</linearGradient>
<linearGradient id="paint11_linear_345_13" x1="839.04" y1="361.93" x2="846.73" y2="382.86" gradientUnits="userSpaceOnUse">
<stop stop-color="#ECC4C4"/>
<stop offset="0.42" stop-color="#EFD1D1"/>
<stop offset="1" stop-color="#F2C9C9"/>
</linearGradient>
<linearGradient id="paint12_linear_345_13" x1="13700.9" y1="40817.2" x2="13389.7" y2="191.897" gradientUnits="userSpaceOnUse">
<stop offset="0.01" stop-color="white" stop-opacity="0.4"/>
<stop offset="1" stop-color="white" stop-opacity="0"/>
</linearGradient>
<linearGradient id="paint13_linear_345_13" x1="122" y1="55.003" x2="127" y2="55.003" gradientUnits="userSpaceOnUse">
<stop stop-color="#FD6868"/>
<stop offset="1" stop-color="#EB6969"/>
</linearGradient>
</defs>
</svg>
