<svg width="102" height="102" viewBox="0 0 102 102" fill="none" xmlns="http://www.w3.org/2000/svg">
<path d="M94.757 26.6349C94.4339 26.0867 94.0948 25.5493 93.7396 25.0227C89.0102 18.0161 80.8732 13.2238 72.868 11.0573C69.3558 10.123 65.7477 9.59646 62.115 9.48813C38.3256 8.68172 28.8502 27.4309 20.9876 32.2694C13.1251 37.108 1.0288 45.3737 1.83522 62.7117C2.64163 80.0497 15.1411 96.3796 39.3337 97.3877C63.5262 98.3957 65.139 87.5091 78.6465 83.477C87.5855 80.8086 93.9368 71.7959 97.0466 63.4669C101.285 52.116 101.085 37.3722 94.757 26.6349Z" fill="#92E3A9"/>
<path opacity="0.7" d="M94.757 26.6349C94.4339 26.0867 94.0948 25.5493 93.7396 25.0227C89.0102 18.0161 80.8732 13.2238 72.868 11.0573C69.3558 10.123 65.7477 9.59646 62.115 9.48813C38.3256 8.68172 28.8502 27.4309 20.9876 32.2694C13.1251 37.108 1.0288 45.3737 1.83522 62.7117C2.64163 80.0497 15.1411 96.3796 39.3336 97.3877C63.5262 98.3957 65.139 87.5091 78.6465 83.477C87.5855 80.8086 93.9367 71.7959 97.0466 63.4669C101.285 52.116 101.085 37.3722 94.757 26.6349Z" fill="#E6F9D4"/>
<path opacity="0.2" d="M94.2487 55.0864H85.6807V58.5544H94.2487V55.0864Z" fill="black"/>
<path opacity="0.2" d="M66.3766 27.0869H57.8086V30.5549H66.3766V27.0869Z" fill="black"/>
<path opacity="0.2" d="M61.1012 32.3271H52.5332V35.7951H61.1012V32.3271Z" fill="black"/>
<path opacity="0.2" d="M66.9049 9.30713H58.3369V12.7751H66.9049V9.30713Z" fill="black"/>
<path opacity="0.2" d="M59.9762 51.3652H51.4082V54.8332H59.9762V51.3652Z" fill="black"/>
<path opacity="0.2" d="M43.0856 20.3975H34.5176V23.8655H43.0856V20.3975Z" fill="black"/>
<path opacity="0.2" d="M52.4694 20.3975H43.9014V23.8655H52.4694V20.3975Z" fill="black"/>
<path opacity="0.2" d="M45.2887 77.0103H36.7207V80.4783H45.2887V77.0103Z" fill="black"/>
<path opacity="0.2" d="M40.8004 81.2939H32.2324V84.762H40.8004V81.2939Z" fill="black"/>
<path opacity="0.1" d="M56.4088 37.1216H47.8408V40.5896H56.4088V37.1216Z" fill="black"/>
<path opacity="0.1" d="M43.734 11.7715H35.166V15.2395H43.734V11.7715Z" fill="black"/>
<path opacity="0.1" d="M99.1442 63.4009H90.5762V66.8689H99.1442V63.4009Z" fill="black"/>
<path opacity="0.1" d="M48.9606 68.7051H40.3926V72.1731H48.9606V68.7051Z" fill="black"/>
<path opacity="0.1" d="M58.7526 68.7051H50.1846V72.1731H58.7526V68.7051Z" fill="black"/>
<path opacity="0.1" d="M59.568 63.8091H51V67.2771H59.568V63.8091Z" fill="black"/>
<path opacity="0.1" d="M66.2008 37.1216H57.6328V40.5896H66.2008V37.1216Z" fill="black"/>
<path opacity="0.2" d="M70.5846 80.9453H62.0166V84.4133H70.5846V80.9453Z" fill="black"/>
<path opacity="0.1" d="M65.8922 85.7393H57.3242V89.2073H65.8922V85.7393Z" fill="black"/>
<path opacity="0.1" d="M75.6842 85.7393H67.1162V89.2073H75.6842V85.7393Z" fill="black"/>
<path opacity="0.2" d="M29.0485 37.7808H20.4805V41.2488H29.0485V37.7808Z" fill="black"/>
<path opacity="0.1" d="M24.3561 42.5747H15.7881V46.0427H24.3561V42.5747Z" fill="black"/>
<path opacity="0.1" d="M34.1481 42.5747H25.5801V46.0427H34.1481V42.5747Z" fill="black"/>
<path opacity="0.2" d="M25.7047 63.605H17.1367V67.073H25.7047V63.605Z" fill="black"/>
<path opacity="0.1" d="M63.6481 47.022H55.0801V50.49H63.6481V47.022Z" fill="black"/>
<path opacity="0.1" d="M50.7965 81.0898H42.2285V84.5578H50.7965V81.0898Z" fill="black"/>
<path opacity="0.1" d="M47.9821 16.1138H39.4141V19.5818H47.9821V16.1138Z" fill="black"/>
<path opacity="0.2" d="M20.8082 52.1221H12.2402V55.5901H20.8082V52.1221Z" fill="black"/>
<path opacity="0.1" d="M25.7047 47.8379H17.1367V51.3059H25.7047V47.8379Z" fill="black"/>
<path opacity="0.1" d="M47.5319 26.9873H38.9639V30.4553H47.5319V26.9873Z" fill="black"/>
<path opacity="0.1" d="M35.0416 29.0234H26.4736V32.4914H35.0416V29.0234Z" fill="black"/>
<path opacity="0.2" d="M77.3161 55.0864H68.748V58.5544H77.3161V55.0864Z" fill="black"/>
<path opacity="0.2" d="M14.7975 74.2686H6.22949V77.7365H14.7975V74.2686Z" fill="black"/>
<path opacity="0.1" d="M11.0963 25.541H2.52832V29.009H11.0963V25.541Z" fill="black"/>
<path opacity="0.1" d="M20.8883 25.541H12.3203V29.009H20.8883V25.541Z" fill="black"/>
<path opacity="0.1" d="M21.7047 20.645H13.1367V24.113H21.7047V20.645Z" fill="black"/>
<path opacity="0.1" d="M15.3004 34.5781H6.73242V38.0461H15.3004V34.5781Z" fill="black"/>
<path opacity="0.2" d="M26.4254 77.8384H17.8574V81.3064H26.4254V77.8384Z" fill="black"/>
<path d="M95.8682 88.2476H94.1279V93.5476H95.8682V88.2476Z" fill="#263238" stroke="#263238" stroke-miterlimit="10" stroke-linecap="round"/>
<path d="M80.047 88.2476H78.3066V93.5476H80.047V88.2476Z" fill="#263238" stroke="#263238" stroke-miterlimit="10" stroke-linecap="round"/>
<path d="M78.5697 56.8184H95.2738C95.5316 56.8184 95.7789 56.9208 95.9612 57.1031C96.1435 57.2854 96.2459 57.5326 96.2459 57.7904V58.44H77.5977V57.7904C77.5977 57.5326 77.7001 57.2854 77.8824 57.1031C78.0647 56.9208 78.3119 56.8184 78.5697 56.8184Z" fill="#263238" stroke="#263238" stroke-miterlimit="10" stroke-linecap="round"/>
<path d="M79.7129 58.377H94.3514V92.9758C94.3514 93.1684 94.2749 93.3531 94.1387 93.4893C94.0025 93.6254 93.8179 93.7019 93.6253 93.7019H80.439C80.2464 93.7019 80.0617 93.6254 79.9256 93.4893C79.7894 93.3531 79.7129 93.1684 79.7129 92.9758V58.377Z" fill="#A4DD6A" stroke="#263238" stroke-miterlimit="10" stroke-linecap="round"/>
<path d="M84.1533 77.062H89.9111V92.9755C89.9111 93.168 89.8346 93.3527 89.6984 93.4889C89.5623 93.6251 89.3776 93.7016 89.185 93.7016H84.8794C84.6868 93.7016 84.5021 93.6251 84.366 93.4889C84.2298 93.3527 84.1533 93.168 84.1533 92.9755V77.062Z" fill="#A4DD6A" stroke="#263238" stroke-miterlimit="10" stroke-linecap="round"/>
<path d="M96.0282 73.2583L94.3833 75.5847H79.7033L78.0352 73.2583V58.377H96.0282V73.2583Z" fill="#A4DD6A" stroke="#263238" stroke-miterlimit="10" stroke-linecap="round"/>
<path d="M84.5941 69.546C84.4934 69.5513 84.3936 69.5246 84.309 69.4697C84.2365 69.4157 84.1834 69.3397 84.1576 69.2531C84.1249 69.1459 84.1094 69.0342 84.1116 68.9222V68.3118C84.1093 68.198 84.1244 68.0844 84.1564 67.9751C84.1821 67.8866 84.2381 67.81 84.3146 67.7586C84.4094 67.7035 84.5182 67.6774 84.6277 67.6835C84.7302 67.6786 84.8322 67.7002 84.924 67.7462C84.9958 67.7866 85.0516 67.8504 85.0822 67.9269C85.1165 68.0183 85.1329 68.1154 85.1304 68.213V68.3072H84.814V68.204C84.8146 68.1536 84.8105 68.1032 84.8017 68.0536C84.7962 68.0173 84.7788 67.9837 84.7522 67.9584C84.7173 67.9336 84.6748 67.922 84.6321 67.9257C84.6092 67.9236 84.5861 67.9263 84.5642 67.9337C84.5424 67.941 84.5224 67.9528 84.5054 67.9684C84.4778 67.9999 84.4606 68.0391 84.456 68.0807C84.4489 68.1312 84.4455 68.1821 84.4458 68.2331V68.9939C84.445 69.0489 84.4503 69.1038 84.4616 69.1577C84.469 69.1986 84.4895 69.236 84.5199 69.2643C84.5545 69.291 84.5975 69.3041 84.6411 69.3013C84.6859 69.3045 84.7303 69.29 84.7646 69.2609C84.795 69.2302 84.8157 69.1912 84.8239 69.1487C84.8361 69.0927 84.8418 69.0355 84.8409 68.9782V68.8077H84.6456V68.5989H85.1393V69.5213H84.9262L84.9014 69.3418C84.8789 69.3996 84.8414 69.4503 84.7927 69.4888C84.7348 69.5297 84.6648 69.5498 84.5941 69.546Z" fill="#263238"/>
<path d="M85.3936 69.5213V67.7036H85.7257V69.2924H86.1655V69.5213H85.3936Z" fill="#263238"/>
<path d="M86.2461 69.5213L86.6097 67.7036H86.9643L87.3279 69.5213H87.0203L86.9486 69.1017H86.6322L86.5581 69.5213H86.2461ZM86.6658 68.8907H86.9127L86.7892 68.1277L86.6658 68.8907Z" fill="#263238"/>
<path d="M87.9577 69.5464C87.8624 69.5497 87.7679 69.5276 87.684 69.4824C87.6101 69.4391 87.5519 69.3735 87.5178 69.2949C87.4774 69.199 87.4561 69.0962 87.4551 68.9921L87.74 68.936C87.7418 68.9988 87.7505 69.0613 87.7659 69.1222C87.7761 69.1688 87.7986 69.2118 87.831 69.2467C87.8462 69.2615 87.8644 69.2731 87.8842 69.2806C87.9041 69.2882 87.9253 69.2915 87.9466 69.2906C87.9681 69.2927 87.9899 69.2894 88.0099 69.281C88.0298 69.2726 88.0474 69.2593 88.0609 69.2423C88.0846 69.2061 88.0963 69.1633 88.0946 69.12C88.0975 69.0509 88.0787 68.9826 88.0408 68.9248C87.9995 68.8681 87.9512 68.8169 87.8972 68.7722L87.6682 68.5702C87.6065 68.518 87.5545 68.4553 87.5144 68.3851C87.4741 68.3073 87.4544 68.2204 87.4573 68.1327C87.4534 68.0716 87.4626 68.0103 87.4843 67.9531C87.506 67.8958 87.5396 67.8438 87.583 67.8006C87.678 67.7187 87.801 67.6768 87.9262 67.6839C87.9993 67.6815 88.072 67.6949 88.1394 67.7231C88.1934 67.7469 88.2402 67.7844 88.2753 67.8319C88.3095 67.8797 88.335 67.9333 88.3504 67.9901C88.3672 68.0513 88.3777 68.1141 88.3819 68.1775L88.0992 68.2269C88.0968 68.1756 88.0904 68.1246 88.08 68.0743C88.0731 68.035 88.0552 67.9984 88.0284 67.9688C88.0138 67.9553 87.9966 67.945 87.9779 67.9385C87.9592 67.9319 87.9393 67.9293 87.9195 67.9307C87.8982 67.9294 87.8768 67.9331 87.8572 67.9415C87.8376 67.9498 87.8201 67.9626 87.8063 67.9789C87.7794 68.013 87.7655 68.0556 87.7671 68.099C87.7648 68.1521 87.7781 68.2047 87.8051 68.2504C87.8359 68.2961 87.8729 68.3373 87.9151 68.3728L88.1418 68.5724C88.2168 68.6357 88.2815 68.7103 88.3337 68.7935C88.3888 68.8859 88.4165 68.9921 88.4133 69.0997C88.4149 69.1805 88.3951 69.2603 88.3559 69.331C88.3186 69.3974 88.2635 69.4522 88.1968 69.4892C88.1234 69.5286 88.041 69.5483 87.9577 69.5464Z" fill="#263238"/>
<path d="M89.0485 69.5464C88.9532 69.5497 88.8588 69.5276 88.7748 69.4824C88.7009 69.4391 88.6427 69.3735 88.6086 69.2949C88.5683 69.199 88.5469 69.0962 88.5459 68.9921L88.8308 68.936C88.8327 68.9988 88.8413 69.0613 88.8567 69.1222C88.8669 69.1688 88.8894 69.2118 88.9218 69.2467C88.9371 69.2615 88.9552 69.2731 88.9751 69.2806C88.9949 69.2882 89.0161 69.2915 89.0374 69.2906C89.0589 69.2927 89.0807 69.2894 89.1007 69.281C89.1207 69.2726 89.1382 69.2593 89.1517 69.2423C89.1754 69.2061 89.1871 69.1633 89.1854 69.12C89.1883 69.0509 89.1695 68.9826 89.1316 68.9248C89.0903 68.8681 89.042 68.8169 88.988 68.7722L88.7591 68.5702C88.6973 68.518 88.6453 68.4553 88.6053 68.3851C88.5649 68.3073 88.5452 68.2204 88.5481 68.1327C88.5442 68.0716 88.5534 68.0103 88.5751 67.9531C88.5968 67.8958 88.6304 67.8438 88.6738 67.8006C88.7688 67.7187 88.8918 67.6768 89.0171 67.6839C89.0901 67.6815 89.1628 67.6949 89.2302 67.7231C89.2842 67.7469 89.331 67.7844 89.3661 67.8319C89.4003 67.8797 89.4258 67.9333 89.4412 67.9901C89.458 68.0513 89.4686 68.1141 89.4727 68.1775L89.19 68.2269C89.1876 68.1756 89.1812 68.1246 89.1709 68.0743C89.1639 68.035 89.146 67.9984 89.1193 67.9688C89.1047 67.9553 89.0874 67.945 89.0687 67.9385C89.05 67.9319 89.0301 67.9293 89.0103 67.9307C88.989 67.9294 88.9677 67.9331 88.948 67.9415C88.9284 67.9498 88.911 67.9626 88.8971 67.9789C88.8702 68.013 88.8563 68.0556 88.8579 68.099C88.8557 68.1521 88.8689 68.2047 88.8959 68.2504C88.9267 68.2961 88.9638 68.3373 89.0059 68.3728L89.2326 68.5724C89.3076 68.6357 89.3724 68.7103 89.4245 68.7935C89.4796 68.8859 89.5073 68.9921 89.5041 69.0997C89.5057 69.1805 89.4859 69.2603 89.4468 69.331C89.4094 69.3974 89.3543 69.4522 89.2876 69.4892C89.2142 69.5286 89.1318 69.5483 89.0485 69.5464Z" fill="#263238"/>
<path d="M89.1625 72.6344C88.9056 73.0492 88.6487 73.4641 88.3917 73.8789C88.3588 73.9353 88.311 73.9815 88.2535 74.0124C88.196 74.0433 88.131 74.0577 88.0658 74.054C87.9007 74.0523 87.7356 74.0536 87.5548 74.0536V74.4229L87.5295 74.4284C87.4849 74.3518 87.4399 74.2755 87.3958 74.1987C87.2814 73.999 87.1662 73.7998 87.0549 73.5985C87.047 73.5842 87.0421 73.5684 87.0405 73.5521C87.039 73.5358 87.0409 73.5194 87.0461 73.5039C87.2041 73.2033 87.3663 72.9049 87.5394 72.5839V73.0358H88.2794C88.0866 72.6988 87.8975 72.3685 87.704 72.0303C88.0136 71.851 88.3184 71.6745 88.6393 71.4888C88.8152 71.8085 88.9889 72.124 89.1625 72.4395V72.6344Z" fill="white"/>
<path d="M86.3951 70.1597C86.4356 70.1683 86.4766 70.1743 86.5179 70.1776C86.8816 70.1835 87.2453 70.1892 87.6091 70.1916C87.6807 70.1871 87.752 70.2038 87.8141 70.2398C87.8762 70.2758 87.9263 70.3294 87.9579 70.3938C88.0339 70.5364 88.1208 70.6731 88.2069 70.8191C88.3197 70.7548 88.4277 70.6934 88.5357 70.6319L88.5486 70.643C88.4668 70.7921 88.385 70.9412 88.3031 71.0903C88.2312 71.221 88.1607 71.3525 88.0859 71.4816C88.0789 71.495 88.0693 71.5069 88.0575 71.5165C88.0458 71.5261 88.0322 71.5332 88.0176 71.5374C87.6779 71.5571 87.3379 71.5722 86.9905 71.5692L87.3566 71.3538C87.2325 71.1421 87.1115 70.9356 86.9803 70.7117C86.7861 71.0611 86.5984 71.3989 86.41 71.7379C86.0955 71.5642 85.7866 71.3936 85.4688 71.2181C85.5163 71.1316 85.5609 71.0499 85.6059 70.9685C85.6905 70.8152 85.7819 70.6653 85.8582 70.508C85.8937 70.4264 85.946 70.3533 86.0116 70.2932C86.0772 70.2332 86.1547 70.1877 86.2391 70.1597H86.3951Z" fill="white"/>
<path d="M85.0795 71.8758C84.9642 71.8061 84.8576 71.7417 84.751 71.6773L84.7542 71.6603H85.1182C85.2837 71.6603 85.4499 71.6696 85.6144 71.6573C85.6659 71.649 85.7187 71.6581 85.7645 71.6831C85.8102 71.7081 85.8463 71.7477 85.867 71.7955C86.0177 72.0597 86.1829 72.3157 86.332 72.5885C86.2098 72.515 86.0875 72.4415 85.9571 72.3632C85.8344 72.576 85.7141 72.7842 85.5854 73.0073H86.7427V74.0869C86.6881 74.0869 86.6342 74.0869 86.5803 74.0869C86.3369 74.087 86.0935 74.0891 85.8501 74.0867C85.7554 74.0903 85.6617 74.0658 85.5808 74.0164C85.4998 73.967 85.4352 73.8949 85.395 73.809C85.2075 73.4464 85.0204 73.0836 84.8262 72.7246C84.7837 72.6591 84.762 72.5825 84.7636 72.5045C84.7653 72.4265 84.7904 72.3508 84.8355 72.2872C84.9208 72.1576 84.9945 72.0203 85.0795 71.8758Z" fill="white"/>
<path d="M92.9977 66.8842H81.0655L80.0127 58.377H94.0506L92.9977 66.8842Z" stroke="#263238" stroke-miterlimit="10" stroke-linecap="round"/>
<path d="M97.0645 58.377H76.999V60.268H97.0645V58.377Z" fill="#A4DD6A" stroke="#263238" stroke-miterlimit="10" stroke-linecap="round"/>
<path d="M82.1621 66.7832V63.3306" stroke="#263238" stroke-miterlimit="10" stroke-linecap="round"/>
<path d="M84.4932 66.7835V62.688" stroke="#263238" stroke-miterlimit="10" stroke-linecap="round"/>
<path d="M86.8232 66.7831V61.4019" stroke="#263238" stroke-miterlimit="10" stroke-linecap="round"/>
<path d="M89.1533 66.7835V62.688" stroke="#263238" stroke-miterlimit="10" stroke-linecap="round"/>
<path d="M91.4844 66.7832V63.3306" stroke="#263238" stroke-miterlimit="10" stroke-linecap="round"/>
<path d="M73.7384 88.2476H71.998V93.5476H73.7384V88.2476Z" fill="#263238" stroke="#263238" stroke-miterlimit="10" stroke-linecap="round"/>
<path d="M57.9171 88.2476H56.1768V93.5476H57.9171V88.2476Z" fill="#263238" stroke="#263238" stroke-miterlimit="10" stroke-linecap="round"/>
<path d="M56.4399 56.8184H73.1439C73.4017 56.8184 73.649 56.9208 73.8313 57.1031C74.0136 57.2854 74.116 57.5326 74.116 57.7904V58.44H55.4678V57.7904C55.4678 57.5326 55.5702 57.2854 55.7525 57.1031C55.9348 56.9208 56.182 56.8184 56.4399 56.8184Z" fill="#263238" stroke="#263238" stroke-miterlimit="10" stroke-linecap="round"/>
<path d="M57.583 58.377H72.2215V92.9758C72.2215 93.1684 72.145 93.3531 72.0088 93.4893C71.8727 93.6254 71.688 93.7019 71.4954 93.7019H58.3091C58.1165 93.7019 57.9318 93.6254 57.7957 93.4893C57.6595 93.3531 57.583 93.1684 57.583 92.9758V58.377Z" fill="#A4DD6A" stroke="#263238" stroke-miterlimit="10" stroke-linecap="round"/>
<path d="M62.0234 77.062H67.7812V92.9755C67.7812 93.168 67.7047 93.3527 67.5686 93.4889C67.4324 93.6251 67.2477 93.7016 67.0552 93.7016H62.7495C62.557 93.7016 62.3723 93.6251 62.2361 93.4889C62.0999 93.3527 62.0234 93.168 62.0234 92.9755V77.062Z" fill="#A4DD6A" stroke="#263238" stroke-miterlimit="10" stroke-linecap="round"/>
<path d="M73.8981 73.2583L72.2532 75.5847H57.5734L55.9053 73.2583V58.377H73.8981V73.2583Z" fill="#A4DD6A" stroke="#263238" stroke-miterlimit="10" stroke-linecap="round"/>
<path d="M61.3789 69.3542V67.5366H61.913C62.0055 67.5327 62.0974 67.5536 62.179 67.5974C62.2471 67.6378 62.3 67.6998 62.3292 67.7735C62.3636 67.8625 62.3801 67.9574 62.3776 68.0528C62.3818 68.1517 62.3609 68.2502 62.3168 68.3388C62.2794 68.4088 62.2199 68.4644 62.1475 68.497C62.0664 68.5317 61.9787 68.5486 61.8905 68.5464H61.711V69.3542H61.3789ZM61.711 68.3131H61.8367C61.8848 68.3155 61.9328 68.3066 61.977 68.2873C61.9936 68.2788 62.0083 68.2671 62.0202 68.2529C62.0322 68.2386 62.0411 68.222 62.0465 68.2042C62.0608 68.1543 62.0673 68.1025 62.0656 68.0506C62.0667 67.9967 62.0618 67.9428 62.0511 67.89C62.0474 67.8713 62.0399 67.8536 62.0291 67.838C62.0183 67.8224 62.0043 67.8091 61.9881 67.7992C61.941 67.7766 61.8888 67.7666 61.8367 67.7701H61.711V68.3131Z" fill="#263238"/>
<path d="M62.5527 69.3543V67.5366H62.8848V69.1254H63.3247V69.3543H62.5527Z" fill="#263238"/>
<path d="M63.4053 69.3543L63.7689 67.5366H64.1235L64.487 69.3543H64.1794L64.1077 68.9347H63.7914L63.7172 69.3543H63.4053ZM63.825 68.7238H64.0719L63.9483 67.9608L63.825 68.7238Z" fill="#263238"/>
<path d="M65.1179 69.3789C65.0226 69.3822 64.9281 69.3602 64.8441 69.3149C64.7703 69.2717 64.7121 69.2061 64.678 69.1277C64.6376 69.0317 64.6163 68.9288 64.6152 68.8246L64.9001 68.7685C64.902 68.8313 64.9107 68.8938 64.926 68.9547C64.9362 69.0013 64.9587 69.0443 64.9912 69.0793C65.0064 69.0941 65.0245 69.1056 65.0444 69.1131C65.0643 69.1207 65.0855 69.124 65.1067 69.1231C65.1283 69.1252 65.15 69.1219 65.17 69.1135C65.19 69.1051 65.2075 69.0918 65.221 69.0749C65.2447 69.0386 65.2565 68.9958 65.2547 68.9525C65.2576 68.8834 65.2388 68.8152 65.2009 68.7573C65.1596 68.7007 65.1114 68.6494 65.0573 68.6047L64.8284 68.4027C64.7666 68.3506 64.7146 68.2879 64.6746 68.2176C64.6342 68.1398 64.6145 68.0529 64.6174 67.9652C64.6136 67.9041 64.6228 67.8429 64.6444 67.7856C64.6661 67.7283 64.6998 67.6763 64.7431 67.6331C64.8381 67.5512 64.9612 67.5094 65.0864 67.5164C65.1594 67.5141 65.2321 67.5274 65.2995 67.5556C65.3535 67.5795 65.4003 67.617 65.4354 67.6644C65.4697 67.7123 65.4951 67.7659 65.5105 67.8228C65.5273 67.884 65.5379 67.9467 65.542 68.01L65.2593 68.0594C65.2569 68.0082 65.2505 67.9571 65.2402 67.9068C65.2333 67.8676 65.2154 67.831 65.1886 67.8015C65.174 67.7879 65.1568 67.7776 65.1381 67.771C65.1193 67.7644 65.0994 67.7618 65.0796 67.7632C65.0583 67.7619 65.037 67.7656 65.0174 67.774C64.9977 67.7823 64.9803 67.7952 64.9665 67.8114C64.9396 67.8456 64.9257 67.8881 64.9272 67.9315C64.925 67.9846 64.9382 68.0372 64.9653 68.083C64.9961 68.1286 65.0331 68.1698 65.0752 68.2053L65.3019 68.4051C65.377 68.4683 65.4417 68.5428 65.4938 68.626C65.549 68.7185 65.5766 68.8248 65.5735 68.9324C65.575 69.0132 65.5552 69.0929 65.5161 69.1635C65.4788 69.23 65.4237 69.2848 65.3569 69.3217C65.2835 69.3611 65.2012 69.3808 65.1179 69.3789Z" fill="#263238"/>
<path d="M65.9496 69.3543V67.7813H65.6602V67.5366H66.5668V67.7813H66.2819V69.3543H65.9496Z" fill="#263238"/>
<path d="M66.7422 69.3543V67.5366H67.0699V69.3543H66.7422Z" fill="#263238"/>
<path d="M67.8396 69.379C67.7297 69.3852 67.6205 69.3578 67.5264 69.3005C67.4513 69.2487 67.3956 69.1732 67.3683 69.0861C67.3368 68.9848 67.3217 68.8792 67.3234 68.7731V68.1247C67.3213 68.0153 67.3364 67.9062 67.3683 67.8015C67.3947 67.7149 67.4507 67.6403 67.5264 67.5906C67.6215 67.5362 67.7303 67.5105 67.8396 67.5165C67.9419 67.5111 68.0438 67.5332 68.1346 67.5804C68.2048 67.622 68.2583 67.6866 68.2861 67.7633C68.3175 67.8519 68.3327 67.9454 68.3309 68.0394V68.1918H68.0123V68.0348C68.0126 67.9884 68.01 67.9419 68.0046 67.8958C68.0013 67.8588 67.9864 67.8237 67.9619 67.7958C67.9454 67.7819 67.9263 67.7714 67.9056 67.7651C67.885 67.7588 67.8633 67.7567 67.8418 67.7589C67.8195 67.7569 67.797 67.7593 67.7756 67.7661C67.7542 67.7728 67.7344 67.7837 67.7173 67.7982C67.6897 67.8271 67.672 67.864 67.6667 67.9035C67.6589 67.9529 67.6552 68.0028 67.6555 68.0528V68.8427C67.6543 68.8973 67.6596 68.952 67.6713 69.0054C67.6787 69.0432 67.6989 69.0772 67.7284 69.1018C67.7615 69.1251 67.8014 69.1366 67.8418 69.1343C67.8631 69.1365 67.8846 69.1342 67.9049 69.1274C67.9252 69.1207 67.9438 69.1096 67.9595 69.0951C67.9843 69.0655 67.9996 69.0291 68.0034 68.9907C68.0097 68.9423 68.0127 68.8936 68.0123 68.8449V68.6811H68.3309V68.8269C68.3326 68.924 68.3182 69.0206 68.2883 69.113C68.2622 69.1932 68.2096 69.262 68.139 69.3083C68.0482 69.3605 67.9442 69.385 67.8396 69.379Z" fill="#263238"/>
<path d="M66.9751 72.6344C66.7181 73.0492 66.4612 73.4641 66.2042 73.8789C66.1713 73.9353 66.1235 73.9815 66.066 74.0124C66.0085 74.0433 65.9435 74.0577 65.8784 74.054C65.7133 74.0523 65.5481 74.0536 65.3673 74.0536V74.4229L65.342 74.4284C65.2974 74.3518 65.2524 74.2755 65.2083 74.1987C65.0939 73.999 64.9788 73.7998 64.8674 73.5985C64.8595 73.5842 64.8546 73.5684 64.853 73.5521C64.8515 73.5358 64.8534 73.5194 64.8586 73.5039C65.0166 73.2033 65.1788 72.9049 65.3519 72.5839V73.0358H66.0919C65.8991 72.6988 65.7101 72.3685 65.5165 72.0303C65.8261 71.851 66.1309 71.6745 66.4518 71.4888C66.6277 71.8085 66.8014 72.124 66.9751 72.4395V72.6344Z" fill="white"/>
<path d="M64.2075 70.1597C64.2481 70.1683 64.2891 70.1743 64.3304 70.1776C64.6941 70.1835 65.0578 70.1892 65.4215 70.1916C65.4932 70.1871 65.5645 70.2038 65.6266 70.2398C65.6887 70.2758 65.7387 70.3294 65.7704 70.3938C65.8464 70.5364 65.9333 70.6731 66.0194 70.8191C66.1322 70.7548 66.2402 70.6934 66.3482 70.6319L66.3611 70.643C66.2793 70.7921 66.1974 70.9412 66.1156 71.0903C66.0437 71.221 65.9731 71.3525 65.8984 71.4816C65.8914 71.495 65.8818 71.5069 65.87 71.5165C65.8583 71.5261 65.8447 71.5332 65.8301 71.5374C65.4904 71.5571 65.1504 71.5722 64.803 71.5692L65.1691 71.3538C65.045 71.1421 64.924 70.9356 64.7927 70.7117C64.5986 71.0611 64.4109 71.3989 64.2225 71.7379C63.908 71.5642 63.5991 71.3936 63.2812 71.2181C63.3288 71.1316 63.3734 71.0499 63.4184 70.9685C63.503 70.8152 63.5944 70.6653 63.6707 70.508C63.7062 70.4264 63.7584 70.3533 63.8241 70.2933C63.8897 70.2332 63.9672 70.1877 64.0516 70.1597H64.2075Z" fill="white"/>
<path d="M62.892 71.8758C62.7767 71.8061 62.6701 71.7417 62.5635 71.6773L62.5667 71.6603H62.9307C63.0962 71.6603 63.2623 71.6696 63.4269 71.6573C63.4784 71.649 63.5312 71.6581 63.5769 71.6831C63.6227 71.7081 63.6588 71.7477 63.6795 71.7955C63.8302 72.0597 63.9954 72.3157 64.1445 72.5885C64.0223 72.515 63.9 72.4415 63.7697 72.3632C63.6468 72.576 63.5266 72.7842 63.3979 73.0073H64.5552V74.0869C64.5006 74.0869 64.4467 74.0869 64.3928 74.0869C64.1494 74.087 63.906 74.0891 63.6627 74.0867C63.5679 74.0903 63.4742 74.0658 63.3933 74.0164C63.3123 73.967 63.2477 73.8949 63.2075 73.809C63.02 73.4464 62.8329 73.0836 62.6387 72.7246C62.5963 72.6591 62.5745 72.5825 62.5761 72.5045C62.5778 72.4265 62.6029 72.3508 62.648 72.2872C62.7334 72.1576 62.807 72.0203 62.892 71.8758Z" fill="white"/>
<path d="M70.8678 66.8842H58.9357L57.8828 58.377H71.9207L70.8678 66.8842Z" stroke="#263238" stroke-miterlimit="10" stroke-linecap="round"/>
<path d="M74.9347 58.377H54.8691V60.268H74.9347V58.377Z" fill="#A4DD6A" stroke="#263238" stroke-miterlimit="10" stroke-linecap="round"/>
<path d="M60.0322 66.7832V63.3306" stroke="#263238" stroke-miterlimit="10" stroke-linecap="round"/>
<path d="M62.3633 66.7835V62.688" stroke="#263238" stroke-miterlimit="10" stroke-linecap="round"/>
<path d="M64.6934 66.7831V61.4019" stroke="#263238" stroke-miterlimit="10" stroke-linecap="round"/>
<path d="M67.0234 66.7835V62.688" stroke="#263238" stroke-miterlimit="10" stroke-linecap="round"/>
<path d="M69.3545 66.7832V63.3306" stroke="#263238" stroke-miterlimit="10" stroke-linecap="round"/>
<path d="M51.9059 58.2541H34.1218C34.1218 58.2541 33.0237 40.8081 34.1218 39.5628C36.2381 37.1629 50.173 37.5977 51.9059 39.5628C53.1195 40.9391 51.9059 58.2541 51.9059 58.2541Z" fill="#263238" stroke="#263238" stroke-miterlimit="10" stroke-linecap="round"/>
<path d="M46.7074 42.0771H39.3714C37.73 42.0771 36.3994 43.4077 36.3994 45.0491V52.7358C36.3994 54.3772 37.73 55.7078 39.3714 55.7078H46.7074C48.3488 55.7078 49.6794 54.3772 49.6794 52.7358V45.0491C49.6794 43.4077 48.3488 42.0771 46.7074 42.0771Z" fill="#263238" stroke="white" stroke-miterlimit="10" stroke-linecap="round"/>
<path d="M51.7462 88.2471H50.0059V93.5471H51.7462V88.2471Z" fill="#263238" stroke="#263238" stroke-miterlimit="10" stroke-linecap="round"/>
<path d="M35.9249 88.2471H34.1846V93.5471H35.9249V88.2471Z" fill="#263238" stroke="#263238" stroke-miterlimit="10" stroke-linecap="round"/>
<path d="M35.5908 58.3765H50.2293V92.9754C50.2293 93.1679 50.1528 93.3526 50.0166 93.4888C49.8805 93.6249 49.6958 93.7014 49.5032 93.7014H36.3169C36.1243 93.7014 35.9396 93.6249 35.8035 93.4888C35.6673 93.3526 35.5908 93.1679 35.5908 92.9754V58.3765Z" fill="#A4DD6A" stroke="#263238" stroke-miterlimit="10" stroke-linecap="round"/>
<path d="M40.0312 77.062H45.789V92.9755C45.789 93.168 45.7125 93.3527 45.5764 93.4889C45.4402 93.6251 45.2555 93.7016 45.0629 93.7016H40.7573C40.5648 93.7016 40.3801 93.6251 40.2439 93.4889C40.1077 93.3527 40.0312 93.168 40.0312 92.9755V77.062Z" fill="#A4DD6A" stroke="#263238" stroke-miterlimit="10" stroke-linecap="round"/>
<path d="M51.9061 73.2578L50.2612 75.5843H35.5812L33.9131 73.2578V58.3765H51.9061V73.2578Z" fill="#A4DD6A" stroke="#263238" stroke-miterlimit="10" stroke-linecap="round"/>
<path d="M40.2285 69.3542V67.5366H40.7626C40.8551 67.5327 40.947 67.5536 41.0286 67.5974C41.0968 67.6378 41.1496 67.6998 41.1788 67.7735C41.2132 67.8625 41.2297 67.9574 41.2272 68.0528C41.2315 68.1517 41.2106 68.2502 41.1664 68.3388C41.129 68.4088 41.0695 68.4644 40.9971 68.497C40.916 68.5317 40.8283 68.5486 40.7401 68.5464H40.5606V69.3542H40.2285ZM40.5606 68.3131H40.6863C40.7344 68.3155 40.7824 68.3066 40.8266 68.2873C40.8432 68.2788 40.8579 68.2671 40.8699 68.2529C40.8818 68.2386 40.8907 68.222 40.8961 68.2042C40.9104 68.1543 40.9169 68.1025 40.9152 68.0506C40.9163 67.9967 40.9114 67.9428 40.9007 67.89C40.897 67.8713 40.8895 67.8536 40.8787 67.838C40.8679 67.8224 40.8539 67.8092 40.8377 67.7992C40.7906 67.7766 40.7384 67.7666 40.6863 67.7701H40.5606V68.3131Z" fill="#263238"/>
<path d="M41.2227 69.3543L41.5862 67.5366H41.9408L42.3044 69.3543H41.9968L41.9251 68.9347H41.6087L41.5346 69.3543H41.2227ZM41.6424 68.7238H41.8892L41.7657 67.9608L41.6424 68.7238Z" fill="#263238"/>
<path d="M42.4766 69.3543V67.5366H43.0107C43.1031 67.5326 43.195 67.5536 43.2766 67.5974C43.3448 67.6378 43.3976 67.6998 43.4268 67.7735C43.4613 67.8625 43.4777 67.9574 43.4752 68.0528C43.4795 68.1517 43.4586 68.2502 43.4145 68.3388C43.377 68.4088 43.3175 68.4644 43.2452 68.497C43.164 68.5317 43.0764 68.5486 42.9882 68.5464H42.8087V69.3543H42.4766ZM42.8087 68.3131H42.9344C42.9825 68.3155 43.0305 68.3066 43.0746 68.2873C43.0912 68.2788 43.1059 68.2671 43.1179 68.2528C43.1298 68.2386 43.1388 68.222 43.1441 68.2042C43.1585 68.1543 43.1649 68.1025 43.1633 68.0506C43.1644 67.9967 43.1595 67.9428 43.1487 67.89C43.1451 67.8713 43.1376 67.8536 43.1267 67.838C43.1159 67.8224 43.102 67.8092 43.0858 67.7992C43.0386 67.7766 42.9865 67.7666 42.9344 67.7701H42.8087V68.3131Z" fill="#263238"/>
<path d="M43.6504 69.3543V67.5366H44.4134V67.7701H43.9825V68.2928H44.3214V68.5241H43.9825V69.1254H44.4178V69.3543H43.6504Z" fill="#263238"/>
<path d="M44.6104 69.354V67.5364H45.0456C45.1509 67.5339 45.2559 67.5487 45.3564 67.5802C45.4363 67.6057 45.5047 67.6585 45.5495 67.7294C45.5978 67.8172 45.6207 67.9167 45.6156 68.0167C45.6164 68.0831 45.6096 68.1493 45.5955 68.2141C45.584 68.2683 45.5606 68.3193 45.527 68.3633C45.4919 68.4067 45.4458 68.4397 45.3935 68.4588L45.6471 69.354H45.315L45.0951 68.5215H44.9424V69.354H44.6104ZM44.9424 68.3129H45.0456C45.0984 68.3152 45.1509 68.3056 45.1994 68.2849C45.2372 68.2665 45.2665 68.2343 45.2813 68.195C45.2994 68.1443 45.3078 68.0906 45.306 68.0368C45.3111 67.9649 45.2934 67.8931 45.2556 67.8317C45.2312 67.806 45.2011 67.7864 45.1678 67.7745C45.1344 67.7626 45.0987 67.7587 45.0636 67.7631H44.9424V68.3129Z" fill="#263238"/>
<path d="M45.1157 72.6344C44.8588 73.0492 44.6018 73.4641 44.3448 73.8789C44.312 73.9353 44.2641 73.9815 44.2066 74.0124C44.1491 74.0433 44.0842 74.0577 44.019 74.054C43.8539 74.0523 43.6888 74.0536 43.5079 74.0536V74.4229L43.4827 74.4284C43.4381 74.3518 43.393 74.2755 43.349 74.1987C43.2346 73.999 43.1194 73.7998 43.0081 73.5985C43.0001 73.5842 42.9952 73.5684 42.9937 73.5521C42.9922 73.5358 42.994 73.5194 42.9992 73.5039C43.1572 73.2033 43.3195 72.9049 43.4925 72.5839V73.0358H44.2325C44.0397 72.6988 43.8507 72.3685 43.6571 72.0303C43.9667 71.851 44.2716 71.6745 44.5924 71.4888C44.7684 71.8085 44.942 72.124 45.1157 72.4395V72.6344Z" fill="white"/>
<path d="M42.3482 70.1597C42.3887 70.1683 42.4297 70.1743 42.4711 70.1776C42.8347 70.1835 43.1985 70.1892 43.5622 70.1916C43.6338 70.1871 43.7052 70.2038 43.7672 70.2398C43.8293 70.2758 43.8794 70.3294 43.911 70.3938C43.987 70.5364 44.0739 70.6731 44.16 70.8191C44.2728 70.7548 44.3808 70.6934 44.4888 70.6319L44.5017 70.643C44.4199 70.7921 44.3381 70.9412 44.2562 71.0903C44.1843 71.221 44.1138 71.3525 44.039 71.4816C44.032 71.495 44.0224 71.5069 44.0106 71.5165C43.9989 71.5261 43.9853 71.5332 43.9707 71.5374C43.631 71.5571 43.291 71.5722 42.9437 71.5692C43.0637 71.4986 43.1837 71.428 43.3097 71.3538C43.1856 71.1421 43.0646 70.9356 42.9334 70.7117C42.7392 71.0611 42.5515 71.3989 42.3631 71.7379C42.0486 71.5642 41.7397 71.3936 41.4219 71.2181C41.4694 71.1316 41.514 71.0499 41.559 70.9685C41.6436 70.8152 41.735 70.6653 41.8114 70.508C41.8468 70.4264 41.8991 70.3533 41.9647 70.2932C42.0303 70.2332 42.1079 70.1877 42.1922 70.1597H42.3482Z" fill="white"/>
<path d="M41.0327 71.8758C40.9173 71.8061 40.8107 71.7417 40.7041 71.6773L40.7073 71.6603H41.0713C41.2368 71.6603 41.403 71.6696 41.5676 71.6573C41.619 71.649 41.6718 71.6581 41.7176 71.6831C41.7633 71.7081 41.7994 71.7477 41.8202 71.7955C41.9709 72.0597 42.136 72.3157 42.2852 72.5885C42.1629 72.515 42.0406 72.4415 41.9103 72.3632C41.7875 72.576 41.6673 72.7842 41.5385 73.0073H42.6958V74.0869C42.6412 74.0869 42.5873 74.0869 42.5334 74.0869C42.29 74.087 42.0466 74.0891 41.8033 74.0867C41.7085 74.0903 41.6148 74.0658 41.5339 74.0164C41.4529 73.967 41.3883 73.8949 41.3481 73.809C41.1606 73.4464 40.9735 73.0836 40.7793 72.7246C40.7369 72.6591 40.7151 72.5825 40.7168 72.5045C40.7184 72.4265 40.7435 72.3508 40.7887 72.2872C40.874 72.1576 40.9476 72.0203 41.0327 71.8758Z" fill="white"/>
<path d="M48.8756 66.8837H36.9435L35.8906 58.3765H49.9285L48.8756 66.8837Z" stroke="#263238" stroke-miterlimit="10" stroke-linecap="round"/>
<path d="M52.9425 58.3765H32.877V60.2675H52.9425V58.3765Z" fill="#A4DD6A" stroke="#263238" stroke-miterlimit="10" stroke-linecap="round"/>
<path d="M38.04 66.7832V63.3306" stroke="#263238" stroke-miterlimit="10" stroke-linecap="round"/>
<path d="M40.3711 66.783V62.6875" stroke="#263238" stroke-miterlimit="10" stroke-linecap="round"/>
<path d="M42.7012 66.7831V61.4019" stroke="#263238" stroke-miterlimit="10" stroke-linecap="round"/>
<path d="M45.0312 66.783V62.6875" stroke="#263238" stroke-miterlimit="10" stroke-linecap="round"/>
<path d="M47.3623 66.7832V63.3306" stroke="#263238" stroke-miterlimit="10" stroke-linecap="round"/>
<path d="M69.3633 5.23193V48.4956H96.5963V5.23193H69.3633ZM95.6049 15.6252H83.601V6.80692H95.6049V15.6252ZM83.601 27.3771H95.6049V36.825H83.601V27.3771ZM83.601 26.2251V16.7772H95.6049V26.2251H83.601ZM70.3547 6.80692H82.3585V15.6252H70.4158V16.7772H82.3585V26.2251H70.4158V27.3771H82.3585V36.825H70.4158V37.977H82.3585V46.9206H70.3547V6.80692ZM83.601 46.9206V37.977H95.6049V46.9206H83.601Z" stroke="#263238" stroke-miterlimit="10" stroke-linecap="round"/>
<path d="M80.6382 9.44385L74.582 14.4559" stroke="#263238" stroke-miterlimit="10" stroke-linecap="round"/>
<path d="M92.646 19.2588L86.5898 24.2708" stroke="#263238" stroke-miterlimit="10" stroke-linecap="round"/>
<path d="M78.9673 40.4556L72.9111 45.4676" stroke="#263238" stroke-miterlimit="10" stroke-linecap="round"/>
<path d="M77.4623 10.9053L74.6865 13.2025" stroke="#263238" stroke-miterlimit="10" stroke-linecap="round"/>
<path d="M92.185 18.1104L89.4092 20.4075" stroke="#263238" stroke-miterlimit="10" stroke-linecap="round"/>
<path d="M78.6107 42.022L75.835 44.3191" stroke="#263238" stroke-miterlimit="10" stroke-linecap="round"/>
<path d="M77.7757 30.9536L75 33.2508" stroke="#263238" stroke-miterlimit="10" stroke-linecap="round"/>
<path d="M91.976 40.6646L89.2002 42.9617" stroke="#263238" stroke-miterlimit="10" stroke-linecap="round"/>
<path d="M98.2847 48.4668H67.7949V52.2544H98.2847V48.4668Z" stroke="#263238" stroke-miterlimit="10" stroke-linecap="round"/>
<path d="M30.9301 82.6389C30.5317 83.1132 30.6446 83.7029 30.6167 84.3311C30.6231 84.6201 30.6082 84.9092 30.5723 85.196C30.4542 84.8087 30.3227 84.4014 30.1693 84.0126C30.171 83.5505 30.1511 82.9734 30.1194 82.5353C30.0745 81.9129 29.9134 81.0349 29.2676 81.0683C28.7904 81.0929 28.6527 81.529 28.7298 81.957C28.8272 82.4981 29.2028 82.8665 29.5816 83.3225C29.7653 83.5283 29.9333 83.7476 30.084 83.9786C30.0976 84.0055 30.1566 84.155 30.1654 84.1785L30.1688 84.1879L30.1689 84.1877C30.2773 84.4704 30.3777 84.7675 30.4628 85.0563C30.2785 84.6927 30.0136 84.2293 29.8066 83.9074C29.4691 83.3826 28.7726 82.701 28.2442 83.2662C27.8538 83.6837 28.1866 84.1496 28.479 84.4587C28.8485 84.8494 29.2634 84.9166 29.8123 85.0475C30.0561 85.0839 30.2935 85.1547 30.5174 85.258C30.5289 85.2755 30.5361 85.2955 30.5383 85.3164C30.5373 85.3264 30.5341 85.336 30.5291 85.3447C30.5346 85.3426 30.5399 85.3402 30.545 85.3373C30.694 85.8817 30.8045 86.436 30.8755 86.996C30.8808 87.0384 30.8845 87.0841 30.8879 87.1259C30.6145 86.7489 30.3154 86.3512 30.0176 86.0014C29.6375 85.5549 28.8512 85.0318 28.4165 85.6477C28.0952 86.1027 28.4364 86.5002 28.7585 86.7498C29.1656 87.0653 29.5878 87.0601 30.1338 87.0837C30.2656 87.0893 30.7218 87.0471 30.8858 87.153C30.887 87.1536 30.888 87.1544 30.8889 87.1554C30.8897 87.1564 30.8904 87.1575 30.8908 87.1587C30.8912 87.16 30.8914 87.1613 30.8913 87.1626C30.8912 87.1639 30.8908 87.1652 30.8902 87.1664C30.8849 87.1729 30.8791 87.179 30.8728 87.1846C30.8795 87.1852 30.8863 87.1852 30.893 87.1844C30.9115 87.4873 30.9118 87.7909 30.8938 88.0938C30.8541 88.3974 30.7328 88.6969 30.6625 88.9972C30.5345 88.6426 30.3595 88.3068 30.1422 87.9987C29.8177 87.5368 29.11 86.9335 28.5793 87.4026C28.1873 87.7492 28.4197 88.1772 28.6918 88.4563C29.0356 88.8091 29.4528 88.8407 29.9625 88.9265C30.1921 88.9402 30.4188 88.9853 30.6362 89.0605C30.5212 89.5134 30.374 89.9599 30.2673 90.4177C30.0943 90.091 29.8825 89.7863 29.6365 89.5103C29.2651 89.122 28.5277 88.8322 28.0806 89.3174C27.7503 89.6759 27.9562 90.0503 28.2638 90.2635C28.6526 90.5329 29.0382 90.4686 29.5388 90.4384C29.6596 90.4311 30.1003 90.3539 30.2543 90.4397C30.111 90.9563 30.0584 91.4939 30.0988 92.0285C30.0926 92.0267 30.0852 92.0233 30.0802 92.0269C30.0765 92.0295 30.0915 92.0327 30.0967 92.0328C30.0982 92.0397 30.1231 92.0771 30.1023 92.0612C29.7915 91.8235 29.6161 91.5462 29.285 91.2637C28.8864 90.9237 28.1463 90.752 27.7605 91.2984C27.4754 91.702 27.8011 92.0526 28.1401 92.1997C28.5687 92.3856 28.9103 92.2907 29.4 92.178C29.5231 92.1497 29.9333 92.0104 30.1023 92.0752C30.2476 92.6903 30.4701 93.2844 30.7646 93.8436L30.8141 93.8019C30.5222 93.2489 30.3041 92.66 30.1655 92.0503C30.5375 92.1569 30.9167 92.2368 31.3001 92.2893C31.8795 92.3431 32.7259 92.1887 32.8933 91.4776C33.0171 90.9522 32.5983 90.765 32.174 90.813C31.6375 90.8737 31.2681 91.2116 30.792 91.5658C30.6006 91.7379 30.3905 91.8878 30.1655 92.0126C30.0751 91.4914 30.2026 90.9703 30.3163 90.4467C30.6822 90.5537 31.0553 90.6342 31.4327 90.6877C32.0053 90.7526 32.843 90.5314 33.0046 89.8281C33.124 89.3084 32.738 89.0756 32.32 89.1402C31.7915 89.2218 31.4947 89.5705 31.029 89.9238C30.918 90.0081 30.5258 90.3754 30.3296 90.4227C30.4275 89.9936 30.5718 89.5486 30.6859 89.1156C30.6498 89.1159 30.6212 89.1131 30.7567 89.0894C31.1555 89.0519 31.5512 88.9866 31.9409 88.894C32.4123 88.7586 33.2324 88.1752 33.069 87.4587C32.9483 86.9292 32.5117 86.8712 32.1396 87.14C31.6691 87.4798 31.5937 87.9098 31.2752 88.4165C31.1907 88.551 30.9208 89.0308 30.6983 89.0949C30.6951 89.0958 30.6954 89.0971 30.6959 89.0951C30.7716 88.7715 30.9124 88.4277 30.9566 88.1064C30.9772 87.7958 30.976 87.4842 30.9531 87.1738C31.3183 87.0962 31.675 86.9825 32.0179 86.8346C32.6025 86.5609 33.1333 85.8954 32.9218 85.1922C32.7655 84.6727 32.3024 84.6026 31.9256 84.8973C31.4494 85.2698 31.4113 85.7604 31.2085 86.3433C31.1483 86.5985 31.0616 86.8468 30.9499 87.0841C30.9448 87.054 30.9412 87.0237 30.9391 86.9933C30.8664 86.4215 30.7521 85.8558 30.5972 85.3006C30.9172 85.0685 31.2247 84.8198 31.5185 84.5554C32.0012 84.0973 32.3682 83.2489 31.9852 82.6455C31.7023 82.1997 31.2453 82.2636 30.9301 82.6389Z" fill="#263238"/>
<path d="M23.9377 87.4697C23.8345 87.8327 24.0442 88.1323 24.1853 88.4885C24.2609 88.6475 24.3247 88.8119 24.3763 88.9803C24.2141 88.7945 24.0394 88.6008 23.8572 88.423C23.743 88.1657 23.5881 87.8499 23.4612 87.6143C23.2811 87.2795 22.9727 86.8317 22.6221 87.0113C22.363 87.1439 22.3952 87.4206 22.5447 87.6393C22.7338 87.9157 23.0343 88.0269 23.3586 88.1859C23.512 88.2545 23.66 88.3345 23.8014 88.4253C23.8156 88.4369 23.8857 88.5053 23.8965 88.5161L23.9007 88.5205V88.5204C24.0314 88.6505 24.1613 88.7906 24.2806 88.9299C24.0875 88.7737 23.8248 88.5822 23.6294 88.4549C23.311 88.2473 22.754 88.0421 22.6012 88.488C22.4883 88.8174 22.7894 88.9934 23.029 89.0923C23.3318 89.2174 23.5791 89.1513 23.9168 89.0872C24.0614 89.0466 24.211 89.0268 24.3612 89.0284C24.3694 89.0302 24.3837 89.0498 24.3874 89.0557C24.3893 89.0615 24.39 89.0676 24.3893 89.0737C24.3919 89.0712 24.3942 89.0685 24.3963 89.0656C24.6149 89.3311 24.8145 89.6116 24.9936 89.9051C25.0071 89.9274 25.0205 89.9518 25.0328 89.9742C24.7869 89.8329 24.5215 89.6864 24.2687 89.5662C23.9462 89.4128 23.3787 89.3181 23.2906 89.7688C23.2255 90.1017 23.5142 90.2377 23.7555 90.2961C24.0604 90.3699 24.2938 90.2618 24.6031 90.1388C24.7373 90.0616 24.8851 90.0111 25.0384 89.9899C25.0408 89.9902 25.0448 89.992 25.0442 89.9962C25.0429 90.0011 25.0411 90.006 25.039 90.0107C25.0429 90.0093 25.0467 90.0076 25.0502 90.0055C25.136 90.1692 25.2119 90.3379 25.2774 90.5108C25.331 90.6894 25.3383 90.8861 25.3741 91.0705C25.2145 90.9054 25.0335 90.7624 24.8359 90.6453C24.5404 90.4695 23.9967 90.3105 23.8187 90.7036C23.6871 90.994 23.923 91.174 24.1438 91.2613C24.4229 91.3716 24.6627 91.2852 24.9673 91.2058C25.0984 91.1561 25.2356 91.1247 25.3752 91.1123C25.4242 91.3927 25.4537 91.6776 25.5085 91.9587C25.3309 91.8202 25.1372 91.7036 24.9317 91.6115C24.6285 91.4883 24.1463 91.5111 24.0188 91.8922C23.9246 92.1738 24.1324 92.3306 24.3565 92.3724C24.6398 92.4252 24.838 92.2933 25.1088 92.1517C25.1741 92.1176 25.3998 91.9648 25.5068 91.9741C25.5559 92.297 25.6607 92.6089 25.8164 92.896C25.8125 92.8965 25.8076 92.8965 25.8057 92.8997C25.8043 92.9021 25.8134 92.9001 25.8163 92.8989C25.8189 92.9024 25.8421 92.9169 25.8265 92.9133C25.5945 92.8586 25.4279 92.7482 25.1734 92.6738C24.8671 92.5842 24.413 92.6732 24.3347 93.0731C24.2769 93.3685 24.5453 93.4822 24.7704 93.4794C25.055 93.4759 25.2212 93.338 25.4653 93.1533C25.5267 93.1068 25.7199 92.9272 25.83 92.9211C26.0641 93.2267 26.3359 93.5015 26.639 93.7388L26.6561 93.7033C26.356 93.4688 26.088 93.1958 25.8589 92.8914C26.0923 92.858 26.3229 92.8078 26.5492 92.7414C26.8846 92.6269 27.3166 92.3301 27.2323 91.8931C27.1702 91.5702 26.8907 91.5706 26.6668 91.703C26.3838 91.8705 26.2627 92.1504 26.0864 92.466C26.0229 92.6093 25.9435 92.745 25.8496 92.8705C25.6897 92.5905 25.5856 92.2821 25.543 91.9625C25.773 91.9308 26.0005 91.8826 26.2235 91.8182C26.558 91.7115 26.9685 91.3797 26.883 90.9485C26.8198 90.6299 26.5472 90.5967 26.331 90.7368C26.0576 90.914 25.9795 91.1818 25.8088 91.4943C25.742 91.6563 25.653 91.8083 25.5444 91.9459C25.4918 91.6829 25.4611 91.3996 25.4165 91.1306C25.3966 91.1397 25.38 91.1453 25.4494 91.0983C25.6617 90.9781 25.8653 90.8431 26.0589 90.6945C26.2871 90.5017 26.5975 89.973 26.3281 89.6155C26.129 89.3513 25.8719 89.4279 25.732 89.6701C25.5552 89.9762 25.6206 90.234 25.5698 90.595C25.5564 90.6909 25.526 91.0249 25.4183 91.116C25.4167 91.1173 25.4173 91.1179 25.417 91.1166C25.3784 90.918 25.371 90.6918 25.3155 90.5021C25.2494 90.3244 25.1711 90.1515 25.081 89.9846C25.2647 89.8504 25.4346 89.6984 25.5883 89.5307C25.845 89.2328 25.9741 88.7306 25.6813 88.3924C25.6438 88.3389 25.5923 88.2967 25.5325 88.2705C25.4726 88.2442 25.4067 88.235 25.3419 88.2437C25.2772 88.2524 25.2161 88.2788 25.1653 88.3199C25.1145 88.361 25.076 88.4153 25.054 88.4769C24.8822 88.8026 24.9833 89.0848 25.0159 89.4593C25.0461 89.6162 25.0598 89.7758 25.0569 89.9356C25.0486 89.9259 25.0384 89.9043 25.0282 89.8878C24.8452 89.5881 24.6407 89.3021 24.4162 89.0322C24.5362 88.8234 24.6451 88.6085 24.7425 88.3883C24.8966 88.0134 24.889 87.4503 24.5258 87.2104C24.2574 87.0332 24.0193 87.1826 23.9377 87.4697Z" fill="#263238"/>
<path d="M23.2906 31.2803C23.2906 31.2803 23.573 32.2484 23.452 32.6921C23.3299 33.0567 23.2619 33.4372 23.2503 33.8215C23.2503 34.2249 24.057 35.1526 23.6133 35.5156C23.3639 35.7283 23.0529 35.8555 22.7259 35.8786C22.5683 36.4843 22.3661 37.0776 22.1209 37.6534C21.7982 38.3391 21.7982 38.4601 21.3545 38.4601C20.9108 38.4601 20.2251 38.1374 20.2251 38.1374C20.2251 38.1374 19.378 39.5089 19.3377 40.4366C19.3069 41.0646 19.3888 41.693 19.5797 42.292C19.7007 42.7761 22.5242 47.576 22.4839 48.4231C22.4436 49.2702 21.9192 49.8752 21.8385 50.2382C21.7579 50.6012 21.0722 60.2415 21.1125 61.1289C21.1528 62.0163 20.9108 66.1306 20.9108 66.1306L18.6923 66.3726L12.0773 65.7272C12.0773 65.7272 11.5126 65.6062 11.1495 62.1373C10.7865 58.6684 12.1983 56.6919 12.884 55.8046C13.5697 54.9172 14.1344 53.3037 14.1344 53.3037C13.2382 50.8262 12.8806 48.1859 13.0856 45.5592C13.4487 41.2837 15.2235 39.4282 15.6671 38.5811C16.1129 37.7331 16.4257 36.8216 16.5949 35.8786C16.6755 35.1929 16.0302 35.0719 16.1108 33.8215C16.1915 32.5711 17.3613 32.2484 18.4503 31.724C19.5394 31.1997 23.2906 31.2803 23.2906 31.2803Z" fill="white" stroke="#263238" stroke-miterlimit="10" stroke-linecap="round"/>
<path d="M20.9108 66.1307C20.9108 66.1307 21.1528 62.0164 21.1125 61.1291C21.0939 60.7195 21.2299 58.445 21.3898 56.0789C18.5496 55.9639 15.0456 55.2082 13.4742 54.8384C13.3068 55.1775 13.1092 55.5009 12.884 55.8047C12.1983 56.6921 10.7865 58.6686 11.1495 62.1375C11.5125 65.6063 12.0772 65.7274 12.0772 65.7274L18.6923 66.3727L20.9108 66.1307Z" fill="#9E9E9E" stroke="#263238" stroke-miterlimit="10" stroke-linecap="round"/>
<path d="M18.6924 66.3726L19.4588 61.6533" stroke="#263238" stroke-miterlimit="10" stroke-linecap="round"/>
<path d="M14.982 57.0146C14.982 57.0146 13.8526 59.5155 13.772 62.1373C13.6913 64.7591 13.893 65.4448 13.893 65.4448" stroke="#263238" stroke-miterlimit="10" stroke-linecap="round"/>
<path d="M14.6191 59.3136C14.6191 59.3136 16.878 58.1842 17.0796 56.5708" stroke="#263238" stroke-miterlimit="10" stroke-linecap="round"/>
<path d="M22.6418 33.9658C22.5962 34.1952 22.4618 34.3619 22.3417 34.338C22.2215 34.3141 22.161 34.1088 22.2066 33.8794C22.2522 33.6499 22.3865 33.4833 22.5067 33.5072C22.6269 33.531 22.6874 33.7364 22.6418 33.9658Z" fill="#263238"/>
<path d="M22 33.055C22.1264 32.9426 22.2877 32.8772 22.4567 32.8698C22.6257 32.8625 22.792 32.9136 22.9277 33.0146" stroke="#263238" stroke-miterlimit="10" stroke-linecap="round"/>
<path d="M21.2744 36.04C21.4783 36.2487 21.7502 36.3775 22.0408 36.4031" stroke="#263238" stroke-miterlimit="10" stroke-linecap="round"/>
<path d="M15.5462 30.1914C15.5462 30.1914 14.0538 28.8603 13.3277 28.699C12.6017 28.5376 11.5529 29.4654 11.3109 30.5544C11.0689 31.6435 11.6739 32.8939 12.7227 33.1763C13.7714 33.4586 14.2554 33.0956 14.6185 32.6519C14.9815 32.2082 15.5462 30.1914 15.5462 30.1914Z" fill="#263238" stroke="#263238" stroke-miterlimit="10" stroke-linecap="round"/>
<path d="M14.1348 37.9763C15.1432 36.5646 16.2726 36.4839 16.2726 36.4839C15.6224 37.0947 15.0892 37.8192 14.6995 38.6217" stroke="#263238" stroke-miterlimit="10" stroke-linecap="round"/>
<path d="M20.2251 38.1375C20.2251 38.1375 19.136 37.6534 18.7327 37.3307C18.4678 37.0913 18.2727 36.7847 18.168 36.4434C18.168 36.4434 18.289 37.8148 18.5713 38.3795C18.8348 38.8567 19.1314 39.315 19.4587 39.7509L20.2251 38.1375Z" fill="#263238" stroke="#263238" stroke-miterlimit="10" stroke-linecap="round"/>
<path d="M20.1304 43.4092C19.9516 43.539 19.6444 43.5581 19.1368 43.3406C17.7251 42.7355 17.3217 41.8078 16.0713 40.6784C15.4769 40.1415 14.9921 40.1063 14.6468 40.2167C14.0113 41.3445 13.3014 43.0274 13.0865 45.5591C12.8814 48.1858 13.239 50.826 14.1352 53.3035C13.8754 54.0282 13.5505 54.7278 13.1645 55.3939C15.9478 56.4053 19.9399 56.577 21.3553 56.6054C21.5484 53.6981 21.7931 50.446 21.8393 50.238C21.92 49.875 22.4444 49.27 22.4847 48.4229C22.5145 47.7972 20.9823 45.0158 20.1304 43.4092Z" fill="#A4DD6A" stroke="#263238" stroke-miterlimit="10" stroke-linecap="round"/>
<path d="M18.3293 33.8619C18.3293 33.8619 19.2167 33.8619 19.5393 33.2971C19.862 32.7324 19.862 32.4904 20.5074 32.2887C21.1528 32.0871 21.4755 32.5711 23.0082 31.603C24.541 30.635 24.7427 29.7879 24.4603 29.4652C24.178 29.1426 21.5561 27.4484 18.7326 27.7711C15.9091 28.0938 14.457 31.3207 14.457 33.1761C14.457 35.0316 15.3444 36.282 16.2721 36.4837C17.1999 36.6854 17.6032 34.7896 17.6839 34.6686C17.7646 34.5476 18.3293 33.8619 18.3293 33.8619Z" fill="#263238" stroke="#263238" stroke-miterlimit="10" stroke-linecap="round"/>
<path d="M18.6519 34.104C18.6519 34.104 17.8048 32.4906 17.1191 33.015C16.4334 33.5393 16.5141 34.4267 17.0385 34.9914C17.5628 35.5561 18.0468 35.2738 18.0468 35.2738" fill="white"/>
<path d="M18.6519 34.104C18.6519 34.104 17.8048 32.4906 17.1191 33.015C16.4334 33.5393 16.5141 34.4267 17.0385 34.9914C17.5628 35.5561 18.0468 35.2738 18.0468 35.2738" stroke="#263238" stroke-miterlimit="10" stroke-linecap="round"/>
<path d="M31.3085 47.7153H25.29V55.7399H31.3085V47.7153Z" fill="white" stroke="#263238" stroke-miterlimit="10" stroke-linecap="round"/>
<path d="M28.5782 47.5199L22.8428 49.3438L25.2745 56.991L31.01 55.1672L28.5782 47.5199Z" fill="#92E3A9" stroke="#263238" stroke-miterlimit="10" stroke-linecap="round"/>
<path d="M28.1036 48.2064L22.3682 50.0303L24.7999 57.6776L30.5354 55.8537L28.1036 48.2064Z" fill="#92E3A9" stroke="#263238" stroke-miterlimit="10" stroke-linecap="round"/>
<path d="M24.7095 59.0661L22.5977 50.1968L28.8274 48.9824L29.408 51.1471L29.1969 51.675L30.5696 57.6406L24.7095 59.0661Z" fill="white" stroke="#263238" stroke-miterlimit="10" stroke-linecap="round"/>
<path d="M23.9702 59.6465L21.8584 50.7772L28.0881 49.563L28.6687 51.7276L28.4576 52.2556L29.8303 58.2212L23.9702 59.6465Z" fill="white" stroke="#263238" stroke-miterlimit="10" stroke-linecap="round"/>
<path d="M29.5137 53.5227C29.5137 53.5227 29.7249 51.5694 30.3056 50.6191C30.8863 49.6688 32.0478 48.9297 32.0478 48.9297C32.0478 48.9297 33.526 49.2465 34.5818 49.9328C35.204 50.3331 35.7719 50.8122 36.2712 51.3582C36.2712 51.3582 33.4732 52.3613 32.8924 53.5227H29.5137Z" fill="white" stroke="#263238" stroke-miterlimit="10" stroke-linecap="round"/>
<path d="M32.0472 48.9296C32.0472 48.9296 32.2056 48.824 32.7863 48.7712C33.2269 48.7463 33.6689 48.7639 34.1061 48.824C34.1061 48.824 33.4198 49.088 31.6777 50.5134C29.9355 51.9388 29.7771 52.4668 29.7771 52.4668C29.7771 52.4668 29.6715 51.7804 30.305 50.619C30.7131 49.9015 31.3175 49.3154 32.0472 48.9296Z" fill="white" stroke="#263238" stroke-miterlimit="10" stroke-linecap="round"/>
<path d="M32.3115 50.144L34.0537 51.0943" stroke="#263238" stroke-miterlimit="10" stroke-linecap="round"/>
<path d="M31.625 50.9355L32.8392 51.6219" stroke="#263238" stroke-miterlimit="10" stroke-linecap="round"/>
<path d="M30.7275 51.8335L31.625 52.3086" stroke="#263238" stroke-miterlimit="10" stroke-linecap="round"/>
<path d="M21.4551 53.0952V63.1059H33.4499V53.0952H21.4551ZM29.8875 54.9891C29.8875 55.2164 29.7972 55.4343 29.6366 55.595C29.4759 55.7556 29.258 55.8459 29.0307 55.8459H25.8742C25.647 55.8459 25.4291 55.7556 25.2684 55.595C25.1077 55.4343 25.0174 55.2164 25.0174 54.9891V54.9891C25.0174 54.7619 25.1077 54.544 25.2684 54.3833C25.4291 54.2226 25.647 54.1324 25.8742 54.1324H29.0307C29.258 54.1324 29.4759 54.2226 29.6366 54.3833C29.7972 54.544 29.8875 54.7619 29.8875 54.9891V54.9891Z" fill="white" stroke="#263238" stroke-miterlimit="10" stroke-linecap="round"/>
<path d="M13.7715 50.1575C13.7715 50.1575 14.4169 56.4499 14.9009 56.5709C15.3849 56.6919 16.595 56.5306 16.595 56.5306C16.595 56.5306 24.2588 54.4331 24.4201 54.4331C24.5815 54.4331 25.4689 55.0382 25.8319 55.1189C26.1096 55.2103 26.4112 55.196 26.679 55.0785C26.8301 55.0049 26.995 54.9637 27.163 54.9575C27.163 54.9575 27.6873 55.2802 27.9294 55.1189C28.1714 54.9575 28.2521 54.9575 28.2117 54.7155C28.0925 54.3674 27.9441 54.0301 27.768 53.7071L27.526 53.1827C27.8158 53.2841 28.1123 53.365 28.4134 53.4247C28.5747 53.4247 29.1394 53.1827 28.9781 52.9004C28.8168 52.618 28.3327 52.5374 27.526 52.2147C26.7193 51.892 26.1143 51.8113 25.9126 52.013C25.7436 52.1523 25.582 52.3004 25.4285 52.4567C25.3479 52.5777 24.3395 52.7794 24.0168 52.86C23.6941 52.9407 17.4824 53.1827 17.4824 53.1827L17.2 49.9155L13.7715 50.1575Z" fill="white" stroke="#263238" stroke-miterlimit="10" stroke-linecap="round"/>
<path d="M14.7395 41.4048C14.7395 41.4048 13.7714 41.6871 13.4487 42.9779C13.126 44.2686 12.884 46.6081 12.9243 47.3342C12.9647 48.0602 13.2067 49.8753 13.2067 49.8753L17.4823 49.6333C17.4823 49.6333 17.3209 44.1476 17.3209 44.2686" fill="#A4DD6A"/>
<path d="M14.7395 41.4048C14.7395 41.4048 13.7714 41.6871 13.4487 42.9779C13.126 44.2686 12.884 46.6081 12.9243 47.3342C12.9647 48.0602 13.2067 49.8753 13.2067 49.8753L17.4823 49.6333C17.4823 49.6333 17.3209 44.1476 17.3209 44.2686" stroke="#263238" stroke-miterlimit="10" stroke-linecap="round"/>
<path d="M12.9248 49.1894L13.2071 50.5607L17.8459 50.1978L17.7651 48.8667L12.9248 49.1894Z" fill="white" stroke="#263238" stroke-miterlimit="10" stroke-linecap="round"/>
<path d="M20.4671 66.3727C20.4671 66.3727 19.9024 72.2213 19.3781 75.8516C18.8537 79.4818 17.8856 83.7574 17.7243 85.4515C17.563 87.1456 17.4419 89.8885 17.4823 90.1708C17.5226 90.4532 19.8218 91.9859 20.3461 92.2279C20.8705 92.47 22.0402 92.3893 21.8386 92.8733C21.6369 93.3573 21.4352 93.2363 20.5478 93.3573C19.6604 93.4783 18.047 93.2767 17.2403 93.2767C16.4336 93.2767 15.1025 93.3977 14.7798 93.2363C14.4571 93.075 14.8201 92.1473 15.0218 91.4616C15.2235 90.7758 15.2638 90.3322 15.2638 89.0817C15.2638 87.8313 15.5462 84.5238 15.1428 81.3372C14.7395 78.1507 15.3445 74.7625 15.4252 74.3188C15.5058 73.8751 16.1109 72.2617 16.1109 72.06C16.1109 71.8583 16.2722 66.292 16.2722 66.292L20.4671 66.3727Z" fill="white" stroke="#263238" stroke-miterlimit="10" stroke-linecap="round"/>
<path d="M20.5478 93.3574C21.4352 93.2364 21.6369 93.3574 21.8386 92.8734C22.0403 92.3893 20.8705 92.47 20.3461 92.228C20.1157 92.1101 19.8916 91.9802 19.6747 91.8388L19.3781 92.5507C19.3781 92.5507 16.5193 92.2852 14.9083 91.8301C14.7159 92.4426 14.5123 93.1027 14.7798 93.2364C15.1025 93.3978 16.4336 93.2767 17.2403 93.2767C18.047 93.2767 19.6604 93.4784 20.5478 93.3574Z" fill="#263238" stroke="#263238" stroke-miterlimit="10" stroke-linecap="round"/>
<path d="M18.7737 65.566L21.5568 65.2837L21.5972 66.8567L18.6123 67.0181L18.7737 65.566Z" fill="white" stroke="#263238" stroke-miterlimit="10" stroke-linecap="round"/>
<path d="M11.7952 65.606L12.36 75.4883C12.36 75.4883 10.5852 78.3118 9.77846 80.1269C9.23513 81.3494 8.31368 83.8296 7.3583 85.6932C6.95302 86.4342 6.48044 87.1363 5.94654 87.7907C5.58353 88.0327 4.89782 88.2747 4.37346 88.5571C3.84908 88.8394 3.56674 89.0411 3.6474 89.6865C3.72808 90.3319 5.0995 91.6629 5.50286 92.7923C5.70635 93.3621 5.90621 93.5991 6.79361 93.6394C7.68099 93.6797 8.52804 93.8411 8.44738 93.3974C8.3667 92.9537 7.68099 92.3486 7.51965 91.9453C7.35831 91.5419 7.43899 90.8159 7.51965 89.9285C7.60515 88.9881 7.60033 88.9604 7.72132 88.7588C7.84234 88.5571 13.1667 82.2244 14.4574 79.6832C15.7482 77.142 15.9902 76.3757 16.1515 75.8916C16.3129 75.4076 18.128 66.5337 18.128 66.5337L11.7952 65.606Z" fill="white" stroke="#263238" stroke-miterlimit="10" stroke-linecap="round"/>
<path d="M8.44738 93.3977C8.39746 93.1232 8.1161 92.787 7.87047 92.475C7.25143 92.5017 7.0982 92.6132 6.55159 92.0666C6.07718 91.5922 5.23103 89.2833 4.88764 88.3081C4.71043 88.3883 4.53429 88.4708 4.37346 88.5574C3.8491 88.8397 3.56674 89.0414 3.6474 89.6868C3.72808 90.3322 5.09949 91.6632 5.50286 92.7926C5.70635 93.3624 5.90621 93.5994 6.79361 93.6397C7.68099 93.68 8.52804 93.8414 8.44738 93.3977Z" fill="#263238" stroke="#263238" stroke-miterlimit="10" stroke-linecap="round"/>
<path d="M11.2305 64.4365L11.4724 66.1308L18.6118 67.0182L18.7732 65.5661L11.2305 64.4365Z" fill="white" stroke="#263238" stroke-miterlimit="10" stroke-linecap="round"/>
<path d="M2.17578 93.7017H100.451" stroke="#263238" stroke-miterlimit="10" stroke-linecap="round"/>
</svg>
